<?xml version="1.0" encoding="UTF-8" standalone="no"?>
<!-- Created with Inkscape (http://www.inkscape.org/) -->

<svg
   width="121.79257mm"
   height="62.59763mm"
   viewBox="0 0 121.79257 62.597629"
   version="1.1"
   id="svg5"
   inkscape:version="1.1 (c68e22c387, 2021-05-23)"
   sodipodi:docname="conf.svg"
   xmlns:inkscape="http://www.inkscape.org/namespaces/inkscape"
   xmlns:sodipodi="http://sodipodi.sourceforge.net/DTD/sodipodi-0.dtd"
   xmlns="http://www.w3.org/2000/svg"
   xmlns:svg="http://www.w3.org/2000/svg">
  <sodipodi:namedview
     id="namedview7"
     pagecolor="#ffffff"
     bordercolor="#666666"
     borderopacity="1.0"
     inkscape:pageshadow="2"
     inkscape:pageopacity="0.0"
     inkscape:pagecheckerboard="0"
     inkscape:document-units="mm"
     showgrid="false"
     inkscape:zoom="0.97637486"
     inkscape:cx="307.25904"
     inkscape:cy="113.17375"
     inkscape:window-width="1366"
     inkscape:window-height="705"
     inkscape:window-x="-8"
     inkscape:window-y="-8"
     inkscape:window-maximized="1"
     inkscape:current-layer="layer1" />
  <defs
     id="defs2">
    <inkscape:path-effect
       effect="powerstroke"
       id="path-effect3229"
       is_visible="true"
       lpeversion="1"
       offset_points="1.2791521,1.354927"
       not_jump="true"
       sort_points="true"
       interpolator_type="CentripetalCatmullRom"
       interpolator_beta="0.75"
       start_linecap_type="round"
       linejoin_type="spiro"
       miter_limit="4"
       scale_width="1"
       end_linecap_type="round" />
    <inkscape:path-effect
       effect="simplify"
       id="path-effect3227"
       is_visible="true"
       lpeversion="1"
       steps="1"
       threshold="0.0032025118"
       smooth_angles="0"
       helper_size="0"
       simplify_individual_paths="false"
       simplify_just_coalesce="false"
       step="1" />
    <inkscape:path-effect
       effect="powerstroke"
       id="path-effect3222"
       is_visible="true"
       lpeversion="1"
       offset_points="0.56577745,1.354927"
       not_jump="true"
       sort_points="true"
       interpolator_type="CentripetalCatmullRom"
       interpolator_beta="0.75"
       start_linecap_type="round"
       linejoin_type="spiro"
       miter_limit="4"
       scale_width="1"
       end_linecap_type="round" />
    <inkscape:path-effect
       effect="simplify"
       id="path-effect3220"
       is_visible="true"
       lpeversion="1"
       steps="1"
       threshold="0.0032025118"
       smooth_angles="0"
       helper_size="0"
       simplify_individual_paths="false"
       simplify_just_coalesce="false"
       step="1" />
    <inkscape:path-effect
       effect="powerstroke"
       id="path-effect3215"
       is_visible="true"
       lpeversion="1"
       offset_points="0.97008264,1.354927"
       not_jump="true"
       sort_points="true"
       interpolator_type="CentripetalCatmullRom"
       interpolator_beta="0.75"
       start_linecap_type="round"
       linejoin_type="spiro"
       miter_limit="4"
       scale_width="1"
       end_linecap_type="round" />
    <inkscape:path-effect
       effect="simplify"
       id="path-effect3213"
       is_visible="true"
       lpeversion="1"
       steps="1"
       threshold="0.0032025118"
       smooth_angles="0"
       helper_size="0"
       simplify_individual_paths="false"
       simplify_just_coalesce="false"
       step="1" />
    <inkscape:path-effect
       effect="powerstroke"
       id="path-effect3208"
       is_visible="true"
       lpeversion="1"
       offset_points="0.51815439,1.354927"
       not_jump="true"
       sort_points="true"
       interpolator_type="CentripetalCatmullRom"
       interpolator_beta="0.75"
       start_linecap_type="round"
       linejoin_type="spiro"
       miter_limit="4"
       scale_width="1"
       end_linecap_type="round" />
    <inkscape:path-effect
       effect="simplify"
       id="path-effect3206"
       is_visible="true"
       lpeversion="1"
       steps="1"
       threshold="0.0032025118"
       smooth_angles="0"
       helper_size="0"
       simplify_individual_paths="false"
       simplify_just_coalesce="false"
       step="1" />
    <inkscape:path-effect
       effect="powerstroke"
       id="path-effect3201"
       is_visible="true"
       lpeversion="1"
       offset_points="0.22642282,1.354927"
       not_jump="true"
       sort_points="true"
       interpolator_type="CentripetalCatmullRom"
       interpolator_beta="0.75"
       start_linecap_type="round"
       linejoin_type="spiro"
       miter_limit="4"
       scale_width="1"
       end_linecap_type="round" />
    <inkscape:path-effect
       effect="simplify"
       id="path-effect3199"
       is_visible="true"
       lpeversion="1"
       steps="1"
       threshold="0.0032025118"
       smooth_angles="0"
       helper_size="0"
       simplify_individual_paths="false"
       simplify_just_coalesce="false"
       step="1" />
    <inkscape:path-effect
       effect="powerstroke"
       id="path-effect3194"
       is_visible="true"
       lpeversion="1"
       offset_points="0.82761062,1.354927"
       not_jump="true"
       sort_points="true"
       interpolator_type="CentripetalCatmullRom"
       interpolator_beta="0.75"
       start_linecap_type="round"
       linejoin_type="spiro"
       miter_limit="4"
       scale_width="1"
       end_linecap_type="round" />
    <inkscape:path-effect
       effect="simplify"
       id="path-effect3192"
       is_visible="true"
       lpeversion="1"
       steps="1"
       threshold="0.0032025118"
       smooth_angles="0"
       helper_size="0"
       simplify_individual_paths="false"
       simplify_just_coalesce="false"
       step="1" />
    <inkscape:path-effect
       effect="powerstroke"
       id="path-effect3187"
       is_visible="true"
       lpeversion="1"
       offset_points="0.11060257,1.354927"
       not_jump="true"
       sort_points="true"
       interpolator_type="CentripetalCatmullRom"
       interpolator_beta="0.75"
       start_linecap_type="round"
       linejoin_type="spiro"
       miter_limit="4"
       scale_width="1"
       end_linecap_type="round" />
    <inkscape:path-effect
       effect="simplify"
       id="path-effect3185"
       is_visible="true"
       lpeversion="1"
       steps="1"
       threshold="0.0032025118"
       smooth_angles="0"
       helper_size="0"
       simplify_individual_paths="false"
       simplify_just_coalesce="false"
       step="1" />
    <inkscape:path-effect
       effect="powerstroke"
       id="path-effect3180"
       is_visible="true"
       lpeversion="1"
       offset_points="3.9965393,1.354927"
       not_jump="true"
       sort_points="true"
       interpolator_type="CentripetalCatmullRom"
       interpolator_beta="0.75"
       start_linecap_type="round"
       linejoin_type="spiro"
       miter_limit="4"
       scale_width="1"
       end_linecap_type="round" />
    <inkscape:path-effect
       effect="simplify"
       id="path-effect3178"
       is_visible="true"
       lpeversion="1"
       steps="1"
       threshold="0.0032025118"
       smooth_angles="0"
       helper_size="0"
       simplify_individual_paths="false"
       simplify_just_coalesce="false"
       step="1" />
    <inkscape:path-effect
       effect="powerstroke"
       id="path-effect3173"
       is_visible="true"
       lpeversion="1"
       offset_points="1.1643394,1.354927"
       not_jump="true"
       sort_points="true"
       interpolator_type="CentripetalCatmullRom"
       interpolator_beta="0.75"
       start_linecap_type="round"
       linejoin_type="spiro"
       miter_limit="4"
       scale_width="1"
       end_linecap_type="round" />
    <inkscape:path-effect
       effect="simplify"
       id="path-effect3171"
       is_visible="true"
       lpeversion="1"
       steps="1"
       threshold="0.0032025118"
       smooth_angles="0"
       helper_size="0"
       simplify_individual_paths="false"
       simplify_just_coalesce="false"
       step="1" />
    <inkscape:path-effect
       effect="powerstroke"
       id="path-effect3166"
       is_visible="true"
       lpeversion="1"
       offset_points="1.5304617,1.354927"
       not_jump="true"
       sort_points="true"
       interpolator_type="CentripetalCatmullRom"
       interpolator_beta="0.75"
       start_linecap_type="round"
       linejoin_type="spiro"
       miter_limit="4"
       scale_width="1"
       end_linecap_type="round" />
    <inkscape:path-effect
       effect="simplify"
       id="path-effect3164"
       is_visible="true"
       lpeversion="1"
       steps="1"
       threshold="0.0032025118"
       smooth_angles="0"
       helper_size="0"
       simplify_individual_paths="false"
       simplify_just_coalesce="false"
       step="1" />
    <inkscape:path-effect
       effect="powerstroke"
       id="path-effect3159"
       is_visible="true"
       lpeversion="1"
       offset_points="1.427172,1.354927"
       not_jump="true"
       sort_points="true"
       interpolator_type="CentripetalCatmullRom"
       interpolator_beta="0.75"
       start_linecap_type="round"
       linejoin_type="spiro"
       miter_limit="4"
       scale_width="1"
       end_linecap_type="round" />
    <inkscape:path-effect
       effect="simplify"
       id="path-effect3157"
       is_visible="true"
       lpeversion="1"
       steps="1"
       threshold="0.0032025118"
       smooth_angles="0"
       helper_size="0"
       simplify_individual_paths="false"
       simplify_just_coalesce="false"
       step="1" />
    <inkscape:path-effect
       effect="powerstroke"
       id="path-effect3152"
       is_visible="true"
       lpeversion="1"
       offset_points="0.52450323,1.354927"
       not_jump="true"
       sort_points="true"
       interpolator_type="CentripetalCatmullRom"
       interpolator_beta="0.75"
       start_linecap_type="round"
       linejoin_type="spiro"
       miter_limit="4"
       scale_width="1"
       end_linecap_type="round" />
    <inkscape:path-effect
       effect="simplify"
       id="path-effect3150"
       is_visible="true"
       lpeversion="1"
       steps="1"
       threshold="0.0032025118"
       smooth_angles="0"
       helper_size="0"
       simplify_individual_paths="false"
       simplify_just_coalesce="false"
       step="1" />
    <inkscape:path-effect
       effect="powerstroke"
       id="path-effect2509"
       is_visible="true"
       lpeversion="1"
       offset_points="3.0844638,1.354927"
       not_jump="true"
       sort_points="true"
       interpolator_type="CentripetalCatmullRom"
       interpolator_beta="0.75"
       start_linecap_type="round"
       linejoin_type="spiro"
       miter_limit="4"
       scale_width="1"
       end_linecap_type="round" />
    <inkscape:path-effect
       effect="simplify"
       id="path-effect2507"
       is_visible="true"
       lpeversion="1"
       steps="1"
       threshold="0.0032025118"
       smooth_angles="0"
       helper_size="0"
       simplify_individual_paths="false"
       simplify_just_coalesce="false"
       step="1" />
    <inkscape:path-effect
       effect="powerstroke"
       id="path-effect2498"
       is_visible="true"
       lpeversion="1"
       offset_points="0.40605341,1.354927"
       not_jump="true"
       sort_points="true"
       interpolator_type="CentripetalCatmullRom"
       interpolator_beta="0.75"
       start_linecap_type="round"
       linejoin_type="spiro"
       miter_limit="4"
       scale_width="1"
       end_linecap_type="round" />
    <inkscape:path-effect
       effect="simplify"
       id="path-effect2496"
       is_visible="true"
       lpeversion="1"
       steps="1"
       threshold="0.0032025118"
       smooth_angles="0"
       helper_size="0"
       simplify_individual_paths="false"
       simplify_just_coalesce="false"
       step="1" />
    <inkscape:path-effect
       effect="powerstroke"
       id="path-effect2491"
       is_visible="true"
       lpeversion="1"
       offset_points="3.3768083,1.354927"
       not_jump="true"
       sort_points="true"
       interpolator_type="CentripetalCatmullRom"
       interpolator_beta="0.75"
       start_linecap_type="round"
       linejoin_type="spiro"
       miter_limit="4"
       scale_width="1"
       end_linecap_type="round" />
    <inkscape:path-effect
       effect="simplify"
       id="path-effect2489"
       is_visible="true"
       lpeversion="1"
       steps="1"
       threshold="0.0032025118"
       smooth_angles="0"
       helper_size="0"
       simplify_individual_paths="false"
       simplify_just_coalesce="false"
       step="1" />
    <inkscape:path-effect
       effect="powerstroke"
       id="path-effect2480"
       is_visible="true"
       lpeversion="1"
       offset_points="2.5713418,1.354927"
       not_jump="true"
       sort_points="true"
       interpolator_type="CentripetalCatmullRom"
       interpolator_beta="0.75"
       start_linecap_type="round"
       linejoin_type="spiro"
       miter_limit="4"
       scale_width="1"
       end_linecap_type="round" />
    <inkscape:path-effect
       effect="simplify"
       id="path-effect2478"
       is_visible="true"
       lpeversion="1"
       steps="1"
       threshold="0.0032025118"
       smooth_angles="0"
       helper_size="0"
       simplify_individual_paths="false"
       simplify_just_coalesce="false"
       step="1" />
    <inkscape:path-effect
       effect="powerstroke"
       id="path-effect1646"
       is_visible="true"
       lpeversion="1"
       offset_points="2.4650075,1.354927"
       not_jump="true"
       sort_points="true"
       interpolator_type="CentripetalCatmullRom"
       interpolator_beta="0.75"
       start_linecap_type="round"
       linejoin_type="spiro"
       miter_limit="4"
       scale_width="1"
       end_linecap_type="round" />
    <inkscape:path-effect
       effect="simplify"
       id="path-effect1644"
       is_visible="true"
       lpeversion="1"
       steps="1"
       threshold="0.0032025118"
       smooth_angles="0"
       helper_size="0"
       simplify_individual_paths="false"
       simplify_just_coalesce="false"
       step="1" />
    <inkscape:path-effect
       effect="powerstroke"
       id="path-effect1639"
       is_visible="true"
       lpeversion="1"
       offset_points="3.708871,1.354927"
       not_jump="true"
       sort_points="true"
       interpolator_type="CentripetalCatmullRom"
       interpolator_beta="0.75"
       start_linecap_type="round"
       linejoin_type="spiro"
       miter_limit="4"
       scale_width="1"
       end_linecap_type="round" />
    <inkscape:path-effect
       effect="simplify"
       id="path-effect1637"
       is_visible="true"
       lpeversion="1"
       steps="1"
       threshold="0.0032025118"
       smooth_angles="0"
       helper_size="0"
       simplify_individual_paths="false"
       simplify_just_coalesce="false"
       step="1" />
    <inkscape:path-effect
       effect="powerstroke"
       id="path-effect1632"
       is_visible="true"
       lpeversion="1"
       offset_points="1.8042968,1.354927"
       not_jump="true"
       sort_points="true"
       interpolator_type="CentripetalCatmullRom"
       interpolator_beta="0.75"
       start_linecap_type="round"
       linejoin_type="spiro"
       miter_limit="4"
       scale_width="1"
       end_linecap_type="round" />
    <inkscape:path-effect
       effect="simplify"
       id="path-effect1630"
       is_visible="true"
       lpeversion="1"
       steps="1"
       threshold="0.0032025118"
       smooth_angles="0"
       helper_size="0"
       simplify_individual_paths="false"
       simplify_just_coalesce="false"
       step="1" />
    <inkscape:path-effect
       effect="powerstroke"
       id="path-effect1625"
       is_visible="true"
       lpeversion="1"
       offset_points="1.0174868,1.354927"
       not_jump="true"
       sort_points="true"
       interpolator_type="CentripetalCatmullRom"
       interpolator_beta="0.75"
       start_linecap_type="round"
       linejoin_type="spiro"
       miter_limit="4"
       scale_width="1"
       end_linecap_type="round" />
    <inkscape:path-effect
       effect="simplify"
       id="path-effect1623"
       is_visible="true"
       lpeversion="1"
       steps="1"
       threshold="0.0032025118"
       smooth_angles="0"
       helper_size="0"
       simplify_individual_paths="false"
       simplify_just_coalesce="false"
       step="1" />
    <inkscape:path-effect
       effect="powerstroke"
       id="path-effect376"
       is_visible="true"
       lpeversion="1"
       offset_points="2.831902,2.709854"
       not_jump="true"
       sort_points="true"
       interpolator_type="CentripetalCatmullRom"
       interpolator_beta="0.75"
       start_linecap_type="round"
       linejoin_type="spiro"
       miter_limit="4"
       scale_width="1"
       end_linecap_type="round" />
    <inkscape:path-effect
       effect="simplify"
       id="path-effect374"
       is_visible="true"
       lpeversion="1"
       steps="1"
       threshold="0.0032025118"
       smooth_angles="0"
       helper_size="0"
       simplify_individual_paths="false"
       simplify_just_coalesce="false"
       step="1" />
    <inkscape:path-effect
       effect="powerstroke"
       id="path-effect369"
       is_visible="true"
       lpeversion="1"
       offset_points="2.9116368,2.709854"
       not_jump="true"
       sort_points="true"
       interpolator_type="CentripetalCatmullRom"
       interpolator_beta="0.75"
       start_linecap_type="round"
       linejoin_type="spiro"
       miter_limit="4"
       scale_width="1"
       end_linecap_type="round" />
    <inkscape:path-effect
       effect="simplify"
       id="path-effect367"
       is_visible="true"
       lpeversion="1"
       steps="1"
       threshold="0.0032025118"
       smooth_angles="0"
       helper_size="0"
       simplify_individual_paths="false"
       simplify_just_coalesce="false"
       step="1" />
    <inkscape:path-effect
       effect="powerstroke"
       id="path-effect360"
       is_visible="true"
       lpeversion="1"
       offset_points="1,2.709854"
       not_jump="true"
       sort_points="true"
       interpolator_type="CentripetalCatmullRom"
       interpolator_beta="0.75"
       start_linecap_type="round"
       linejoin_type="spiro"
       miter_limit="4"
       scale_width="1"
       end_linecap_type="round" />
    <inkscape:path-effect
       effect="simplify"
       id="path-effect358"
       is_visible="true"
       lpeversion="1"
       steps="1"
       threshold="0.0032025118"
       smooth_angles="0"
       helper_size="0"
       simplify_individual_paths="false"
       simplify_just_coalesce="false"
       step="1" />
    <inkscape:path-effect
       effect="powerstroke"
       id="path-effect353"
       is_visible="true"
       lpeversion="1"
       offset_points="1,2.709854"
       not_jump="true"
       sort_points="true"
       interpolator_type="CentripetalCatmullRom"
       interpolator_beta="0.75"
       start_linecap_type="round"
       linejoin_type="spiro"
       miter_limit="4"
       scale_width="1"
       end_linecap_type="round" />
    <inkscape:path-effect
       effect="simplify"
       id="path-effect351"
       is_visible="true"
       lpeversion="1"
       steps="1"
       threshold="0.0032025118"
       smooth_angles="0"
       helper_size="0"
       simplify_individual_paths="false"
       simplify_just_coalesce="false"
       step="1" />
    <inkscape:path-effect
       effect="powerstroke"
       id="path-effect346"
       is_visible="true"
       lpeversion="1"
       offset_points="2.5002058,2.709854"
       not_jump="true"
       sort_points="true"
       interpolator_type="CentripetalCatmullRom"
       interpolator_beta="0.75"
       start_linecap_type="round"
       linejoin_type="spiro"
       miter_limit="4"
       scale_width="1"
       end_linecap_type="round" />
    <inkscape:path-effect
       effect="simplify"
       id="path-effect344"
       is_visible="true"
       lpeversion="1"
       steps="1"
       threshold="0.0032025118"
       smooth_angles="0"
       helper_size="0"
       simplify_individual_paths="false"
       simplify_just_coalesce="false"
       step="1" />
    <inkscape:path-effect
       effect="powerstroke"
       id="path-effect339"
       is_visible="true"
       lpeversion="1"
       offset_points="1,2.709854"
       not_jump="true"
       sort_points="true"
       interpolator_type="CentripetalCatmullRom"
       interpolator_beta="0.75"
       start_linecap_type="round"
       linejoin_type="spiro"
       miter_limit="4"
       scale_width="1"
       end_linecap_type="round" />
    <inkscape:path-effect
       effect="simplify"
       id="path-effect337"
       is_visible="true"
       lpeversion="1"
       steps="1"
       threshold="0.0032025118"
       smooth_angles="0"
       helper_size="0"
       simplify_individual_paths="false"
       simplify_just_coalesce="false"
       step="1" />
    <inkscape:path-effect
       effect="powerstroke"
       id="path-effect332"
       is_visible="true"
       lpeversion="1"
       offset_points="2.0506614,2.709854"
       not_jump="true"
       sort_points="true"
       interpolator_type="CentripetalCatmullRom"
       interpolator_beta="0.75"
       start_linecap_type="round"
       linejoin_type="spiro"
       miter_limit="4"
       scale_width="1"
       end_linecap_type="round" />
    <inkscape:path-effect
       effect="simplify"
       id="path-effect330"
       is_visible="true"
       lpeversion="1"
       steps="1"
       threshold="0.0032025118"
       smooth_angles="0"
       helper_size="0"
       simplify_individual_paths="false"
       simplify_just_coalesce="false"
       step="1" />
    <inkscape:path-effect
       effect="powerstroke"
       id="path-effect325"
       is_visible="true"
       lpeversion="1"
       offset_points="2.6628953,2.709854"
       not_jump="true"
       sort_points="true"
       interpolator_type="CentripetalCatmullRom"
       interpolator_beta="0.75"
       start_linecap_type="round"
       linejoin_type="spiro"
       miter_limit="4"
       scale_width="1"
       end_linecap_type="round" />
    <inkscape:path-effect
       effect="simplify"
       id="path-effect323"
       is_visible="true"
       lpeversion="1"
       steps="1"
       threshold="0.0032025118"
       smooth_angles="0"
       helper_size="0"
       simplify_individual_paths="false"
       simplify_just_coalesce="false"
       step="1" />
    <inkscape:path-effect
       effect="powerstroke"
       id="path-effect318"
       is_visible="true"
       lpeversion="1"
       offset_points="0.41971207,2.709854"
       not_jump="true"
       sort_points="true"
       interpolator_type="CentripetalCatmullRom"
       interpolator_beta="0.75"
       start_linecap_type="round"
       linejoin_type="spiro"
       miter_limit="4"
       scale_width="1"
       end_linecap_type="round" />
    <inkscape:path-effect
       effect="simplify"
       id="path-effect316"
       is_visible="true"
       lpeversion="1"
       steps="1"
       threshold="0.0032025118"
       smooth_angles="0"
       helper_size="0"
       simplify_individual_paths="false"
       simplify_just_coalesce="false"
       step="1" />
    <inkscape:path-effect
       effect="powerstroke"
       id="path-effect311"
       is_visible="true"
       lpeversion="1"
       offset_points="0.84579674,2.709854"
       not_jump="true"
       sort_points="true"
       interpolator_type="CentripetalCatmullRom"
       interpolator_beta="0.75"
       start_linecap_type="round"
       linejoin_type="spiro"
       miter_limit="4"
       scale_width="1"
       end_linecap_type="round" />
    <inkscape:path-effect
       effect="simplify"
       id="path-effect309"
       is_visible="true"
       lpeversion="1"
       steps="1"
       threshold="0.0032025118"
       smooth_angles="0"
       helper_size="0"
       simplify_individual_paths="false"
       simplify_just_coalesce="false"
       step="1" />
    <inkscape:path-effect
       effect="powerstroke"
       id="path-effect304"
       is_visible="true"
       lpeversion="1"
       offset_points="2.1200156,5.4197079"
       not_jump="true"
       sort_points="true"
       interpolator_type="CentripetalCatmullRom"
       interpolator_beta="0.75"
       start_linecap_type="round"
       linejoin_type="spiro"
       miter_limit="4"
       scale_width="1"
       end_linecap_type="round" />
    <inkscape:path-effect
       effect="simplify"
       id="path-effect302"
       is_visible="true"
       lpeversion="1"
       steps="1"
       threshold="0.0032025118"
       smooth_angles="0"
       helper_size="0"
       simplify_individual_paths="false"
       simplify_just_coalesce="false"
       step="1" />
    <inkscape:path-effect
       effect="powerstroke"
       id="path-effect297"
       is_visible="true"
       lpeversion="1"
       offset_points="0.1402108,7.960196"
       not_jump="true"
       sort_points="true"
       interpolator_type="CentripetalCatmullRom"
       interpolator_beta="0.75"
       start_linecap_type="round"
       linejoin_type="spiro"
       miter_limit="4"
       scale_width="1"
       end_linecap_type="round" />
    <inkscape:path-effect
       effect="simplify"
       id="path-effect295"
       is_visible="true"
       lpeversion="1"
       steps="1"
       threshold="0.0032025118"
       smooth_angles="0"
       helper_size="0"
       simplify_individual_paths="false"
       simplify_just_coalesce="false"
       step="1" />
    <inkscape:path-effect
       effect="powerstroke"
       id="path-effect290"
       is_visible="true"
       lpeversion="1"
       offset_points="1.7787501,8.1295619"
       not_jump="true"
       sort_points="true"
       interpolator_type="CentripetalCatmullRom"
       interpolator_beta="0.75"
       start_linecap_type="round"
       linejoin_type="spiro"
       miter_limit="4"
       scale_width="1"
       end_linecap_type="round" />
    <inkscape:path-effect
       effect="simplify"
       id="path-effect288"
       is_visible="true"
       lpeversion="1"
       steps="1"
       threshold="0.0032025118"
       smooth_angles="0"
       helper_size="0"
       simplify_individual_paths="false"
       simplify_just_coalesce="false"
       step="1" />
    <inkscape:path-effect
       effect="powerstroke"
       id="path-effect283"
       is_visible="true"
       lpeversion="1"
       offset_points="1.6716545,8.1295619"
       not_jump="true"
       sort_points="true"
       interpolator_type="CentripetalCatmullRom"
       interpolator_beta="0.75"
       start_linecap_type="round"
       linejoin_type="spiro"
       miter_limit="4"
       scale_width="1"
       end_linecap_type="round" />
    <inkscape:path-effect
       effect="simplify"
       id="path-effect281"
       is_visible="true"
       lpeversion="1"
       steps="1"
       threshold="0.0032025118"
       smooth_angles="0"
       helper_size="0"
       simplify_individual_paths="false"
       simplify_just_coalesce="false"
       step="1" />
  </defs>
  <g
     inkscape:label="Camada 1"
     inkscape:groupmode="layer"
     id="layer1"
     transform="translate(-46.433296,-125.95215)">
    <path
       style="fill:#000000;stroke:none;stroke-width:1px;stroke-linecap:butt;stroke-linejoin:miter;stroke-opacity:1"
       d="M 372.80763,577.64699 432.21105,432.21105"
       id="path364" />
    <path
       style="fill:#000000;stroke:none;stroke-width:1px;stroke-linecap:butt;stroke-linejoin:miter;stroke-opacity:1"
       d="m 323.64619,340.03334 93.2019,-119.83103"
       id="path1698" />
    <rect
       style="fill:#ff0000;stroke-width:0.283668"
       id="rect2362"
       width="121.79257"
       height="62.59763"
       x="46.433296"
       y="125.95215" />
    <path
       style="fill:#000000;stroke:none;stroke-opacity:1;stroke-linejoin:miter;stroke-linecap:butt;stroke-width:1px"
       d="m 73.742169,148.50854 39.943671,2.04839"
       id="path2484" />
    <path
       style="fill:#000000;stroke:none;stroke-opacity:1;stroke-linejoin:miter;stroke-linecap:butt;stroke-width:1px"
       d="M 358.46888,168.99247 181.28283,190.5006"
       id="path2502" />
    <path
       style="fill:#ffff00;stroke-width:1.0242"
       d="M 0,118.29473 V 0 H 229.93218 459.86436 V 118.29473 236.58946 H 229.93218 0 Z"
       id="path3077"
       transform="matrix(0.26458333,0,0,0.26458333,46.433296,125.95215)" />
    <path
       d="m 64.861832,155.91908 c 0.551455,0.23986 1.883178,0.88676 3.292933,1.61618 -0.01387,-0.007 0.17809,0.0921 0.164217,0.0849 0.723238,0.37381 2.038252,1.05778 3.314822,1.59701 0.250466,0.10661 0.454345,0.18922 0.581855,0.24022 a 1.354927,1.354927 90 0 0 1.006442,-2.51602 c -0.114926,-0.046 -0.299706,-0.12083 -0.530436,-0.21904 -1.165803,-0.49245 -2.385263,-1.12537 -3.128444,-1.50949 -0.0091,-0.005 -0.154109,-0.0797 -0.163171,-0.0844 -1.404373,-0.72663 -2.847517,-1.4291 -3.457334,-1.69436 a 1.354927,1.354927 90 0 0 -1.080884,2.48496 z"
       id="path-1"
       inkscape:path-effect="#path-effect3150;#path-effect3152"
       inkscape:original-d="m 65.402274,154.6766 c 2.506011,1.09071 4.634612,2.45002 7.316606,3.52281"
       style="fill:#000000;fill-rule:nonzero;stroke:none;stroke-width:1px;stroke-linecap:butt;stroke-linejoin:miter;stroke-opacity:1" />
    <path
       d="m 70.608748,151.11279 c -0.200841,0.13483 -0.421008,0.30988 -0.686272,0.5728 -0.173197,0.17167 -0.332546,0.34759 -0.470306,0.49299 -0.0081,0.009 -0.01612,0.0172 -0.02401,0.026 -0.490829,0.54597 -0.954973,1.09911 -1.39446,1.64509 -0.542226,0.67361 -1.082237,1.37931 -1.734104,2.25243 -0.0025,0.003 -0.0049,0.007 -0.0073,0.01 -0.674929,0.92136 -1.412419,1.92525 -2.058692,2.99202 -0.01168,0.0193 -0.02288,0.0388 -0.03358,0.0587 -0.02231,0.0413 -0.08757,0.1472 -0.160404,0.28622 -0.116863,0.22306 -0.196855,0.43875 -0.239958,0.66829 a 1.354927,1.354927 90 0 0 2.663304,0.50012 c -0.01149,0.0612 -0.04413,0.12956 -0.02298,0.0892 0.01394,-0.0266 0.05635,-0.0947 0.127688,-0.22535 0.556812,-0.91916 1.220501,-1.82561 1.907044,-2.76282 0.640202,-0.85743 1.157479,-1.53286 1.669937,-2.1695 0.412572,-0.51254 0.840605,-1.02241 1.2872,-1.51974 0.185682,-0.19628 0.267376,-0.28916 0.398301,-0.41893 0.152041,-0.1507 0.240313,-0.21484 0.289026,-0.24754 a 1.354927,1.354927 90 0 0 -1.51041,-2.24988 z"
       id="path-1-4"
       inkscape:path-effect="#path-effect3157;#path-effect3159"
       inkscape:original-d="m 71.363953,152.23773 c -1.167214,0.70537 -6.232664,7.53735 -6.232664,8.12957"
       style="fill:#000000;fill-rule:nonzero;stroke:none;stroke-width:1px;stroke-linecap:butt;stroke-linejoin:miter;stroke-opacity:1" />
    <path
       d="m 65.888099,151.34396 c 0.14818,0.23074 0.753661,1.13884 1.078715,1.75818 0.04234,0.0867 0.07263,0.14838 0.08391,0.17498 7.06e-4,0.002 0.0013,0.003 0.0019,0.005 0.0073,0.0176 0.0013,0.0132 -0.0072,-0.036 -0.03034,-0.18071 -0.01827,-0.3661 0.03404,-0.54 0.04816,-0.16008 0.121981,-0.28318 0.188849,-0.37002 0.0625,-0.0812 0.124361,-0.13795 0.170607,-0.17507 0.04503,-0.0361 0.08579,-0.0621 0.118593,-0.0806 l -0.06826,0.0412 c 0.02713,-0.0175 0.04297,-0.0247 0.01625,-0.0109 -0.0089,0.005 -0.08083,0.0409 -0.141188,0.0749 -0.06805,0.0384 -0.171215,0.10057 -0.281315,0.19024 -0.1097,0.0893 -0.230802,0.20944 -0.338528,0.3684 -0.131054,0.19186 -0.212857,0.40809 -0.243429,0.63129 -0.03051,0.22272 -0.0054,0.4162 0.03025,0.5612 0.03541,0.14401 0.08577,0.25888 0.124599,0.33631 0.03499,0.0698 0.06969,0.12688 0.09431,0.16537 0.24534,0.39425 0.560413,0.80158 0.72793,1.02719 0.289085,0.38672 0.503914,0.66053 0.626648,0.82732 a 1.354927,1.354927 90 0 0 2.182614,-1.60608 c -0.146381,-0.19893 -0.386359,-0.50601 -0.636206,-0.84022 -0.221766,-0.29869 -0.436061,-0.57488 -0.603987,-0.84598 -0.0054,-0.009 -0.01092,-0.0174 -0.01652,-0.026 0.005,0.008 0.02475,0.0382 0.04754,0.0837 0.02193,0.0437 0.05796,0.1233 0.08455,0.23142 0.0269,0.10939 0.04866,0.26669 0.02306,0.45356 -0.0256,0.18688 -0.09395,0.3673 -0.200739,0.52508 -0.06586,0.0962 -0.136374,0.1643 -0.190808,0.20863 -0.05364,0.0437 -0.0948,0.0667 -0.09912,0.0692 -0.0078,0.004 0.01141,-0.006 0.05522,-0.0285 0.03504,-0.0181 0.100523,-0.0522 0.174679,-0.098 0.06661,-0.0395 0.13799,-0.0875 0.210026,-0.14534 0.08798,-0.0706 0.187253,-0.16417 0.280292,-0.285 0.09911,-0.12871 0.196939,-0.29613 0.259061,-0.50264 0.06712,-0.22312 0.08241,-0.4591 0.04309,-0.69135 -0.04026,-0.24153 -0.114369,-0.43677 -0.160494,-0.54838 -0.0039,-0.009 -0.0077,-0.0185 -0.01149,-0.0274 -0.05576,-0.13149 -0.129633,-0.27732 -0.15161,-0.32237 -0.0053,-0.0109 -0.01073,-0.0216 -0.01631,-0.0323 -0.398208,-0.76375 -1.134333,-1.86801 -1.209341,-1.98481 a 1.354927,1.354927 90 0 0 -2.280176,1.46428 z"
       id="path-1-8"
       inkscape:path-effect="#path-effect3164;#path-effect3166"
       inkscape:original-d="m 67.028187,150.61182 c 0.221749,0.35413 1.354927,2.02134 1.354927,2.43887 0,0.25549 -0.541971,0.28648 -0.541971,0.54197 0,0.15911 1.256564,1.74935 1.354927,1.8969"
       style="fill:#000000;fill-rule:nonzero;stroke:none;stroke-width:1px;stroke-linecap:butt;stroke-linejoin:miter;stroke-opacity:1" />
    <path
       d="m 107.84535,171.12245 c 0.0607,0.0555 0.17152,0.17068 0.26218,0.36876 0.0652,0.14241 0.11277,0.31285 0.12663,0.49932 0.009,0.1137 0.0117,0.22311 0.009,0.33562 -0.005,0.20403 -0.0289,0.44282 -0.0838,0.73271 -0.07,0.3695 -0.17653,0.7545 -0.32496,1.2333 -0.20107,0.64124 -0.42539,1.22945 -0.68393,1.95811 -0.2499,0.7043 -0.49009,1.42971 -0.66053,2.1944 -8.8e-4,0.004 -0.002,0.008 -0.003,0.012 -0.13132,0.61532 -0.16578,1.06613 -0.16618,1.42008 a 1.354927,1.354927 90 0 0 2.70986,0.003 c 1.8e-4,-0.16167 0.014,-0.42232 0.10523,-0.85161 0.13382,-0.59853 0.32903,-1.19799 0.56808,-1.87172 0.23335,-0.65764 0.49471,-1.3484 0.71711,-2.0577 0.15995,-0.51593 0.30199,-1.01556 0.40048,-1.53576 0.0793,-0.41901 0.12104,-0.80411 0.1302,-1.16882 0.005,-0.19958 5.1e-4,-0.40363 -0.016,-0.61135 -0.0379,-0.50988 -0.16956,-0.99346 -0.36444,-1.41929 -0.28071,-0.61336 -0.64747,-1.01207 -0.89706,-1.24042 a 1.354927,1.354927 90 0 0 -1.82918,1.99936 z"
       id="path-1-9"
       inkscape:path-effect="#path-effect3171;#path-effect3173"
       inkscape:original-d="m 108.75994,170.12277 c 2.39257,2.2556 -1.08394,6.7924 -1.08394,9.75547"
       style="fill:#000000;fill-rule:nonzero;stroke:none;stroke-width:1px;stroke-linecap:butt;stroke-linejoin:miter;stroke-opacity:1" />
    <path
       d="m 107.98995,173.71312 c 0.11308,0.43823 0.31768,0.93703 0.68373,1.47152 0.26447,0.38617 0.58159,0.74531 0.94097,1.089 0.44492,0.42948 0.91392,0.79957 1.36578,1.16537 0.42202,0.34164 0.79678,0.65453 1.11617,0.99571 0.18073,0.19193 0.33278,0.41023 0.45295,0.64975 0.003,0.006 0.006,0.0125 0.01,0.0186 0.11243,0.21571 0.1907,0.36077 0.26728,0.522 0.0757,0.1593 0.1227,0.28042 0.15265,0.38373 0.003,0.0101 0.006,0.0203 0.009,0.0303 -0.01,-0.0305 -0.0182,-0.0645 -0.0245,-0.10628 -0.005,-0.031 -0.0178,-0.12538 -0.002,-0.25664 0.008,-0.0677 0.0263,-0.17036 0.0731,-0.28984 0.0469,-0.11976 0.12927,-0.2735 0.27243,-0.41916 0.1472,-0.14978 0.32997,-0.26117 0.53082,-0.32293 0.1915,-0.0589 0.36129,-0.0613 0.48395,-0.0486 0.0558,0.006 0.11114,0.015 0.16577,0.0277 0.062,0.0143 0.10924,0.0336 0.13958,0.0481 0.0299,0.0144 0.0426,0.0234 0.0408,0.0223 -0.003,-0.002 -0.0537,-0.0418 -0.14554,-0.11336 -0.002,-0.002 -0.004,-0.004 -0.007,-0.005 -0.01,-0.008 -0.026,-0.0212 -0.0456,-0.0363 -0.01,-0.007 -0.0263,-0.02 -0.0472,-0.0348 -0.0107,-0.008 -0.0259,-0.0181 -0.0444,-0.0301 -0.0171,-0.0111 -0.0466,-0.0297 -0.0844,-0.0506 -0.0194,-0.0107 -0.0462,-0.0249 -0.0787,-0.0402 -0.031,-0.0146 -0.0791,-0.0358 -0.13972,-0.0564 -0.0547,-0.0186 -0.15898,-0.0505 -0.29447,-0.0649 -0.0705,-0.007 -0.16659,-0.0121 -0.27962,-5.6e-4 -0.11319,0.0115 -0.26084,0.041 -0.42064,0.11315 -0.16521,0.0746 -0.33119,0.18974 -0.47142,0.35347 -0.1396,0.16299 -0.22488,0.34042 -0.27239,0.50447 -0.0461,0.15917 -0.0555,0.30044 -0.0532,0.4061 0.002,0.10605 0.0166,0.19477 0.0308,0.25964 0.0273,0.12503 0.0666,0.21967 0.0894,0.27008 0.0252,0.0557 0.0496,0.0995 0.0663,0.12797 0.0328,0.0557 0.0626,0.0974 0.0778,0.11796 0.0174,0.0236 0.0324,0.0424 0.0424,0.0546 0.0197,0.0241 0.0363,0.0427 0.045,0.0524 0.0181,0.0201 0.0336,0.0361 0.041,0.0437 0.0164,0.0168 0.0322,0.0324 0.0418,0.0419 0.0196,0.0192 0.0469,0.0456 0.0583,0.0567 0.008,0.008 0.0126,0.0123 0.0148,0.0144 6.9e-4,6.9e-4 2.4e-4,2.6e-4 -0.003,-0.003 -0.001,-0.001 -0.0109,-0.011 -0.0238,-0.025 l 0.0417,0.043 c 0.0604,0.0597 0.11389,0.11306 0.14425,0.14341 a 1.354927,1.354927 90 0 0 1.91596,-1.91634 c -0.0302,-0.0302 -0.0832,-0.0831 -0.14454,-0.14377 -0.002,-0.002 -0.004,-0.004 -0.006,-0.006 -0.008,-0.008 -0.0149,-0.0149 -0.0205,-0.0205 -0.0109,-0.0108 -0.0224,-0.0219 -0.0317,-0.0309 -0.0214,-0.0207 -0.035,-0.0339 -0.0468,-0.0454 -0.006,-0.006 -0.004,-0.004 0.002,0.002 0.002,0.002 0.0134,0.0138 0.0284,0.0304 0.007,0.008 0.0224,0.025 0.0411,0.0478 0.009,0.0116 0.0241,0.0299 0.0411,0.053 0.0148,0.0201 0.0444,0.0613 0.0769,0.11669 0.0166,0.0283 0.0409,0.072 0.066,0.12749 0.0228,0.0503 0.0621,0.14479 0.0893,0.26972 0.0141,0.0648 0.0285,0.15349 0.0308,0.2595 0.002,0.10561 -0.007,0.24684 -0.0532,0.40599 -0.0475,0.16401 -0.13277,0.34142 -0.27235,0.50438 -0.14021,0.1637 -0.30616,0.27881 -0.47134,0.35341 -0.15978,0.0722 -0.30739,0.10162 -0.42053,0.11313 -0.11299,0.0115 -0.20906,0.007 -0.27949,-5.6e-4 -0.13538,-0.0143 -0.23949,-0.0462 -0.29408,-0.0648 -0.0605,-0.0206 -0.1084,-0.0417 -0.13921,-0.0562 -0.0323,-0.0152 -0.0589,-0.0292 -0.078,-0.0398 -0.0373,-0.0206 -0.0662,-0.0388 -0.0827,-0.0496 -0.0179,-0.0116 -0.0323,-0.0216 -0.0422,-0.0286 -0.0191,-0.0135 -0.0336,-0.0245 -0.0408,-0.0301 -0.0146,-0.0112 -0.0242,-0.0191 -0.0252,-0.02 -0.002,-0.002 -0.002,-0.002 7.1e-4,6.2e-4 0.0142,0.0121 0.0287,0.0238 0.0434,0.0352 0.0232,0.0181 0.18044,0.14659 0.31535,0.23749 0.0808,0.0545 0.18165,0.11622 0.30041,0.17324 0.1208,0.058 0.26181,0.11192 0.42211,0.14903 0.0546,0.0127 0.10999,0.0219 0.16577,0.0277 0.16511,0.0171 0.37069,0.0115 0.59225,-0.0566 0.23119,-0.0711 0.43848,-0.19795 0.60534,-0.36773 0.16304,-0.16589 0.26033,-0.34451 0.31816,-0.49218 0.0579,-0.14777 0.0832,-0.28183 0.095,-0.38251 0.0233,-0.19883 0.005,-0.36765 -0.01,-0.46685 -0.0172,-0.11328 -0.0427,-0.21336 -0.0675,-0.29268 l 0.008,0.0281 c 0,0 -0.002,-0.006 -0.002,-0.006 -0.0832,-0.28689 -0.19244,-0.54947 -0.30755,-0.79183 -0.10321,-0.21729 -0.21676,-0.42928 -0.30762,-0.60341 -0.23383,-0.4637 -0.53375,-0.89628 -0.89439,-1.27925 -0.45839,-0.48967 -0.96638,-0.90681 -1.38665,-1.24704 -0.49035,-0.39696 -0.84917,-0.681 -1.19341,-1.01328 -0.25932,-0.24801 -0.44565,-0.46611 -0.58263,-0.66611 -0.1818,-0.26545 -0.25847,-0.47347 -0.29559,-0.61735 a 1.354927,1.354927 90 0 0 -2.62392,0.67704 z"
       id="path-1-80"
       inkscape:path-effect="#path-effect3178;#path-effect3180"
       inkscape:original-d="m 109.30191,173.3746 c 0.5593,2.13895 3.38042,3.1581 4.33577,4.87773 1.85333,3.33601 -0.84357,0.51137 0.27098,1.62591"
       style="fill:#000000;fill-rule:nonzero;stroke:none;stroke-width:1px;stroke-linecap:butt;stroke-linejoin:miter;stroke-opacity:1" />
    <path
       d="m 103.70542,176.61484 c 0.17896,0.0236 0.60473,0.0789 1.16308,0.13986 1.01573,0.11096 2.55855,0.25235 4.69487,0.33548 1.95701,0.0761 3.82451,0.0783 4.61641,0.0782 a 1.354927,1.354927 90 0 0 -2.6e-4,-2.70986 c -0.78774,8e-5 -2.61028,-0.002 -4.51078,-0.0762 -2.06429,-0.0803 -3.54348,-0.21636 -4.50596,-0.3215 -0.53067,-0.058 -0.9347,-0.11047 -1.1038,-0.13273 a 1.354927,1.354927 90 0 0 -0.35356,2.6867 z"
       id="path-1-84"
       inkscape:path-effect="#path-effect3185;#path-effect3187"
       inkscape:original-d="m 103.8822,175.27149 c 3.40486,0.44732 6.81905,0.54197 10.29745,0.54197"
       style="fill:#000000;fill-rule:nonzero;stroke:none;stroke-width:1px;stroke-linecap:butt;stroke-linejoin:miter;stroke-opacity:1" />
    <path
       d="m 125.24758,134.02177 c 0.29223,0.43715 0.6882,1.10504 1.1527,2.22721 0.21481,0.51895 0.41292,1.05574 0.62158,1.6413 0.0733,0.20573 0.24526,0.69466 0.31857,0.9004 0.24883,0.70253 0.60638,1.72831 1.00962,2.6639 0.38214,0.8866 0.84646,1.79955 1.45849,2.66283 0.41492,0.58169 0.78967,0.9825 1.02725,1.21999 a 1.354927,1.354927 90 0 0 1.91582,-1.91648 c -0.16123,-0.16118 -0.43057,-0.44761 -0.73468,-0.87396 -0.46464,-0.65539 -0.84234,-1.38542 -1.17833,-2.16497 -0.35977,-0.83471 -0.68478,-1.76471 -0.94392,-2.49638 -0.16878,-0.47609 -0.15154,-0.4292 -0.32018,-0.90492 -0.21357,-0.59936 -0.42954,-1.18626 -0.67039,-1.76811 -0.53395,-1.28998 -1.01466,-2.11485 -1.40371,-2.69683 a 1.354927,1.354927 90 0 0 -2.25282,1.50602 z"
       id="path-1-0"
       inkscape:path-effect="#path-effect3192;#path-effect3194"
       inkscape:original-d="m 126.37399,133.26876 c 2.23593,3.31931 2.56326,8.25395 5.41971,11.1104"
       style="fill:#000000;fill-rule:nonzero;stroke:none;stroke-width:1px;stroke-linecap:butt;stroke-linejoin:miter;stroke-opacity:1" />
    <path
       d="m 126.67323,137.62515 c 0.45743,0.32496 1.20085,0.84464 2.27469,1.55213 1.83118,1.20645 6.52203,4.13494 7.78645,4.97536 a 1.354927,1.354927 90 0 0 1.50004,-2.25682 c -1.30205,-0.86542 -6.01313,-3.80704 -7.79562,-4.98142 -1.04292,-0.68712 -1.75987,-1.18845 -2.19616,-1.49839 a 1.354927,1.354927 90 0 0 -1.5694,2.20914 z"
       id="path-1-5"
       inkscape:path-effect="#path-effect3199;#path-effect3201"
       inkscape:original-d="m 127.45793,136.52058 c 3.20281,2.27867 6.91285,4.42791 10.02646,6.50365"
       style="fill:#000000;fill-rule:nonzero;stroke:none;stroke-width:1px;stroke-linecap:butt;stroke-linejoin:miter;stroke-opacity:1" />
    <path
       d="m 132.45262,132.59065 c -0.54018,0.55038 -1.75097,1.72844 -3.78534,3.03382 -0.9506,0.60996 -2.2567,1.36397 -4.05846,2.19305 -0.81324,0.38017 -1.39546,0.60689 -2.51722,1.08016 -0.0171,0.007 -0.0341,0.0148 -0.0509,0.0227 -0.60114,0.28329 -1.09226,0.66726 -1.51004,1.05229 -0.37371,0.34443 -0.7593,0.76102 -1.04,1.04668 -0.0626,0.0587 -0.10064,0.0943 -0.14073,0.12888 -0.0388,0.0334 -0.0609,0.0479 -0.0556,0.0446 0.005,-0.003 0.0431,-0.0268 0.11581,-0.0465 0.0823,-0.0223 0.18364,-0.0316 0.29028,-0.0149 0.0149,0.002 0.0299,0.005 0.0447,0.008 0.12542,0.0239 0.19916,0.0666 0.23488,0.0892 0.0502,0.0318 0.0417,0.031 0.0342,0.0236 a 1.354927,1.354927 90 0 0 -1.91368,1.91864 c 0.062,0.0618 0.2163,0.2122 0.43056,0.34776 0.15913,0.10068 0.39818,0.22387 0.70602,0.28262 0.0149,0.003 0.0298,0.005 0.0447,0.008 0.29336,0.0459 0.57629,0.0237 0.83683,-0.0469 0.24232,-0.0656 0.44483,-0.16696 0.60957,-0.2697 0.157,-0.0979 0.28875,-0.20329 0.39082,-0.29126 0.0969,-0.0836 0.18852,-0.1705 0.24351,-0.22197 0.0132,-0.0123 0.0261,-0.0249 0.0388,-0.0377 0.38635,-0.39162 0.64341,-0.67874 0.96579,-0.97585 0.29533,-0.27218 0.55151,-0.45922 0.80662,-0.58306 1.05033,-0.44279 1.71515,-0.70436 2.57529,-1.10648 1.91371,-0.88058 3.33003,-1.69582 4.38168,-2.37062 2.25708,-1.44828 3.62475,-2.77333 4.25589,-3.41636 a 1.354927,1.354927 90 0 0 -1.93398,-1.89818 z"
       id="path-1-2"
       inkscape:path-effect="#path-effect3206;#path-effect3208"
       inkscape:original-d="m 133.41961,133.53974 c -2.95549,3.01529 -6.84542,5.01444 -10.56843,6.50365 -2.03952,0.81581 -2.72258,3.2391 -3.7938,2.16788"
       style="fill:#000000;fill-rule:nonzero;stroke:none;stroke-width:1px;stroke-linecap:butt;stroke-linejoin:miter;stroke-opacity:1" />
    <path
       d="m 68.990178,145.86146 c 1.210779,-0.60679 2.716293,-1.44767 5.01785,-2.97592 1.337857,-0.88835 2.817721,-1.93086 4.417481,-2.99805 0.09093,-0.0607 0.183864,-0.12244 0.278425,-0.18503 1.32712,-0.88224 3.460768,-2.31429 5.458756,-3.46394 1.673961,-0.9632 3.592176,-1.93703 5.685107,-2.6428 0.906918,-0.30231 1.890819,-0.53682 2.89445,-0.62412 0.943342,-0.082 1.891881,-0.033 2.810524,0.20201 0.02237,0.006 0.04487,0.0109 0.0675,0.0154 2.429399,0.49083 4.940616,1.1844 7.456266,1.72275 0.0219,0.005 0.0439,0.009 0.066,0.0124 4.55879,0.74151 8.90184,1.03444 12.6472,1.66989 0.47896,0.11338 0.99958,0.29226 1.52019,0.43747 0.79472,0.22167 1.42327,0.31687 2.05146,0.30155 a 1.354927,1.354927 90 0 0 -0.0661,-2.70904 c -0.28537,0.007 -0.63773,-0.0299 -1.25734,-0.20273 -0.4354,-0.12144 -0.97788,-0.31535 -1.67581,-0.47633 -0.0254,-0.006 -0.051,-0.011 -0.0768,-0.0154 -3.91463,-0.66751 -8.29466,-0.96441 -12.67464,-1.67474 -2.36783,-0.50671 -4.876902,-1.19979 -7.420961,-1.71538 -1.254359,-0.31611 -2.503621,-0.37011 -3.682384,-0.26759 -1.262247,0.10979 -2.458254,0.40021 -3.521082,0.7545 -2.329026,0.78537 -4.417793,1.8521 -6.175166,2.8633 -2.090617,1.20295 -4.306061,2.69087 -5.605271,3.55456 -0.09526,0.0631 -0.190859,0.12661 -0.284236,0.1889 -1.64281,1.0959 -3.112601,2.13159 -4.41266,2.99484 -2.220515,1.47443 -3.631055,2.25854 -4.73298,2.81078 a 1.354927,1.354927 90 0 0 1.214128,2.42264 z"
       id="path-1-6"
       inkscape:path-effect="#path-effect3213;#path-effect3215"
       inkscape:original-d="m 68.383114,144.65014 c 6.978895,-3.36453 18.198926,-14.01813 26.285583,-13.0073 1.644873,0.20561 8.115473,1.8501 8.400543,1.8969 4.13495,0.67887 8.32375,0.98875 12.46533,1.62591 1.46521,0.22542 2.31668,0.81296 3.7938,0.81296"
       style="fill:#000000;fill-rule:nonzero;stroke:none;stroke-width:1px;stroke-linecap:butt;stroke-linejoin:miter;stroke-opacity:1" />
    <path
       d="m 131.27888,148.98697 c -0.22656,1.11448 -0.59792,3.33177 -1.31394,6.3435 -0.063,0.26477 -0.12945,0.53628 -0.19968,0.81239 -0.31942,1.25582 -0.85863,3.19036 -1.72762,5.1421 -0.89326,2.02568 -2.34984,4.38703 -4.61597,6.30988 -0.005,0.004 -0.009,0.008 -0.0141,0.0121 -1.02528,0.89443 -2.10693,1.75664 -3.26146,2.5016 -0.0782,0.0365 -0.1728,0.0711 -0.29202,0.10558 -0.15047,0.0435 -0.314,0.0797 -0.52043,0.12405 -0.20185,0.0434 -0.44406,0.0945 -0.6891,0.16221 -0.2596,0.0717 -0.53673,0.16571 -0.81629,0.30203 -0.46653,0.22381 -0.76694,0.61465 -0.90325,1.01398 -0.0851,0.24929 -0.10764,0.50101 -0.0825,0.73554 0.0332,0.31009 0.14529,0.55902 0.25934,0.73795 a 1.354927,1.354927 90 0 0 2.28514,-1.4565 c 0.0635,0.0995 0.13016,0.2451 0.14996,0.42997 0.015,0.13975 0.001,0.28657 -0.0473,0.42842 -0.0778,0.22786 -0.24522,0.43904 -0.49515,0.55671 l 0.0192,-0.009 c 0.0875,-0.0429 0.19859,-0.0843 0.35277,-0.12692 0.15471,-0.0428 0.31535,-0.0772 0.53672,-0.12481 0.19721,-0.0424 0.44932,-0.0966 0.70353,-0.17013 0.25525,-0.0738 0.54162,-0.17471 0.8331,-0.32593 0.0364,-0.0189 0.072,-0.0395 0.10659,-0.0616 1.32669,-0.8494 2.53651,-1.81634 3.63566,-2.77483 2.65366,-2.25403 4.32502,-4.98621 5.33308,-7.27227 0.96032,-2.15681 1.54403,-4.26545 1.87633,-5.5719 0.0741,-0.29129 0.14397,-0.57662 0.20982,-0.8536 0.74919,-3.15122 1.11059,-5.33584 1.33311,-6.43044 a 1.354927,1.354927 90 0 0 -2.65554,-0.53984 z"
       id="path-1-3"
       inkscape:path-effect="#path-effect3220;#path-effect3222"
       inkscape:original-d="m 132.60665,149.25689 c -1.37998,6.81981 -2.38655,13.99441 -7.85857,18.96898 -1.19001,1.08183 -2.45565,2.08874 -3.7938,2.98084 -0.92649,0.61766 -3.14933,0.47597 -2.70985,1.35493"
       style="fill:#000000;fill-rule:nonzero;stroke:none;stroke-width:1px;stroke-linecap:butt;stroke-linejoin:miter;stroke-opacity:1" />
    <path
       d="m 72.181263,164.97982 c 0.227046,0.29938 0.498801,0.71467 0.767189,1.29529 0.1948,0.42143 0.377881,0.90703 0.555695,1.50014 0.340859,1.13696 0.464891,1.89704 0.829925,3.42552 0.09618,0.39017 0.205165,0.82632 0.32881,1.26158 0.08585,0.3022 0.193587,0.65688 0.325573,1.0274 0.238016,0.66818 0.596604,1.51128 1.172142,2.31899 0.0293,0.0411 0.06087,0.0806 0.09458,0.11816 0.587012,0.6548 1.262116,1.21299 2.009896,1.73461 0.677483,0.47258 1.364383,0.88159 2.054988,1.30318 0.0097,0.006 0.0195,0.0117 0.02935,0.0174 3.571186,2.05847 7.47669,3.84115 11.67534,5.28261 0.0081,0.003 0.0162,0.005 0.02434,0.008 0.941847,0.30354 1.953041,0.62695 2.986037,0.88088 1.034685,0.25434 2.115659,0.44568 3.235912,0.48977 0.625594,0.0339 1.275729,-0.0534 1.882125,-0.28346 0.63178,-0.23974 1.219,-0.63639 1.66696,-1.20838 0.38232,-0.47086 0.65277,-0.88309 0.89007,-1.15944 0.12884,-0.15003 0.2387,-0.25646 0.33916,-0.3346 0.10253,-0.0798 0.19509,-0.1298 0.28567,-0.16233 0.0141,-0.005 0.0282,-0.0104 0.0422,-0.0159 0.35141,-0.13958 0.76197,-0.16199 1.04802,-0.1622 a 1.354927,1.354927 90 0 0 -0.002,-2.70986 c -0.35024,2.7e-4 -1.18163,0.0153 -2.0258,0.34552 -0.38013,0.13929 -0.71468,0.33475 -1.01181,0.56587 -0.2834,0.22046 -0.523,0.46566 -0.73122,0.70814 -0.39241,0.45698 -0.68774,0.90946 -0.944913,1.22533 -0.0068,0.008 -0.01344,0.0167 -0.02001,0.0252 -0.111988,0.14441 -0.269945,0.26273 -0.497642,0.34913 -0.22459,0.0852 -0.496104,0.12697 -0.780012,0.11083 -0.0083,-4.7e-4 -0.01658,-8.7e-4 -0.02488,-0.001 -0.886609,-0.0341 -1.781853,-0.187 -2.704863,-0.41389 -0.922919,-0.22687 -1.843694,-0.51987 -2.789399,-0.82463 -4.020203,-1.38019 -7.761897,-3.08854 -11.175239,-5.05474 -0.720237,-0.43958 -1.31375,-0.79355 -1.901925,-1.20384 -0.606811,-0.42329 -1.092362,-0.83031 -1.490896,-1.26407 -0.350344,-0.50805 -0.59617,-1.06902 -0.783347,-1.59447 -0.105829,-0.29709 -0.195753,-0.59163 -0.271588,-0.85859 -0.109539,-0.3856 -0.208748,-0.78149 -0.302142,-1.16021 -0.326795,-1.36852 -0.498094,-2.33207 -0.867594,-3.56457 -0.208211,-0.6945 -0.434518,-1.30272 -0.691626,-1.85895 -0.35781,-0.77408 -0.734185,-1.35585 -1.067796,-1.79575 a 1.354927,1.354927 90 0 0 -2.159176,1.63746 z"
       id="path-1-37"
       inkscape:path-effect="#path-effect3227;#path-effect3229"
       inkscape:original-d="m 73.260851,164.16109 c 2.30371,3.02381 1.904325,7.41931 3.793795,10.56843 1.794701,2.99117 17.907645,10.39252 22.220803,9.48449 2.338771,-0.49237 1.722121,-3.25182 5.148721,-3.25182"
       style="fill:#000000;fill-rule:nonzero;stroke:none;stroke-width:1px;stroke-linecap:butt;stroke-linejoin:miter;stroke-opacity:1" />
  </g>
</svg>
