<?xml version="1.0" encoding="UTF-8" standalone="no"?>
<!-- Created with Inkscape (http://www.inkscape.org/) -->

<svg
   width="123.66803mm"
   height="123.72866mm"
   viewBox="0 0 123.66803 123.72866"
   version="1.1"
   id="svg5"
   inkscape:version="1.1 (c68e22c387, 2021-05-23)"
   sodipodi:docname="fogo.svg"
   xmlns:inkscape="http://www.inkscape.org/namespaces/inkscape"
   xmlns:sodipodi="http://sodipodi.sourceforge.net/DTD/sodipodi-0.dtd"
   xmlns="http://www.w3.org/2000/svg"
   xmlns:svg="http://www.w3.org/2000/svg">
  <sodipodi:namedview
     id="namedview7"
     pagecolor="#ffffff"
     bordercolor="#666666"
     borderopacity="1.0"
     inkscape:pageshadow="2"
     inkscape:pageopacity="0.0"
     inkscape:pagecheckerboard="0"
     inkscape:document-units="mm"
     showgrid="false"
     inkscape:zoom="0.97637486"
     inkscape:cx="311.35583"
     inkscape:cy="247.34353"
     inkscape:window-width="1366"
     inkscape:window-height="705"
     inkscape:window-x="-8"
     inkscape:window-y="-8"
     inkscape:window-maximized="1"
     inkscape:current-layer="layer1" />
  <defs
     id="defs2">
    <inkscape:path-effect
       effect="powerstroke"
       id="path-effect1646"
       is_visible="true"
       lpeversion="1"
       offset_points="2.4650075,1.354927"
       not_jump="true"
       sort_points="true"
       interpolator_type="CentripetalCatmullRom"
       interpolator_beta="0.75"
       start_linecap_type="round"
       linejoin_type="spiro"
       miter_limit="4"
       scale_width="1"
       end_linecap_type="round" />
    <inkscape:path-effect
       effect="simplify"
       id="path-effect1644"
       is_visible="true"
       lpeversion="1"
       steps="1"
       threshold="0.0032025118"
       smooth_angles="0"
       helper_size="0"
       simplify_individual_paths="false"
       simplify_just_coalesce="false"
       step="1" />
    <inkscape:path-effect
       effect="powerstroke"
       id="path-effect1639"
       is_visible="true"
       lpeversion="1"
       offset_points="3.708871,1.354927"
       not_jump="true"
       sort_points="true"
       interpolator_type="CentripetalCatmullRom"
       interpolator_beta="0.75"
       start_linecap_type="round"
       linejoin_type="spiro"
       miter_limit="4"
       scale_width="1"
       end_linecap_type="round" />
    <inkscape:path-effect
       effect="simplify"
       id="path-effect1637"
       is_visible="true"
       lpeversion="1"
       steps="1"
       threshold="0.0032025118"
       smooth_angles="0"
       helper_size="0"
       simplify_individual_paths="false"
       simplify_just_coalesce="false"
       step="1" />
    <inkscape:path-effect
       effect="powerstroke"
       id="path-effect1632"
       is_visible="true"
       lpeversion="1"
       offset_points="1.8042968,1.354927"
       not_jump="true"
       sort_points="true"
       interpolator_type="CentripetalCatmullRom"
       interpolator_beta="0.75"
       start_linecap_type="round"
       linejoin_type="spiro"
       miter_limit="4"
       scale_width="1"
       end_linecap_type="round" />
    <inkscape:path-effect
       effect="simplify"
       id="path-effect1630"
       is_visible="true"
       lpeversion="1"
       steps="1"
       threshold="0.0032025118"
       smooth_angles="0"
       helper_size="0"
       simplify_individual_paths="false"
       simplify_just_coalesce="false"
       step="1" />
    <inkscape:path-effect
       effect="powerstroke"
       id="path-effect1625"
       is_visible="true"
       lpeversion="1"
       offset_points="1.0174868,1.354927"
       not_jump="true"
       sort_points="true"
       interpolator_type="CentripetalCatmullRom"
       interpolator_beta="0.75"
       start_linecap_type="round"
       linejoin_type="spiro"
       miter_limit="4"
       scale_width="1"
       end_linecap_type="round" />
    <inkscape:path-effect
       effect="simplify"
       id="path-effect1623"
       is_visible="true"
       lpeversion="1"
       steps="1"
       threshold="0.0032025118"
       smooth_angles="0"
       helper_size="0"
       simplify_individual_paths="false"
       simplify_just_coalesce="false"
       step="1" />
    <inkscape:path-effect
       effect="powerstroke"
       id="path-effect376"
       is_visible="true"
       lpeversion="1"
       offset_points="2.831902,2.709854"
       not_jump="true"
       sort_points="true"
       interpolator_type="CentripetalCatmullRom"
       interpolator_beta="0.75"
       start_linecap_type="round"
       linejoin_type="spiro"
       miter_limit="4"
       scale_width="1"
       end_linecap_type="round" />
    <inkscape:path-effect
       effect="simplify"
       id="path-effect374"
       is_visible="true"
       lpeversion="1"
       steps="1"
       threshold="0.0032025118"
       smooth_angles="0"
       helper_size="0"
       simplify_individual_paths="false"
       simplify_just_coalesce="false"
       step="1" />
    <inkscape:path-effect
       effect="powerstroke"
       id="path-effect369"
       is_visible="true"
       lpeversion="1"
       offset_points="2.9116368,2.709854"
       not_jump="true"
       sort_points="true"
       interpolator_type="CentripetalCatmullRom"
       interpolator_beta="0.75"
       start_linecap_type="round"
       linejoin_type="spiro"
       miter_limit="4"
       scale_width="1"
       end_linecap_type="round" />
    <inkscape:path-effect
       effect="simplify"
       id="path-effect367"
       is_visible="true"
       lpeversion="1"
       steps="1"
       threshold="0.0032025118"
       smooth_angles="0"
       helper_size="0"
       simplify_individual_paths="false"
       simplify_just_coalesce="false"
       step="1" />
    <inkscape:path-effect
       effect="powerstroke"
       id="path-effect360"
       is_visible="true"
       lpeversion="1"
       offset_points="1,2.709854"
       not_jump="true"
       sort_points="true"
       interpolator_type="CentripetalCatmullRom"
       interpolator_beta="0.75"
       start_linecap_type="round"
       linejoin_type="spiro"
       miter_limit="4"
       scale_width="1"
       end_linecap_type="round" />
    <inkscape:path-effect
       effect="simplify"
       id="path-effect358"
       is_visible="true"
       lpeversion="1"
       steps="1"
       threshold="0.0032025118"
       smooth_angles="0"
       helper_size="0"
       simplify_individual_paths="false"
       simplify_just_coalesce="false"
       step="1" />
    <inkscape:path-effect
       effect="powerstroke"
       id="path-effect353"
       is_visible="true"
       lpeversion="1"
       offset_points="1,2.709854"
       not_jump="true"
       sort_points="true"
       interpolator_type="CentripetalCatmullRom"
       interpolator_beta="0.75"
       start_linecap_type="round"
       linejoin_type="spiro"
       miter_limit="4"
       scale_width="1"
       end_linecap_type="round" />
    <inkscape:path-effect
       effect="simplify"
       id="path-effect351"
       is_visible="true"
       lpeversion="1"
       steps="1"
       threshold="0.0032025118"
       smooth_angles="0"
       helper_size="0"
       simplify_individual_paths="false"
       simplify_just_coalesce="false"
       step="1" />
    <inkscape:path-effect
       effect="powerstroke"
       id="path-effect346"
       is_visible="true"
       lpeversion="1"
       offset_points="2.5002058,2.709854"
       not_jump="true"
       sort_points="true"
       interpolator_type="CentripetalCatmullRom"
       interpolator_beta="0.75"
       start_linecap_type="round"
       linejoin_type="spiro"
       miter_limit="4"
       scale_width="1"
       end_linecap_type="round" />
    <inkscape:path-effect
       effect="simplify"
       id="path-effect344"
       is_visible="true"
       lpeversion="1"
       steps="1"
       threshold="0.0032025118"
       smooth_angles="0"
       helper_size="0"
       simplify_individual_paths="false"
       simplify_just_coalesce="false"
       step="1" />
    <inkscape:path-effect
       effect="powerstroke"
       id="path-effect339"
       is_visible="true"
       lpeversion="1"
       offset_points="1,2.709854"
       not_jump="true"
       sort_points="true"
       interpolator_type="CentripetalCatmullRom"
       interpolator_beta="0.75"
       start_linecap_type="round"
       linejoin_type="spiro"
       miter_limit="4"
       scale_width="1"
       end_linecap_type="round" />
    <inkscape:path-effect
       effect="simplify"
       id="path-effect337"
       is_visible="true"
       lpeversion="1"
       steps="1"
       threshold="0.0032025118"
       smooth_angles="0"
       helper_size="0"
       simplify_individual_paths="false"
       simplify_just_coalesce="false"
       step="1" />
    <inkscape:path-effect
       effect="powerstroke"
       id="path-effect332"
       is_visible="true"
       lpeversion="1"
       offset_points="2.0506614,2.709854"
       not_jump="true"
       sort_points="true"
       interpolator_type="CentripetalCatmullRom"
       interpolator_beta="0.75"
       start_linecap_type="round"
       linejoin_type="spiro"
       miter_limit="4"
       scale_width="1"
       end_linecap_type="round" />
    <inkscape:path-effect
       effect="simplify"
       id="path-effect330"
       is_visible="true"
       lpeversion="1"
       steps="1"
       threshold="0.0032025118"
       smooth_angles="0"
       helper_size="0"
       simplify_individual_paths="false"
       simplify_just_coalesce="false"
       step="1" />
    <inkscape:path-effect
       effect="powerstroke"
       id="path-effect325"
       is_visible="true"
       lpeversion="1"
       offset_points="2.6628953,2.709854"
       not_jump="true"
       sort_points="true"
       interpolator_type="CentripetalCatmullRom"
       interpolator_beta="0.75"
       start_linecap_type="round"
       linejoin_type="spiro"
       miter_limit="4"
       scale_width="1"
       end_linecap_type="round" />
    <inkscape:path-effect
       effect="simplify"
       id="path-effect323"
       is_visible="true"
       lpeversion="1"
       steps="1"
       threshold="0.0032025118"
       smooth_angles="0"
       helper_size="0"
       simplify_individual_paths="false"
       simplify_just_coalesce="false"
       step="1" />
    <inkscape:path-effect
       effect="powerstroke"
       id="path-effect318"
       is_visible="true"
       lpeversion="1"
       offset_points="0.41971207,2.709854"
       not_jump="true"
       sort_points="true"
       interpolator_type="CentripetalCatmullRom"
       interpolator_beta="0.75"
       start_linecap_type="round"
       linejoin_type="spiro"
       miter_limit="4"
       scale_width="1"
       end_linecap_type="round" />
    <inkscape:path-effect
       effect="simplify"
       id="path-effect316"
       is_visible="true"
       lpeversion="1"
       steps="1"
       threshold="0.0032025118"
       smooth_angles="0"
       helper_size="0"
       simplify_individual_paths="false"
       simplify_just_coalesce="false"
       step="1" />
    <inkscape:path-effect
       effect="powerstroke"
       id="path-effect311"
       is_visible="true"
       lpeversion="1"
       offset_points="0.84579674,2.709854"
       not_jump="true"
       sort_points="true"
       interpolator_type="CentripetalCatmullRom"
       interpolator_beta="0.75"
       start_linecap_type="round"
       linejoin_type="spiro"
       miter_limit="4"
       scale_width="1"
       end_linecap_type="round" />
    <inkscape:path-effect
       effect="simplify"
       id="path-effect309"
       is_visible="true"
       lpeversion="1"
       steps="1"
       threshold="0.0032025118"
       smooth_angles="0"
       helper_size="0"
       simplify_individual_paths="false"
       simplify_just_coalesce="false"
       step="1" />
    <inkscape:path-effect
       effect="powerstroke"
       id="path-effect304"
       is_visible="true"
       lpeversion="1"
       offset_points="2.1200156,5.4197079"
       not_jump="true"
       sort_points="true"
       interpolator_type="CentripetalCatmullRom"
       interpolator_beta="0.75"
       start_linecap_type="round"
       linejoin_type="spiro"
       miter_limit="4"
       scale_width="1"
       end_linecap_type="round" />
    <inkscape:path-effect
       effect="simplify"
       id="path-effect302"
       is_visible="true"
       lpeversion="1"
       steps="1"
       threshold="0.0032025118"
       smooth_angles="0"
       helper_size="0"
       simplify_individual_paths="false"
       simplify_just_coalesce="false"
       step="1" />
    <inkscape:path-effect
       effect="powerstroke"
       id="path-effect297"
       is_visible="true"
       lpeversion="1"
       offset_points="0.1402108,7.960196"
       not_jump="true"
       sort_points="true"
       interpolator_type="CentripetalCatmullRom"
       interpolator_beta="0.75"
       start_linecap_type="round"
       linejoin_type="spiro"
       miter_limit="4"
       scale_width="1"
       end_linecap_type="round" />
    <inkscape:path-effect
       effect="simplify"
       id="path-effect295"
       is_visible="true"
       lpeversion="1"
       steps="1"
       threshold="0.0032025118"
       smooth_angles="0"
       helper_size="0"
       simplify_individual_paths="false"
       simplify_just_coalesce="false"
       step="1" />
    <inkscape:path-effect
       effect="powerstroke"
       id="path-effect290"
       is_visible="true"
       lpeversion="1"
       offset_points="1.7787501,8.1295619"
       not_jump="true"
       sort_points="true"
       interpolator_type="CentripetalCatmullRom"
       interpolator_beta="0.75"
       start_linecap_type="round"
       linejoin_type="spiro"
       miter_limit="4"
       scale_width="1"
       end_linecap_type="round" />
    <inkscape:path-effect
       effect="simplify"
       id="path-effect288"
       is_visible="true"
       lpeversion="1"
       steps="1"
       threshold="0.0032025118"
       smooth_angles="0"
       helper_size="0"
       simplify_individual_paths="false"
       simplify_just_coalesce="false"
       step="1" />
    <inkscape:path-effect
       effect="powerstroke"
       id="path-effect283"
       is_visible="true"
       lpeversion="1"
       offset_points="1.6716545,8.1295619"
       not_jump="true"
       sort_points="true"
       interpolator_type="CentripetalCatmullRom"
       interpolator_beta="0.75"
       start_linecap_type="round"
       linejoin_type="spiro"
       miter_limit="4"
       scale_width="1"
       end_linecap_type="round" />
    <inkscape:path-effect
       effect="simplify"
       id="path-effect281"
       is_visible="true"
       lpeversion="1"
       steps="1"
       threshold="0.0032025118"
       smooth_angles="0"
       helper_size="0"
       simplify_individual_paths="false"
       simplify_just_coalesce="false"
       step="1" />
  </defs>
  <g
     inkscape:label="Camada 1"
     inkscape:groupmode="layer"
     id="layer1"
     transform="translate(-45.469481,-90.453058)">
    <circle
       style="fill:#00ffff;stroke-width:0.264583"
       id="path35"
       cx="107.31023"
       cy="152.29379"
       r="62.326641" />
    <path
       style="fill:#008000;stroke-width:2.04839"
       d="m 386.12219,808.80454 c -76.44794,-5.5364 -148.99962,-52.54625 -186.03953,-120.5443 -19.19977,-35.24703 -28.2295,-71.28395 -28.2295,-112.66164 0,-66.57406 24.1446,-123.026 72.3644,-169.19354 44.95641,-43.04304 98.69565,-64.53523 161.36437,-64.53523 66.56925,0 122.98156,24.12562 169.20778,72.3644 43.01651,44.88933 64.47017,98.58637 64.47017,161.36437 0,61.99449 -21.46317,116.15696 -63.64823,160.61689 -50.0237,52.72125 -115.81548,77.92458 -189.48946,72.58905 z"
       id="path208"
       transform="scale(0.26458333)" />
    <path
       style="fill:#000000;stroke:none;stroke-width:1px;stroke-linecap:butt;stroke-linejoin:miter;stroke-opacity:1"
       d="M 372.80763,577.64699 432.21105,432.21105"
       id="path364" />
    <path
       style="fill:#ff0000;stroke-width:1.0242"
       d="M 207.96382,465.92698 C 150.11882,459.42485 94.695267,430.00452 56.245073,385.39053 43.455012,370.55015 34.105164,356.5158 25.098374,338.63857 8.0830932,304.86561 0.94854859,273.96097 0.94854859,234.02897 c 0,-20.37819 1.57646801,-36.25381 5.33543981,-53.72987 C 24.115162,97.399117 97.407775,24.164472 180.43984,6.2809955 c 33.65623,-7.24889358 74.24695,-7.26581118 106.77669,-0.044503 30.09495,6.6808045 60.43596,21.0334285 87.08209,41.1936265 16.49276,12.47826 39.8417,37.020583 53.20618,55.925571 18.31283,25.90482 31.80707,60.79956 37.06659,95.85059 2.4938,16.61941 2.53871,51.4837 0.0878,68.16888 -6.56601,44.69997 -24.13186,83.43554 -53.15283,117.21074 -37.46231,43.59938 -83.89445,70.04278 -139.58212,79.49289 -14.23406,2.41549 -49.77668,3.44253 -63.96043,1.84819 z"
       id="path1550"
       transform="matrix(0.26458333,0,0,0.26458333,45.469481,90.453058)" />
    <path
       d="m 101.59207,116.4617 c -0.18242,0.87366 -0.3628,2.36273 -0.56651,4.15348 -0.12839,1.12861 -0.30232,2.47266 -0.70984,3.71586 -0.002,0.006 -0.004,0.0125 -0.006,0.0187 -0.002,0.007 -0.005,0.0142 -0.007,0.0214 -0.0283,0.0839 -0.0767,0.19157 -0.17072,0.34189 -0.0923,0.14744 -0.198449,0.29113 -0.369945,0.51888 -0.132215,0.17559 -0.329327,0.43485 -0.502051,0.7101 -0.156824,0.2499 -0.326176,0.56198 -0.449994,0.93316 -0.198748,0.49468 -0.310753,0.99029 -0.390358,1.47035 -0.07465,0.45018 -0.120389,0.87696 -0.179496,1.25474 -0.05342,0.2885 -0.169551,0.58739 -0.352703,0.89588 -0.166464,0.28038 -0.380765,0.55581 -0.630604,0.82088 -0.04099,0.0258 -0.09696,0.0555 -0.173855,0.0888 -0.127873,0.0554 -0.267245,0.10268 -0.477963,0.17472 -0.193467,0.0661 -0.448822,0.15388 -0.70525,0.27249 -0.257618,0.11916 -0.538198,0.27871 -0.807246,0.50687 -1.713546,1.32864 -3.225471,3.08893 -4.305984,4.28933 -0.266669,0.29945 -0.379777,0.42643 -0.527854,0.591 a 1.354927,1.354927 90 0 0 2.014454,1.81254 c 0.153387,-0.17048 0.270859,-0.30236 0.532353,-0.59603 1.161148,-1.28996 2.489026,-2.83012 3.971179,-3.97363 0.02184,-0.0169 0.04316,-0.0344 0.06393,-0.0525 0.03408,-0.0298 0.0907,-0.069 0.196804,-0.11808 0.112607,-0.0521 0.243634,-0.0993 0.444281,-0.16785 0.17667,-0.0604 0.430521,-0.14488 0.67847,-0.25229 0.258323,-0.11191 0.549377,-0.26368 0.834286,-0.49009 0.04455,-0.0354 0.08683,-0.0736 0.126573,-0.11429 0.398228,-0.40792 0.781723,-0.87821 1.096551,-1.40849 0.32237,-0.54298 0.57336,-1.15014 0.69226,-1.81404 0.002,-0.009 0.003,-0.0183 0.005,-0.0274 0.0752,-0.47592 0.1198,-0.89505 0.17854,-1.24925 0.0647,-0.39028 0.1392,-0.68108 0.24193,-0.92893 0.0152,-0.0366 0.0287,-0.0738 0.0406,-0.11163 0.0333,-0.10555 0.0913,-0.22489 0.17978,-0.36585 0.10003,-0.15942 0.22331,-0.32366 0.37147,-0.52043 0.16493,-0.21902 0.33932,-0.45093 0.50235,-0.71146 0.18403,-0.29408 0.33329,-0.59298 0.44141,-0.91365 0.008,-0.0232 0.0155,-0.0466 0.0229,-0.0702 0.50099,-1.53203 0.69677,-3.12237 0.8245,-4.24516 0.21137,-1.85807 0.37137,-3.16214 0.52666,-3.90588 a 1.354927,1.354927 90 0 0 -2.65264,-0.55388 z"
       id="path-1"
       inkscape:path-effect="#path-effect1623;#path-effect1625"
       inkscape:original-d="m 102.91839,116.73864 c -0.53545,2.51745 -0.49219,5.68514 -1.35493,8.12956 -0.28362,0.80358 -1.01337,1.38718 -1.35493,2.16789 -0.979372,2.23857 0.0193,2.93773 -1.896896,5.14872 -0.529133,0.61054 -1.507836,0.61803 -2.167883,1.08394 -1.647573,1.16299 -3.649505,3.51304 -4.877737,4.87774"
       style="fill:#000000;fill-rule:nonzero;stroke:none;stroke-width:1px;stroke-linecap:butt;stroke-linejoin:miter;stroke-opacity:1" />
    <path
       d="m 84.27933,114.44647 c -0.31186,1.02252 -0.538279,2.24087 -0.620148,4.02648 -0.0539,1.17561 -0.03254,2.46882 -0.07921,3.76281 -0.02511,0.62064 -0.05482,1.26369 -0.125627,1.88344 -0.04148,0.36306 -0.09663,0.71501 -0.172211,1.05527 -0.04172,0.18781 -0.09212,0.38315 -0.153971,0.58176 -0.04524,0.1042 -0.112357,0.22779 -0.217707,0.3946 -0.106007,0.16784 -0.246094,0.36862 -0.405106,0.6162 -0.143836,0.22395 -0.319304,0.51391 -0.461402,0.84689 -0.137808,0.32294 -0.253688,0.70681 -0.285064,1.14882 -0.07142,0.89666 0.02352,1.77612 0.21751,2.62917 0.18622,0.81891 0.461304,1.60312 0.754415,2.33805 0.0032,0.008 0.0065,0.0161 0.0099,0.024 0.356355,0.846 0.773353,1.69935 1.277189,2.51383 0.511936,0.82757 1.108898,1.60755 1.816562,2.30006 0.51618,0.50517 1.092082,0.84758 1.584441,1.10145 0.543796,0.2804 1.026823,0.48143 1.413353,0.67048 0.0089,0.004 0.01787,0.009 0.02687,0.0128 1.162787,0.53741 2.095345,0.9362 2.654242,1.19298 a 1.354927,1.354927 90 0 0 1.131316,-2.4624 c -0.585519,-0.26901 -1.540192,-0.67836 -2.635565,-1.18436 -0.471978,-0.23024 -0.942469,-0.42874 -1.348317,-0.638 -0.384799,-0.19841 -0.691489,-0.39528 -0.930982,-0.62966 -0.525152,-0.51391 -0.989841,-1.11398 -1.407361,-1.78893 -0.4097,-0.6623 -0.763536,-1.37972 -1.079362,-2.12822 -0.264011,-0.66302 -0.482292,-1.29868 -0.624256,-1.92297 -0.147891,-0.65036 -0.203979,-1.25097 -0.158216,-1.81799 4.51e-4,-0.006 8.66e-4,-0.0112 0.0012,-0.0167 0.0053,-0.0776 0.02611,-0.16531 0.07453,-0.27877 0.0536,-0.1256 0.133897,-0.26673 0.2491,-0.4461 0.119453,-0.18599 0.26684,-0.39713 0.416161,-0.63356 0.16386,-0.25944 0.328139,-0.5478 0.458473,-0.87321 0.01188,-0.0297 0.02271,-0.0597 0.03246,-0.0902 0.09843,-0.30706 0.174706,-0.60109 0.234974,-0.87243 0.100539,-0.45262 0.169533,-0.90083 0.219167,-1.33524 0.08342,-0.73009 0.115949,-1.46401 0.141158,-2.08748 0.0508,-1.40823 0.02927,-2.67181 0.07836,-3.74228 0.07324,-1.59736 0.269492,-2.58749 0.505118,-3.36005 a 1.354927,1.354927 90 0 0 -2.59198,-0.79054 z"
       id="path-1-4"
       inkscape:path-effect="#path-effect1630;#path-effect1632"
       inkscape:original-d="m 85.57532,114.84174 c -1.072865,3.41588 -0.186032,7.69835 -1.083941,11.11041 -0.257014,0.97665 -1.19742,1.7123 -1.354927,2.70985 -0.444933,2.81791 2.088478,8.0544 4.335766,9.48449 0.842314,0.53602 4.210839,1.96993 4.606752,2.16788"
       style="fill:#000000;fill-rule:nonzero;stroke:none;stroke-width:1px;stroke-linecap:butt;stroke-linejoin:miter;stroke-opacity:1" />
    <path
       d="m 83.7561,117.37041 c -0.325267,0.91878 -0.861083,1.77416 -1.707849,2.64792 -0.734143,0.75754 -1.589136,1.42402 -2.707751,2.24973 -0.890253,0.65715 -2.074162,1.5033 -3.077453,2.42305 -0.485181,0.44478 -0.971948,0.94382 -1.420761,1.50875 -0.426789,0.5372 -0.825404,1.14156 -1.159647,1.82818 -1.851086,3.61672 -3.087858,7.26909 -4.63609,12.03496 -0.0016,0.005 -0.0032,0.0101 -0.0048,0.0151 -0.682029,2.18633 -1.123735,4.70274 -1.002651,7.28603 0.110938,2.36685 0.700547,4.87092 2.105971,7.1693 0.853489,1.558 1.986124,3.03685 3.392862,4.30596 0.56596,0.51058 1.17713,0.98784 1.831928,1.42102 0.847663,0.56077 1.802099,1.06984 2.86094,1.47627 0.886451,0.39932 1.836205,0.86984 2.714317,1.43875 0.802921,0.52021 1.567737,1.13585 2.200818,1.88973 l -0.186084,-1.45308 c -0.01734,0.0365 -0.03368,0.0551 -0.05241,0.0711 -0.0235,0.0201 -0.06884,0.0515 -0.161211,0.0868 -0.09309,0.0355 -0.221747,0.0695 -0.396152,0.0953 -0.170854,0.0252 -0.368903,0.04 -0.598156,0.0454 -0.470944,0.0111 -0.944006,-0.0174 -1.527598,-0.0398 -0.479455,-0.0184 -1.060679,-0.034 -1.597542,0.0324 -1.920099,0.009 -3.91851,0.0491 -5.821314,-0.14517 -0.935011,-0.0955 -1.853521,-0.24764 -2.743293,-0.48905 -0.868597,-0.23567 -1.713461,-0.55736 -2.523847,-0.99846 -0.02212,-0.012 -0.04458,-0.0235 -0.06733,-0.0342 -3.623254,-1.71772 -6.786682,-3.91041 -10.522154,-6.35303 -0.03123,-0.0329 -0.06568,-0.07 -0.103308,-0.1111 -0.076,-0.083 -0.156902,-0.17374 -0.241623,-0.26931 -0.08093,-0.0913 -0.170019,-0.19232 -0.249493,-0.28102 -0.07829,-0.0874 -0.162973,-0.18048 -0.240765,-0.26047 -0.03857,-0.0397 -0.0853,-0.0863 -0.135492,-0.13201 -0.0254,-0.0231 -0.05751,-0.0513 -0.09454,-0.0811 -0.0343,-0.0275 -0.08961,-0.0699 -0.160259,-0.11356 -0.03623,-0.0224 -0.08624,-0.0511 -0.147645,-0.0799 -0.05888,-0.0275 -0.149558,-0.0651 -0.264775,-0.0929 -0.111405,-0.0269 -0.292522,-0.056 -0.512571,-0.025 -0.236814,0.0333 -0.502007,0.13519 -0.730198,0.34383 -0.108224,0.099 -0.191978,0.20752 -0.255223,0.31504 -0.06248,0.10623 -0.103305,0.20849 -0.130208,0.29745 -0.05198,0.17187 -0.05968,0.31943 -0.05884,0.41202 0.0016,0.17753 0.03741,0.31607 0.05378,0.37483 0.02014,0.0723 0.04272,0.13289 0.05938,0.17463 0.01761,0.0441 0.03569,0.0847 0.05209,0.11978 0.03233,0.0692 0.06901,0.14008 0.106332,0.2091 0.07042,0.13023 0.163117,0.29048 0.278297,0.48248 2.588508,4.91962 5.28269,10.44985 8.180615,15.50278 2.893658,5.04549 6.205903,10.02242 10.414272,14.41506 0.0025,0.003 0.0051,0.005 0.0077,0.008 1.917557,1.96913 4.201723,3.87548 6.782694,5.26667 1.275415,0.68747 2.633172,1.25445 4.062724,1.63773 1.41326,0.37891 2.897004,0.5783 4.437302,0.53603 2.198292,-0.0152 4.521947,-0.0621 6.8274,-0.31497 2.282079,-0.2503 4.602482,-0.70735 6.851532,-1.56635 0.0926,-0.0354 0.18481,-0.0736 0.26751,-0.12817 0.0827,-0.0546 0.15409,-0.12439 0.22299,-0.19563 0.23275,-0.24066 0.50277,-0.42203 0.81943,-0.5643 0.32085,-0.14415 0.69221,-0.24929 1.1263,-0.33018 0.43559,-0.0812 0.89619,-0.13161 1.41091,-0.18367 0.48003,-0.0485 1.0229,-0.0998 1.54877,-0.18314 5.39772,-0.57222 10.87753,-0.75646 16.50382,-0.87036 3.53588,0.24721 7.26191,0.53808 10.95542,0.49318 3.70135,-0.045 7.46141,-0.42545 11.14207,-1.55307 0.004,-0.001 0.008,-0.002 0.0117,-0.004 0.81039,-0.25634 1.64352,-0.59211 2.44767,-1.01287 0.80081,-0.41901 1.58411,-0.92821 2.28932,-1.53636 0.70321,-0.60643 1.33861,-1.31986 1.83104,-2.14908 0.49313,-0.83039 0.83762,-1.76862 0.9633,-2.80972 0.005,-0.0451 0.009,-0.0904 0.009,-0.13574 0.0196,-0.99315 -0.15633,-1.91186 -0.41959,-2.7626 -0.26018,-0.84077 -0.61259,-1.63522 -0.95371,-2.36824 -0.35134,-0.75496 -0.67851,-1.4208 -0.95881,-2.1141 -0.27419,-0.6782 -0.47664,-1.32136 -0.57119,-1.96656 -0.006,-0.0436 -0.0149,-0.0868 -0.0255,-0.12952 -0.60221,-2.42979 -1.00961,-5.00511 -1.58741,-7.60162 -0.57002,-2.56152 -1.31672,-5.17288 -2.63503,-7.63619 -0.7019,-1.62504 -1.60266,-3.10088 -2.546,-4.49027 -0.9551,-1.40668 -1.95978,-2.73604 -2.88365,-4.06623 -0.8896,-1.28936 -1.55222,-2.74725 -1.99468,-4.28969 -0.44264,-1.54311 -0.66231,-3.16212 -0.67328,-4.76739 -2.4e-4,-0.0341 -0.002,-0.0682 -0.005,-0.10216 -0.0359,-0.43506 0.026,-0.85568 0.16653,-1.24137 0.14108,-0.38724 0.36133,-0.73891 0.64032,-1.03106 0.27909,-0.29227 0.61312,-0.52106 0.97982,-0.6685 0.36517,-0.14683 0.76902,-0.21574 1.19852,-0.18326 0.078,0.006 0.15647,0.005 0.23436,-0.003 0.0963,-0.009 0.22104,-0.0204 0.3624,-0.0317 0.14094,-0.0112 0.29552,-0.0226 0.45101,-0.0328 0.15583,-0.0103 0.31056,-0.0193 0.45209,-0.0261 0.14313,-0.007 0.26569,-0.0111 0.35921,-0.0124 0.0468,-6.3e-4 0.0799,-4.1e-4 0.10083,1.1e-4 0.01,2.4e-4 0.0147,5.5e-4 0.0126,4.2e-4 -2.7e-4,-1e-5 -0.0134,-7.5e-4 -0.0352,-0.003 -0.0162,-0.002 -0.0708,-0.009 -0.14373,-0.0277 -0.0372,-0.01 -0.10018,-0.0278 -0.17584,-0.0597 -0.0669,-0.0282 -0.20325,-0.0918 -0.34705,-0.21483 -0.0758,-0.0649 -0.16855,-0.15895 -0.25267,-0.28822 -0.0863,-0.13264 -0.16188,-0.30028 -0.19728,-0.49891 -0.0357,-0.20058 -0.0237,-0.39502 0.0208,-0.56975 0.0432,-0.16968 0.11174,-0.30329 0.17735,-0.40376 0.0642,-0.0984 0.13098,-0.17239 0.18391,-0.22425 0.0537,-0.0526 0.10354,-0.0925 0.14266,-0.1213 0.0758,-0.0557 0.14148,-0.0913 0.1792,-0.11043 0.0743,-0.0377 0.13158,-0.0571 0.14628,-0.062 0.0236,-0.008 0.0306,-0.009 0.0293,-0.009 -0.003,7.1e-4 -0.0389,0.01 -0.0949,0.021 -0.11726,0.0238 -0.30336,0.0568 -0.57901,0.10027 -0.0189,0.003 -0.0378,0.006 -0.0566,0.0102 -4.20418,0.84627 -8.5816,1.70391 -12.79714,3.02175 -4.24486,1.327 -8.35852,3.12981 -12.02096,5.8855 -0.01,0.007 -0.0197,0.015 -0.0294,0.0228 -1.26656,1.00857 -2.54469,2.11944 -3.6846,3.37097 -1.14913,1.26164 -2.16847,2.67769 -2.89581,4.29121 -0.0113,0.0251 -0.0218,0.0505 -0.0316,0.0762 -0.32977,0.86926 -0.53283,1.74468 -0.65786,2.60677 -0.12526,0.86369 -0.17332,1.7226 -0.189,2.5535 -0.0317,1.67861 0.0591,3.27863 -0.0159,4.73513 l 2.64022,-0.35365 c -0.90581,-2.7539 -1.60738,-5.69311 -2.51912,-8.5554 -0.82751,-2.63648 -1.45403,-5.32454 -1.70818,-7.99874 -0.25741,-2.70853 -0.12994,-5.37394 0.53577,-7.94382 0.006,-0.0239 0.0117,-0.048 0.0166,-0.0722 0.37235,-1.84831 1.17271,-3.56695 2.14202,-5.3015 0.98258,-1.75831 2.12895,-3.51008 3.10702,-5.38272 0.74388,-1.41948 1.61244,-2.88477 2.35452,-4.44563 0.75669,-1.59162 1.38502,-3.29403 1.5899,-5.15136 0.01,-0.0864 0.0107,-0.17345 0.004,-0.26004 -0.18277,-2.21394 -0.83631,-4.30867 -1.75568,-6.21269 -0.94312,-1.95319 -2.17811,-3.73184 -3.52303,-5.27962 -0.95603,-1.09745 -2.09474,-2.02433 -3.35395,-2.70038 -1.24962,-0.670906 -2.61642,-1.094153 -4.04283,-1.196339 -1.20051,-0.370452 -2.40322,-0.402204 -3.52505,-0.125467 -1.11242,0.274414 -2.107155,0.841662 -2.938227,1.624696 -0.04208,0.0162 -0.08383,0.0334 -0.125141,0.0517 -0.162012,0.0716 -0.343176,0.1707 -0.514228,0.31254 -0.176037,0.14597 -0.35778,0.3545 -0.476712,0.62256 -0.0605,0.13634 -0.101683,0.27973 -0.122708,0.42676 -0.021,0.14687 -0.02053,0.28767 -0.0055,0.41847 0.02974,0.25862 0.115351,0.47154 0.197449,0.62764 0.08301,0.15784 0.179345,0.2896 0.264373,0.39271 0.167203,0.20278 0.362242,0.37981 0.521402,0.51576 0.165213,0.14113 0.348695,0.28533 0.499772,0.405 0.164285,0.13013 0.303525,0.24154 0.42698,0.34918 0.126555,0.11034 0.205863,0.19057 0.252157,0.24594 0.02064,0.0247 0.02836,0.0378 0.02396,0.0305 -0.0033,-0.005 -0.02236,-0.0378 -0.0405,-0.0954 l 0.322782,0.53967 c 1.18161,1.21076 2.23594,2.37944 2.99507,3.63828 0.39283,0.65143 0.68417,1.29266 0.86532,1.93182 0.18816,0.66391 0.25806,1.32754 0.19802,2.00395 -0.0742,0.83858 -0.28593,1.62446 -0.58199,2.37384 -0.31385,0.7944 -0.72738,1.55928 -1.18241,2.30032 -0.99555,1.62129 -2.16038,3.11134 -3.155928,4.73263 a 1.354927,1.354927 90 0 0 2.311758,1.4139 c 0.95991,-1.56949 2.1935,-3.15906 3.15342,-4.72855 0.50305,-0.81924 1.00166,-1.73091 1.39346,-2.7226 0.37228,-0.94231 0.65955,-1.98441 0.76096,-3.13029 0.0912,-1.02775 -0.0183,-2.02301 -0.29013,-2.98211 -0.25922,-0.91461 -0.66034,-1.77713 -1.15191,-2.59229 -0.88719,-1.47121 -2.05796,-2.77188 -3.2065,-3.95701 -0.0233,-0.0443 -0.0473,-0.0865 -0.0715,-0.12657 -0.0832,-0.1378 -0.17505,-0.26075 -0.26491,-0.36823 -0.17484,-0.20913 -0.37176,-0.39467 -0.55031,-0.55034 -0.17773,-0.15496 -0.36375,-0.30294 -0.52523,-0.43085 -0.16778,-0.1329 -0.30437,-0.24053 -0.42231,-0.34127 -0.11041,-0.0943 -0.18535,-0.17277 -0.190709,-0.17927 -0.0027,-0.003 0.013,0.0123 0.04327,0.0699 0.0273,0.0519 0.0778,0.16353 0.0963,0.32417 0.009,0.082 0.0102,0.1749 -0.004,0.2747 -0.0143,0.10011 -0.0424,0.19744 -0.0829,0.28865 -0.07907,0.1782 -0.193515,0.30054 -0.270544,0.36441 -0.07656,0.0635 -0.118703,0.0795 -0.120671,0.0803 -0.002,8.6e-4 0.03348,-0.0138 0.100685,-0.0316 0.119713,-0.0316 0.23958,-0.0679 0.34635,-0.13064 0.10677,-0.0627 0.19681,-0.14977 0.28275,-0.23892 0.55638,-0.57716 1.19978,-0.95338 1.88776,-1.12309 0.65816,-0.16235 1.39974,-0.14583 2.18996,0.1203 0.11692,0.0394 0.23871,0.0626 0.36191,0.069 1.05917,0.0552 2.10277,0.36156 3.08517,0.889 0.95248,0.51138 1.83743,1.22608 2.59138,2.09156 1.21238,1.39525 2.3045,2.97551 3.12716,4.67922 0.78232,1.62018 1.31836,3.34675 1.48376,5.12601 -0.17336,1.3937 -0.65934,2.74847 -1.32863,4.15625 -0.67141,1.41224 -1.51821,2.84537 -2.30827,4.35296 -0.89641,1.71631 -2.02644,3.44696 -3.07146,5.31699 -1.01461,1.81562 -1.96806,3.81031 -2.42554,6.05166 -0.75149,2.92099 -0.88097,5.89845 -0.60102,8.84417 0.27705,2.91514 0.95453,5.79519 1.82213,8.55935 0.87261,2.73948 1.574,5.6826 2.52868,8.5851 0.11839,0.35993 0.25104,0.72823 0.50958,1.00522 0.12926,0.1385 0.28707,0.25152 0.46329,0.32105 0.17623,0.0695 0.37012,0.0947 0.55789,0.0696 0.18777,-0.0251 0.3682,-0.10047 0.51991,-0.21393 0.15172,-0.11346 0.27422,-0.26402 0.36249,-0.43166 0.17653,-0.33526 0.20758,-0.72548 0.22707,-1.10388 0.0854,-1.65844 -0.01,-3.28512 0.019,-4.8234 0.0145,-0.76591 0.0581,-1.50312 0.16142,-2.21569 0.10064,-0.6939 0.25693,-1.35815 0.49532,-1.99629 0.58098,-1.2757 1.41178,-2.44447 2.41155,-3.54212 1.00029,-1.09823 2.1503,-2.10448 3.35466,-3.06425 3.33271,-2.50412 7.13091,-4.18582 11.18547,-5.45333 4.04484,-1.26448 8.26333,-2.09419 12.49543,-2.94599 0.27815,-0.044 0.49964,-0.0827 0.66845,-0.11703 0.0864,-0.0176 0.17246,-0.0367 0.25181,-0.0578 0.0399,-0.0106 0.0875,-0.0242 0.13818,-0.0412 0.0442,-0.0149 0.12438,-0.0434 0.21539,-0.0896 0.0461,-0.0234 0.11855,-0.0631 0.19959,-0.12258 0.0418,-0.0307 0.0939,-0.0725 0.1494,-0.12693 0.0548,-0.0538 0.12313,-0.12959 0.1885,-0.2297 0.0668,-0.10224 0.13606,-0.23757 0.17971,-0.40892 0.0449,-0.17641 0.057,-0.37248 0.021,-0.57465 -0.0357,-0.20023 -0.11189,-0.36942 -0.19918,-0.50357 -0.0851,-0.13078 -0.17915,-0.2263 -0.25665,-0.29263 -0.14713,-0.12592 -0.28821,-0.19215 -0.36108,-0.22291 -0.0817,-0.0345 -0.15198,-0.055 -0.19774,-0.0668 -0.0901,-0.0234 -0.16686,-0.0341 -0.20992,-0.0393 -0.0487,-0.006 -0.0933,-0.009 -0.12926,-0.0115 -0.0371,-0.002 -0.0733,-0.004 -0.1069,-0.004 -0.0667,-0.002 -0.1366,-0.002 -0.20501,-7.2e-4 -0.13681,0.002 -0.29343,0.008 -0.453,0.0152 -0.16092,0.008 -0.33206,0.0178 -0.50014,0.0289 -0.16815,0.0111 -0.33518,0.0233 -0.48836,0.0355 -0.10686,0.009 -0.20841,0.0171 -0.29989,0.0255 -0.80927,-0.043 -1.58536,0.0954 -2.29083,0.37909 -0.7383,0.29686 -1.39267,0.74991 -1.9287,1.31123 -0.53536,0.56063 -0.95637,1.23302 -1.22667,1.97496 -0.26476,0.72676 -0.3849,1.52051 -0.32523,2.33817 0.0166,1.82068 0.26766,3.66884 0.77789,5.44754 0.51469,1.79428 1.29535,3.5253 2.37139,5.08488 0.96766,1.39324 1.9662,2.71518 2.86981,4.04604 0.90742,1.33648 1.71205,2.66881 2.32092,4.09073 0.016,0.0373 0.0336,0.0739 0.0529,0.10957 1.16253,2.15676 1.85081,4.50658 2.40402,6.99257 0.5487,2.4657 0.95565,5.04077 1.58701,7.60308 0.14046,0.90853 0.41741,1.74872 0.72993,2.52172 0.3149,0.7789 0.69448,1.55459 1.01427,2.24175 0.33245,0.71439 0.6189,1.37027 0.8218,2.02595 0.19363,0.62571 0.30343,1.22863 0.29989,1.83969 -0.0835,0.6128 -0.28996,1.17113 -0.59432,1.68365 -0.31852,0.53636 -0.74972,1.03122 -1.27079,1.48057 -0.52295,0.45098 -1.12721,0.84807 -1.77589,1.18748 -0.64843,0.33928 -1.3309,0.61551 -2.00285,0.82841 -3.35046,1.02562 -6.8318,1.38951 -10.37528,1.43258 -3.5781,0.0435 -7.19725,-0.23991 -10.79452,-0.49105 -0.0405,-0.003 -0.0811,-0.004 -0.12169,-0.003 -5.66122,0.11407 -11.25726,0.29899 -16.83144,0.88991 -0.0246,0.003 -0.0491,0.006 -0.0735,0.01 -0.43898,0.071 -0.90139,0.11507 -1.42654,0.16818 -0.51137,0.0517 -1.07496,0.11146 -1.63471,0.21578 -0.56685,0.10563 -1.16149,0.26224 -1.74037,0.52232 -0.49859,0.224 -0.98072,0.52267 -1.42136,0.9238 -1.894572,0.69291 -3.886711,1.08524 -5.925029,1.3088 -2.163113,0.23725 -4.374879,0.28394 -6.564844,0.29897 -0.0097,7e-5 -0.01949,2.4e-4 -0.02923,5.2e-4 -1.26033,0.0359 -2.486543,-0.12605 -3.6734,-0.44425 -1.198985,-0.32146 -2.361689,-0.80362 -3.478707,-1.40571 -2.2691,-1.22308 -4.336252,-2.93345 -6.123236,-4.76791 -3.99504,-4.17089 -7.18021,-8.93908 -10.0165,-13.88454 -2.874971,-5.01291 -5.498197,-10.41045 -8.151183,-15.45068 -0.01205,-0.0229 -0.02476,-0.0454 -0.03811,-0.0676 -0.115696,-0.19222 -0.190929,-0.32321 -0.236635,-0.40774 -0.02181,-0.0403 -0.03455,-0.0665 -0.03507,-0.0676 -2.61e-4,-5.5e-4 0.0026,0.005 0.0096,0.0228 0.0055,0.0137 0.01981,0.0506 0.03447,0.1032 0.01088,0.0391 0.04396,0.16195 0.04547,0.32759 7.87e-4,0.0867 -0.0063,0.22925 -0.05707,0.39705 -0.02629,0.0869 -0.06633,0.18739 -0.12789,0.29203 -0.06231,0.10594 -0.144984,0.21316 -0.25197,0.31098 -0.225714,0.20637 -0.487818,0.30689 -0.720951,0.33967 -0.216366,0.0304 -0.393207,0.002 -0.499766,-0.024 -0.110366,-0.0266 -0.195622,-0.0622 -0.248529,-0.087 -0.05543,-0.0259 -0.0989,-0.0511 -0.128081,-0.0691 -0.05651,-0.0349 -0.09556,-0.0655 -0.111635,-0.0784 -0.01878,-0.0151 -0.03068,-0.0258 -0.03407,-0.0289 -0.0091,-0.008 8.15e-4,6.8e-4 0.01725,0.0176 0.03723,0.0383 0.0916,0.0974 0.165251,0.17958 0.07311,0.0816 0.151871,0.17095 0.239962,0.27032 0.08649,0.0976 0.179222,0.20165 0.270521,0.30139 0.09097,0.0994 0.188005,0.20267 0.282283,0.29619 0.06507,0.0645 0.136545,0.12234 0.213285,0.17247 3.687906,2.40869 7.072858,4.76347 10.934425,6.59849 1.010463,0.5462 2.044906,0.93555 3.075943,1.21529 1.064674,0.28886 2.134104,0.46304 3.177611,0.56959 2.112775,0.21573 4.32814,0.16692 6.195725,0.15875 0.06334,-2.7e-4 0.126594,-0.005 0.189276,-0.0141 0.286607,-0.0417 0.678872,-0.0401 1.205225,-0.0199 0.506266,0.0194 1.113925,0.0547 1.695307,0.041 0.303447,-0.007 0.617676,-0.0277 0.929413,-0.0736 0.316736,-0.0467 0.645718,-0.12171 0.967123,-0.24435 0.329654,-0.12578 0.660498,-0.30604 0.956494,-0.5592 0.307312,-0.26283 0.557601,-0.5866 0.738446,-0.967 0.05683,-0.11953 0.112852,-0.24028 0.147555,-0.36801 0.0347,-0.12772 0.04752,-0.26199 0.0307,-0.39327 -0.01681,-0.13129 -0.06305,-0.25799 -0.128814,-0.37285 -0.06577,-0.11486 -0.150413,-0.2176 -0.235529,-0.31895 -0.854356,-1.01738 -1.846709,-1.80204 -2.802554,-2.42132 -1.056596,-0.68455 -2.161597,-1.22504 -3.112312,-1.65212 -0.02411,-0.0108 -0.04854,-0.021 -0.07325,-0.0304 -0.872864,-0.33221 -1.662987,-0.75194 -2.368013,-1.21835 -0.538101,-0.35598 -1.042659,-0.74972 -1.511872,-1.17302 -1.175254,-1.06027 -2.127439,-2.30418 -2.845642,-3.62182 -0.01133,-0.0208 -0.0232,-0.0413 -0.0356,-0.0614 -1.130154,-1.83731 -1.631125,-3.88477 -1.725902,-5.90682 -0.103141,-2.2005 0.272646,-4.39413 0.880347,-6.34471 1.551057,-4.77438 2.731075,-8.23784 4.474766,-11.64197 0.0045,-0.009 0.009,-0.0177 0.0133,-0.0267 0.237164,-0.48925 0.525886,-0.93085 0.849674,-1.33841 0.339709,-0.4276 0.722303,-0.82297 1.130178,-1.19688 0.86974,-0.79732 1.905116,-1.53874 2.855612,-2.24036 1.127957,-0.83261 2.141467,-1.61237 3.044392,-2.54408 1.079613,-1.11404 1.843965,-2.29505 2.316367,-3.62944 a 1.354927,1.354927 90 0 0 -2.5545,-0.90434 z"
       id="path-1-0"
       inkscape:path-effect="#path-effect1637;#path-effect1639"
       inkscape:original-d="m 85.03335,117.82258 c -1.588477,4.27286 -5.825822,5.56712 -8.671533,8.67154 -2.064284,2.25194 -3.724933,7.36937 -4.606752,9.75547 -2.242404,6.06768 -3.90078,11.89588 -0.270985,17.88504 4.265096,7.03741 7.922306,5.21245 12.465328,9.75547 1.753862,1.75386 -4.836666,1.31064 -7.316606,1.35493 -2.7334,0.0488 -5.591259,-0.0686 -8.129562,-1.08394 -4.358709,-1.74349 -8.227142,-4.53576 -12.194343,-7.04562 -0.539768,-0.34149 -1.661853,-1.91507 -1.354927,-1.35493 5.600643,10.22117 15.531032,34.08726 29.808394,37.125 2.927183,0.6228 9.977317,0.19158 13.278285,-0.54197 7.161291,-1.5914 0.286371,-1.73866 9.755471,-2.70986 5.03922,-0.51684 10.11311,-0.62265 15.17519,-0.81295 2.52097,-0.0948 25.26099,3.29184 28.72445,-6.23267 1.0857,-2.98567 -1.69746,-6.12428 -2.43887,-9.2135 -2.37416,-9.89234 -1.40286,-10.69557 -5.96168,-18.96898 -0.88971,-1.61467 -4.17249,-5.418 -5.14872,-7.85857 -0.93378,-2.33445 -3.49217,-10.62876 1.62591,-11.65238 0.89016,-0.17803 1.80474,-0.20136 2.70985,-0.27098 0.27019,-0.0208 1.07868,-0.0532 0.81296,0 -11.03197,2.20639 -23.64499,4.42619 -30.62135,14.36222 -1.95865,2.7896 -1.62591,6.59838 -1.62591,9.75548 0,0.45164 0.14282,0.92646 0,1.35493 -0.0639,0.19161 -0.22052,-0.3464 -0.27099,-0.54197 -2.73538,-10.59962 -5.9881,-16.26856 -2.98084,-26.55657 1.08693,-3.71844 9.04694,-14.49348 8.67154,-18.698 -0.39862,-4.46453 -4.82216,-12.72797 -10.29745,-13.54927 -5.07857,-0.761783 -3.81696,-0.905132 -7.045619,1.35493 -0.165469,0.11583 -0.541971,0.069 -0.541971,0.27099 0,0.20198 0.413765,0.11491 0.541971,0.27098 1.961159,2.3875 4.562679,4.44017 5.690689,7.31661 2.03501,5.18927 -2.31443,9.51233 -4.60675,13.27828"
       style="fill:#000000;fill-rule:nonzero;stroke:none;stroke-width:1px;stroke-linecap:butt;stroke-linejoin:miter;stroke-opacity:1" />
    <path
       d="m 91.288169,162.4315 c 0.197684,0.0821 0.465616,0.24029 0.675359,0.50718 0.07759,0.0987 0.143071,0.20784 0.189432,0.32444 0.04083,0.10269 0.06727,0.21222 0.07366,0.32809 7.98e-4,0.0145 0.0018,0.0289 0.0031,0.0434 0.0253,0.28954 0.02203,0.60562 -0.0027,0.98755 -0.02253,0.3481 -0.0636,0.7383 -0.09829,1.17573 -0.03165,0.39915 -0.05936,0.86917 -0.038,1.35727 0.01967,0.44961 0.08168,0.9459 0.235164,1.46292 0.10383,0.46652 0.228397,0.89304 0.293037,1.25133 0.0048,0.0266 0.0093,0.0529 0.01351,0.0789 0.02854,0.17671 0.04131,0.33115 0.03578,0.46593 -0.0037,0.0909 -0.01565,0.17013 -0.03575,0.2415 -0.306768,0.56771 -0.734083,1.214 -1.177527,2.00127 -0.210984,0.37457 -0.430443,0.79708 -0.61657,1.2555 -0.172379,0.42456 -0.322869,0.89577 -0.413657,1.41227 -0.06992,0.29889 -0.08453,0.61233 -0.03491,0.92362 0.05139,0.32233 0.171994,0.64218 0.369152,0.92916 0.191178,0.27829 0.451654,0.52099 0.774697,0.69356 0.222474,0.11885 0.46473,0.19907 0.718664,0.23781 0.191976,0.0923 0.402028,0.2247 0.681603,0.41686 0.292766,0.20122 0.743171,0.52887 1.214366,0.7762 0.004,0.002 0.008,0.004 0.01203,0.006 3.080806,1.57806 6.637609,2.76506 10.418129,3.01998 0.009,5.9e-4 0.0175,0.001 0.0262,0.002 1.0154,0.0487 2.13605,0.0472 3.2575,-0.1171 1.10001,-0.16122 2.23301,-0.48213 3.30066,-1.09707 0.69995,-0.39106 1.35119,-0.80099 1.98434,-1.1583 0.62834,-0.35461 1.22584,-0.65139 1.84123,-0.85258 0.0253,-0.008 0.0503,-0.0173 0.0751,-0.027 0.76093,-0.29941 1.5698,-0.58228 2.40309,-0.90007 0.80951,-0.30871 1.65775,-0.65739 2.48631,-1.09514 0.213,-0.10415 0.41338,-0.24293 0.58811,-0.42112 0.18523,-0.1889 0.32393,-0.40413 0.4192,-0.63148 0.0939,-0.22412 0.1402,-0.44658 0.1572,-0.65164 0.0169,-0.20357 0.005,-0.39571 -0.0198,-0.56816 -0.0495,-0.33853 -0.1591,-0.64744 -0.27634,-0.90058 -0.11818,-0.25519 -0.26199,-0.49214 -0.41196,-0.69212 -0.002,-0.003 -0.005,-0.006 -0.007,-0.009 -0.64189,-0.84118 -1.40953,-1.5123 -2.18675,-2.08255 -0.76549,-0.56164 -1.58258,-1.0545 -2.30845,-1.50294 -0.008,-0.005 -0.0167,-0.0102 -0.0251,-0.0151 -2.26814,-1.33436 -4.61502,-2.48526 -6.94771,-3.58488 -2.34189,-1.10396 -4.63845,-2.14232 -6.89868,-3.28654 -0.44526,-0.2403 -0.76355,-0.39935 -1.06023,-0.60391 -0.13803,-0.0952 -0.24671,-0.18474 -0.3329,-0.27219 -0.0848,-0.086 -0.14804,-0.17021 -0.19593,-0.25691 -0.0187,-0.0338 -0.0388,-0.0669 -0.0603,-0.099 -0.689513,-1.02949 -1.120817,-2.20976 -1.395563,-3.49536 -0.277599,-1.29896 -0.388692,-2.67138 -0.45822,-4.06298 -1.8e-4,-0.004 -3.75e-4,-0.007 -5.83e-4,-0.0108 -0.05651,-0.97468 -0.06122,-1.93614 -0.09098,-2.97192 -0.02954,-1.02791 -0.08361,-2.09178 -0.245792,-3.16401 -0.0049,-0.0326 -0.01105,-0.065 -0.01835,-0.0972 -0.02293,-0.10106 -0.05194,-0.2071 -0.08989,-0.3133 -0.03732,-0.10445 -0.08962,-0.22699 -0.16506,-0.35224 -0.07444,-0.12358 -0.189263,-0.27957 -0.362498,-0.41973 -0.182131,-0.14735 -0.423177,-0.27152 -0.714263,-0.31393 -0.288921,-0.0421 -0.546132,0.008 -0.746238,0.0859 -0.192612,0.0749 -0.338023,0.17699 -0.436733,0.25919 -0.10092,0.084 -0.179977,0.16989 -0.238883,0.24121 -0.06022,0.0729 -0.110843,0.14462 -0.15252,0.20887 -0.08245,0.12711 -0.149899,0.25608 -0.203147,0.3688 -0.05469,0.11576 -0.1026,0.23187 -0.143177,0.33998 -0.04086,0.10887 -0.07707,0.21708 -0.107147,0.31847 -0.02271,0.0765 -0.04531,0.16052 -0.06387,0.24574 -0.85887,3.05582 -1.418349,6.34608 -1.999055,9.19238 -0.511381,2.50514 -0.873949,4.63264 -1.475122,6.86207 l 0.488867,-0.72637 c -0.08974,0.0681 -0.181752,0.14684 -0.26957,0.23784 -0.08798,0.0912 -0.178882,0.20206 -0.258868,0.33483 -0.08107,0.13457 -0.153462,0.29687 -0.196034,0.48106 -0.04372,0.18919 -0.05289,0.38622 -0.02418,0.58246 0.02856,0.19522 0.09114,0.36656 0.166922,0.51056 0.07504,0.14259 0.162655,0.25789 0.244212,0.34811 0.158493,0.17533 0.330173,0.29535 0.455221,0.37227 0.132102,0.0813 0.262687,0.14492 0.37025,0.19299 0.110541,0.0494 0.217889,0.0916 0.306313,0.12528 0.09162,0.0348 0.171079,0.0637 0.229859,0.0858 0.05945,0.0224 0.09969,0.0397 0.09217,0.0362 l 0.294825,0.0975 c 0.227981,0.0473 0.516448,0.074 0.827149,0.007 0.161032,-0.0347 0.326701,-0.0945 0.486756,-0.18736 0.162074,-0.0941 0.30251,-0.21291 0.418824,-0.34913 0.115814,-0.13564 0.198751,-0.27786 0.257658,-0.41227 0.05878,-0.13413 0.09458,-0.26248 0.116737,-0.37525 0.04352,-0.22149 0.04234,-0.42411 0.03207,-0.57531 -0.02047,-0.3012 -0.0925,-0.58929 -0.140689,-0.76861 -0.02631,-0.0979 -0.05437,-0.19449 -0.07319,-0.26023 -0.02241,-0.0783 -0.03214,-0.11442 -0.03657,-0.13332 -0.0066,-0.0286 -0.01341,-0.0577 -0.01963,-0.0844 -0.007,-0.0329 -0.01306,-0.0616 -0.01809,-0.0853 a 1.354927,1.354927 90 0 0 -2.650826,0.56252 c 0.0057,0.0267 0.01268,0.0597 0.02081,0.0981 0.0018,0.009 0.0037,0.0171 0.0057,0.0256 0.007,0.0302 0.01478,0.0636 0.02319,0.0997 0.02226,0.0949 0.04982,0.19162 0.07022,0.26288 0.02288,0.0799 0.04244,0.14718 0.06138,0.21766 0.03537,0.13161 0.05421,0.25092 0.05409,0.24908 -6.1e-5,-9e-4 -0.0065,-0.0342 0.01255,-0.13087 0.0091,-0.0465 0.02643,-0.11271 0.06031,-0.19001 0.03417,-0.078 0.08602,-0.16891 0.163475,-0.25962 0.0782,-0.0916 0.173309,-0.17203 0.281892,-0.23504 0.106915,-0.062 0.211354,-0.0982 0.30211,-0.1178 0.177152,-0.0382 0.274491,-0.0155 0.294758,-0.0113 0.101677,0.0211 0.200619,0.0538 0.294822,0.0975 -0.100263,-0.0465 -0.203723,-0.0862 -0.277662,-0.11406 -0.08076,-0.0304 -0.155118,-0.0574 -0.221412,-0.0826 -0.06756,-0.0257 -0.120835,-0.0472 -0.163815,-0.0664 -0.0403,-0.018 -0.06424,-0.0321 -0.05615,-0.0271 0.008,0.005 0.05086,0.0254 0.135134,0.11859 0.04065,0.045 0.09425,0.11329 0.143596,0.20706 0.05021,0.0954 0.09546,0.21634 0.116358,0.35919 0.02108,0.1441 0.01387,0.28705 -0.01688,0.42008 -0.02997,0.12966 -0.07815,0.23257 -0.123036,0.30707 -0.04392,0.0729 -0.08647,0.12174 -0.11236,0.14857 -0.02703,0.028 -0.04135,0.0384 -0.04172,0.0387 l 0.488867,-0.72637 c 0.630332,-2.33756 1.023567,-4.62396 1.51385,-7.02573 0.609652,-2.98819 1.135005,-6.10454 1.965148,-9.04521 0.01101,-0.039 0.02027,-0.0785 0.02774,-0.11835 -0.0039,0.0206 0.0017,-0.008 0.01286,-0.0457 0.01148,-0.0387 0.02727,-0.0864 0.04625,-0.13697 0.019,-0.0506 0.03848,-0.0969 0.05633,-0.13469 0.01707,-0.0361 0.03197,-0.0602 0.02637,-0.0515 -0.0019,0.003 -0.01204,0.0184 -0.03154,0.042 -0.01827,0.0221 -0.0564,0.0656 -0.116443,0.11555 -0.05792,0.0482 -0.162585,0.12466 -0.314835,0.18389 -0.159839,0.0622 -0.37716,0.10655 -0.626923,0.0702 -0.251997,-0.0367 -0.454677,-0.14375 -0.599512,-0.26093 -0.136005,-0.11003 -0.214661,-0.2229 -0.254337,-0.28877 -0.04074,-0.0676 -0.05974,-0.11802 -0.0655,-0.13416 -0.0064,-0.018 -0.0057,-0.0198 -9.43e-4,0.001 l -0.01835,-0.0972 c 0.137234,0.90728 0.187808,1.84048 0.216432,2.83657 0.02725,0.9484 0.03495,2.02206 0.09409,3.04548 0.07138,1.42663 0.190468,2.97289 0.514414,4.48871 0.320209,1.49833 0.848831,3.01024 1.764445,4.39254 0.175808,0.30607 0.384355,0.56831 0.607407,0.79462 0.234158,0.23757 0.483192,0.43443 0.724648,0.60091 0.457863,0.31569 0.977629,0.57728 1.326259,0.76567 0.0106,0.006 0.0212,0.0113 0.0319,0.0167 2.31093,1.17049 4.68766,2.24603 6.98349,3.32828 2.3104,1.08911 4.56222,2.19542 6.7166,3.462 0.76136,0.47026 1.46325,0.89492 2.11708,1.37463 0.64908,0.47623 1.19903,0.97105 1.63138,1.53619 0.0368,0.0497 0.0815,0.1221 0.11828,0.20151 0.0356,0.0768 0.0531,0.14794 0.054,0.15413 4.5e-4,0.003 -0.003,-0.0111 4.8e-4,-0.0481 0.003,-0.0367 0.0131,-0.0978 0.0441,-0.17181 0.0322,-0.0769 0.081,-0.15299 0.1452,-0.21841 0.0635,-0.0648 0.12439,-0.10116 0.16285,-0.11912 l -0.0618,0.0308 c -0.69096,0.3667 -1.42781,0.673 -2.20618,0.96984 -0.77393,0.29515 -1.58017,0.57715 -2.39368,0.89622 -0.84638,0.2809 -1.60921,0.67014 -2.29196,1.05544 -0.71244,0.40207 -1.36151,0.81063 -1.98169,1.1568 -0.006,0.003 -0.0116,0.007 -0.0174,0.01 -0.69966,0.40421 -1.4914,0.64206 -2.34699,0.76745 -0.87486,0.12822 -1.79744,0.13606 -2.72153,0.0922 -3.32104,-0.22393 -6.517742,-1.27638 -9.345487,-2.72392 -0.285026,-0.15031 -0.549842,-0.34354 -0.933357,-0.60713 -0.375347,-0.25798 -0.83633,-0.56144 -1.384397,-0.7746 -0.07512,-0.0292 -0.15125,-0.0569 -0.230357,-0.0723 -0.07911,-0.0155 -0.160044,-0.0185 -0.240637,-0.0197 0.04917,7.3e-4 0.120519,0.0141 0.197057,0.055 0.07742,0.0413 0.138984,0.0995 0.182004,0.16217 0.04372,0.0636 0.06505,0.12658 0.07335,0.17865 0.0087,0.0546 0.0034,0.0981 -0.0042,0.1268 l 0.02674,-0.12424 c 0.05008,-0.30057 0.140179,-0.5955 0.260719,-0.89239 0.127007,-0.31281 0.286948,-0.62563 0.466851,-0.94502 0.392469,-0.69678 0.868534,-1.4085 1.264082,-2.16227 0.02612,-0.0498 0.04913,-0.10115 0.06887,-0.15379 0.152852,-0.40754 0.212586,-0.79887 0.226826,-1.14534 0.01552,-0.37756 -0.02232,-0.7255 -0.06816,-1.00933 -0.007,-0.0436 -0.01437,-0.0863 -0.0219,-0.12795 -0.105424,-0.58433 -0.247447,-1.04907 -0.323839,-1.40041 -0.0082,-0.0379 -0.0181,-0.0754 -0.02956,-0.11248 -0.08106,-0.26207 -0.121223,-0.53904 -0.134333,-0.83868 -0.01403,-0.32058 0.0032,-0.65975 0.03211,-1.02459 0.03073,-0.38752 0.07393,-0.79505 0.101108,-1.21492 0.02911,-0.44981 0.03944,-0.90825 -1.81e-4,-1.37803 -0.02627,-0.42823 -0.124717,-0.81707 -0.259942,-1.15718 -0.154627,-0.38891 -0.360091,-0.72178 -0.576915,-0.99769 -0.569372,-0.72451 -1.26409,-1.12659 -1.76637,-1.33526 a 1.354927,1.354927 90 0 0 -1.039632,2.5025 z"
       id="path-1-8"
       inkscape:path-effect="#path-effect1644;#path-effect1646"
       inkscape:original-d="m 91.807985,161.18025 c 2.579701,1.21822 1.625912,3.35892 1.625912,5.69069 0,1.36692 0.782262,2.71915 0.541971,4.06478 -0.126473,0.70825 -2.701189,3.81979 -2.167883,5.41971 0.127743,0.38323 0.735008,0.33843 1.083941,0.54197 0.736076,0.42938 1.405691,0.97383 2.167883,1.35493 3.857134,1.92856 9.248651,3.43132 13.549271,2.43887 1.77127,-0.40876 3.22102,-1.69068 4.87774,-2.43887 1.39869,-0.63167 6.06883,-2.13645 6.23266,-2.70986 1.14268,-3.99937 -18.55888,-10.88655 -20.052919,-12.73631 -3.061472,-3.79039 -2.317433,-9.90542 -2.709854,-14.09124 -0.515415,-5.49776 -2.934798,10.64695 -4.335766,15.98814 -0.05125,0.19537 -0.444182,0.43805 -0.270986,0.54197 2.285104,1.37106 1.56193,-0.0489 1.354927,-1.08394"
       style="fill:#000000;fill-rule:nonzero;stroke:none;stroke-width:1px;stroke-linecap:butt;stroke-linejoin:miter;stroke-opacity:1" />
  </g>
</svg>
