<?xml version="1.0" encoding="UTF-8" standalone="no"?>
<!-- Created with Inkscape (http://www.inkscape.org/) -->

<svg
   width="121.79257mm"
   height="62.59763mm"
   viewBox="0 0 121.79257 62.597629"
   version="1.1"
   id="svg5"
   inkscape:version="1.1 (c68e22c387, 2021-05-23)"
   sodipodi:docname="parali.svg"
   xmlns:inkscape="http://www.inkscape.org/namespaces/inkscape"
   xmlns:sodipodi="http://sodipodi.sourceforge.net/DTD/sodipodi-0.dtd"
   xmlns="http://www.w3.org/2000/svg"
   xmlns:svg="http://www.w3.org/2000/svg">
  <sodipodi:namedview
     id="namedview7"
     pagecolor="#ffffff"
     bordercolor="#666666"
     borderopacity="1.0"
     inkscape:pageshadow="2"
     inkscape:pageopacity="0.0"
     inkscape:pagecheckerboard="0"
     inkscape:document-units="mm"
     showgrid="false"
     inkscape:zoom="0.97637486"
     inkscape:cx="307.25904"
     inkscape:cy="113.17375"
     inkscape:window-width="1366"
     inkscape:window-height="705"
     inkscape:window-x="-8"
     inkscape:window-y="-8"
     inkscape:window-maximized="1"
     inkscape:current-layer="layer1" />
  <defs
     id="defs2">
    <inkscape:path-effect
       effect="powerstroke"
       id="path-effect2509"
       is_visible="true"
       lpeversion="1"
       offset_points="3.0844638,1.354927"
       not_jump="true"
       sort_points="true"
       interpolator_type="CentripetalCatmullRom"
       interpolator_beta="0.75"
       start_linecap_type="round"
       linejoin_type="spiro"
       miter_limit="4"
       scale_width="1"
       end_linecap_type="round" />
    <inkscape:path-effect
       effect="simplify"
       id="path-effect2507"
       is_visible="true"
       lpeversion="1"
       steps="1"
       threshold="0.0032025118"
       smooth_angles="0"
       helper_size="0"
       simplify_individual_paths="false"
       simplify_just_coalesce="false"
       step="1" />
    <inkscape:path-effect
       effect="powerstroke"
       id="path-effect2498"
       is_visible="true"
       lpeversion="1"
       offset_points="0.40605341,1.354927"
       not_jump="true"
       sort_points="true"
       interpolator_type="CentripetalCatmullRom"
       interpolator_beta="0.75"
       start_linecap_type="round"
       linejoin_type="spiro"
       miter_limit="4"
       scale_width="1"
       end_linecap_type="round" />
    <inkscape:path-effect
       effect="simplify"
       id="path-effect2496"
       is_visible="true"
       lpeversion="1"
       steps="1"
       threshold="0.0032025118"
       smooth_angles="0"
       helper_size="0"
       simplify_individual_paths="false"
       simplify_just_coalesce="false"
       step="1" />
    <inkscape:path-effect
       effect="powerstroke"
       id="path-effect2491"
       is_visible="true"
       lpeversion="1"
       offset_points="3.3768083,1.354927"
       not_jump="true"
       sort_points="true"
       interpolator_type="CentripetalCatmullRom"
       interpolator_beta="0.75"
       start_linecap_type="round"
       linejoin_type="spiro"
       miter_limit="4"
       scale_width="1"
       end_linecap_type="round" />
    <inkscape:path-effect
       effect="simplify"
       id="path-effect2489"
       is_visible="true"
       lpeversion="1"
       steps="1"
       threshold="0.0032025118"
       smooth_angles="0"
       helper_size="0"
       simplify_individual_paths="false"
       simplify_just_coalesce="false"
       step="1" />
    <inkscape:path-effect
       effect="powerstroke"
       id="path-effect2480"
       is_visible="true"
       lpeversion="1"
       offset_points="2.5713418,1.354927"
       not_jump="true"
       sort_points="true"
       interpolator_type="CentripetalCatmullRom"
       interpolator_beta="0.75"
       start_linecap_type="round"
       linejoin_type="spiro"
       miter_limit="4"
       scale_width="1"
       end_linecap_type="round" />
    <inkscape:path-effect
       effect="simplify"
       id="path-effect2478"
       is_visible="true"
       lpeversion="1"
       steps="1"
       threshold="0.0032025118"
       smooth_angles="0"
       helper_size="0"
       simplify_individual_paths="false"
       simplify_just_coalesce="false"
       step="1" />
    <inkscape:path-effect
       effect="powerstroke"
       id="path-effect1646"
       is_visible="true"
       lpeversion="1"
       offset_points="2.4650075,1.354927"
       not_jump="true"
       sort_points="true"
       interpolator_type="CentripetalCatmullRom"
       interpolator_beta="0.75"
       start_linecap_type="round"
       linejoin_type="spiro"
       miter_limit="4"
       scale_width="1"
       end_linecap_type="round" />
    <inkscape:path-effect
       effect="simplify"
       id="path-effect1644"
       is_visible="true"
       lpeversion="1"
       steps="1"
       threshold="0.0032025118"
       smooth_angles="0"
       helper_size="0"
       simplify_individual_paths="false"
       simplify_just_coalesce="false"
       step="1" />
    <inkscape:path-effect
       effect="powerstroke"
       id="path-effect1639"
       is_visible="true"
       lpeversion="1"
       offset_points="3.708871,1.354927"
       not_jump="true"
       sort_points="true"
       interpolator_type="CentripetalCatmullRom"
       interpolator_beta="0.75"
       start_linecap_type="round"
       linejoin_type="spiro"
       miter_limit="4"
       scale_width="1"
       end_linecap_type="round" />
    <inkscape:path-effect
       effect="simplify"
       id="path-effect1637"
       is_visible="true"
       lpeversion="1"
       steps="1"
       threshold="0.0032025118"
       smooth_angles="0"
       helper_size="0"
       simplify_individual_paths="false"
       simplify_just_coalesce="false"
       step="1" />
    <inkscape:path-effect
       effect="powerstroke"
       id="path-effect1632"
       is_visible="true"
       lpeversion="1"
       offset_points="1.8042968,1.354927"
       not_jump="true"
       sort_points="true"
       interpolator_type="CentripetalCatmullRom"
       interpolator_beta="0.75"
       start_linecap_type="round"
       linejoin_type="spiro"
       miter_limit="4"
       scale_width="1"
       end_linecap_type="round" />
    <inkscape:path-effect
       effect="simplify"
       id="path-effect1630"
       is_visible="true"
       lpeversion="1"
       steps="1"
       threshold="0.0032025118"
       smooth_angles="0"
       helper_size="0"
       simplify_individual_paths="false"
       simplify_just_coalesce="false"
       step="1" />
    <inkscape:path-effect
       effect="powerstroke"
       id="path-effect1625"
       is_visible="true"
       lpeversion="1"
       offset_points="1.0174868,1.354927"
       not_jump="true"
       sort_points="true"
       interpolator_type="CentripetalCatmullRom"
       interpolator_beta="0.75"
       start_linecap_type="round"
       linejoin_type="spiro"
       miter_limit="4"
       scale_width="1"
       end_linecap_type="round" />
    <inkscape:path-effect
       effect="simplify"
       id="path-effect1623"
       is_visible="true"
       lpeversion="1"
       steps="1"
       threshold="0.0032025118"
       smooth_angles="0"
       helper_size="0"
       simplify_individual_paths="false"
       simplify_just_coalesce="false"
       step="1" />
    <inkscape:path-effect
       effect="powerstroke"
       id="path-effect376"
       is_visible="true"
       lpeversion="1"
       offset_points="2.831902,2.709854"
       not_jump="true"
       sort_points="true"
       interpolator_type="CentripetalCatmullRom"
       interpolator_beta="0.75"
       start_linecap_type="round"
       linejoin_type="spiro"
       miter_limit="4"
       scale_width="1"
       end_linecap_type="round" />
    <inkscape:path-effect
       effect="simplify"
       id="path-effect374"
       is_visible="true"
       lpeversion="1"
       steps="1"
       threshold="0.0032025118"
       smooth_angles="0"
       helper_size="0"
       simplify_individual_paths="false"
       simplify_just_coalesce="false"
       step="1" />
    <inkscape:path-effect
       effect="powerstroke"
       id="path-effect369"
       is_visible="true"
       lpeversion="1"
       offset_points="2.9116368,2.709854"
       not_jump="true"
       sort_points="true"
       interpolator_type="CentripetalCatmullRom"
       interpolator_beta="0.75"
       start_linecap_type="round"
       linejoin_type="spiro"
       miter_limit="4"
       scale_width="1"
       end_linecap_type="round" />
    <inkscape:path-effect
       effect="simplify"
       id="path-effect367"
       is_visible="true"
       lpeversion="1"
       steps="1"
       threshold="0.0032025118"
       smooth_angles="0"
       helper_size="0"
       simplify_individual_paths="false"
       simplify_just_coalesce="false"
       step="1" />
    <inkscape:path-effect
       effect="powerstroke"
       id="path-effect360"
       is_visible="true"
       lpeversion="1"
       offset_points="1,2.709854"
       not_jump="true"
       sort_points="true"
       interpolator_type="CentripetalCatmullRom"
       interpolator_beta="0.75"
       start_linecap_type="round"
       linejoin_type="spiro"
       miter_limit="4"
       scale_width="1"
       end_linecap_type="round" />
    <inkscape:path-effect
       effect="simplify"
       id="path-effect358"
       is_visible="true"
       lpeversion="1"
       steps="1"
       threshold="0.0032025118"
       smooth_angles="0"
       helper_size="0"
       simplify_individual_paths="false"
       simplify_just_coalesce="false"
       step="1" />
    <inkscape:path-effect
       effect="powerstroke"
       id="path-effect353"
       is_visible="true"
       lpeversion="1"
       offset_points="1,2.709854"
       not_jump="true"
       sort_points="true"
       interpolator_type="CentripetalCatmullRom"
       interpolator_beta="0.75"
       start_linecap_type="round"
       linejoin_type="spiro"
       miter_limit="4"
       scale_width="1"
       end_linecap_type="round" />
    <inkscape:path-effect
       effect="simplify"
       id="path-effect351"
       is_visible="true"
       lpeversion="1"
       steps="1"
       threshold="0.0032025118"
       smooth_angles="0"
       helper_size="0"
       simplify_individual_paths="false"
       simplify_just_coalesce="false"
       step="1" />
    <inkscape:path-effect
       effect="powerstroke"
       id="path-effect346"
       is_visible="true"
       lpeversion="1"
       offset_points="2.5002058,2.709854"
       not_jump="true"
       sort_points="true"
       interpolator_type="CentripetalCatmullRom"
       interpolator_beta="0.75"
       start_linecap_type="round"
       linejoin_type="spiro"
       miter_limit="4"
       scale_width="1"
       end_linecap_type="round" />
    <inkscape:path-effect
       effect="simplify"
       id="path-effect344"
       is_visible="true"
       lpeversion="1"
       steps="1"
       threshold="0.0032025118"
       smooth_angles="0"
       helper_size="0"
       simplify_individual_paths="false"
       simplify_just_coalesce="false"
       step="1" />
    <inkscape:path-effect
       effect="powerstroke"
       id="path-effect339"
       is_visible="true"
       lpeversion="1"
       offset_points="1,2.709854"
       not_jump="true"
       sort_points="true"
       interpolator_type="CentripetalCatmullRom"
       interpolator_beta="0.75"
       start_linecap_type="round"
       linejoin_type="spiro"
       miter_limit="4"
       scale_width="1"
       end_linecap_type="round" />
    <inkscape:path-effect
       effect="simplify"
       id="path-effect337"
       is_visible="true"
       lpeversion="1"
       steps="1"
       threshold="0.0032025118"
       smooth_angles="0"
       helper_size="0"
       simplify_individual_paths="false"
       simplify_just_coalesce="false"
       step="1" />
    <inkscape:path-effect
       effect="powerstroke"
       id="path-effect332"
       is_visible="true"
       lpeversion="1"
       offset_points="2.0506614,2.709854"
       not_jump="true"
       sort_points="true"
       interpolator_type="CentripetalCatmullRom"
       interpolator_beta="0.75"
       start_linecap_type="round"
       linejoin_type="spiro"
       miter_limit="4"
       scale_width="1"
       end_linecap_type="round" />
    <inkscape:path-effect
       effect="simplify"
       id="path-effect330"
       is_visible="true"
       lpeversion="1"
       steps="1"
       threshold="0.0032025118"
       smooth_angles="0"
       helper_size="0"
       simplify_individual_paths="false"
       simplify_just_coalesce="false"
       step="1" />
    <inkscape:path-effect
       effect="powerstroke"
       id="path-effect325"
       is_visible="true"
       lpeversion="1"
       offset_points="2.6628953,2.709854"
       not_jump="true"
       sort_points="true"
       interpolator_type="CentripetalCatmullRom"
       interpolator_beta="0.75"
       start_linecap_type="round"
       linejoin_type="spiro"
       miter_limit="4"
       scale_width="1"
       end_linecap_type="round" />
    <inkscape:path-effect
       effect="simplify"
       id="path-effect323"
       is_visible="true"
       lpeversion="1"
       steps="1"
       threshold="0.0032025118"
       smooth_angles="0"
       helper_size="0"
       simplify_individual_paths="false"
       simplify_just_coalesce="false"
       step="1" />
    <inkscape:path-effect
       effect="powerstroke"
       id="path-effect318"
       is_visible="true"
       lpeversion="1"
       offset_points="0.41971207,2.709854"
       not_jump="true"
       sort_points="true"
       interpolator_type="CentripetalCatmullRom"
       interpolator_beta="0.75"
       start_linecap_type="round"
       linejoin_type="spiro"
       miter_limit="4"
       scale_width="1"
       end_linecap_type="round" />
    <inkscape:path-effect
       effect="simplify"
       id="path-effect316"
       is_visible="true"
       lpeversion="1"
       steps="1"
       threshold="0.0032025118"
       smooth_angles="0"
       helper_size="0"
       simplify_individual_paths="false"
       simplify_just_coalesce="false"
       step="1" />
    <inkscape:path-effect
       effect="powerstroke"
       id="path-effect311"
       is_visible="true"
       lpeversion="1"
       offset_points="0.84579674,2.709854"
       not_jump="true"
       sort_points="true"
       interpolator_type="CentripetalCatmullRom"
       interpolator_beta="0.75"
       start_linecap_type="round"
       linejoin_type="spiro"
       miter_limit="4"
       scale_width="1"
       end_linecap_type="round" />
    <inkscape:path-effect
       effect="simplify"
       id="path-effect309"
       is_visible="true"
       lpeversion="1"
       steps="1"
       threshold="0.0032025118"
       smooth_angles="0"
       helper_size="0"
       simplify_individual_paths="false"
       simplify_just_coalesce="false"
       step="1" />
    <inkscape:path-effect
       effect="powerstroke"
       id="path-effect304"
       is_visible="true"
       lpeversion="1"
       offset_points="2.1200156,5.4197079"
       not_jump="true"
       sort_points="true"
       interpolator_type="CentripetalCatmullRom"
       interpolator_beta="0.75"
       start_linecap_type="round"
       linejoin_type="spiro"
       miter_limit="4"
       scale_width="1"
       end_linecap_type="round" />
    <inkscape:path-effect
       effect="simplify"
       id="path-effect302"
       is_visible="true"
       lpeversion="1"
       steps="1"
       threshold="0.0032025118"
       smooth_angles="0"
       helper_size="0"
       simplify_individual_paths="false"
       simplify_just_coalesce="false"
       step="1" />
    <inkscape:path-effect
       effect="powerstroke"
       id="path-effect297"
       is_visible="true"
       lpeversion="1"
       offset_points="0.1402108,7.960196"
       not_jump="true"
       sort_points="true"
       interpolator_type="CentripetalCatmullRom"
       interpolator_beta="0.75"
       start_linecap_type="round"
       linejoin_type="spiro"
       miter_limit="4"
       scale_width="1"
       end_linecap_type="round" />
    <inkscape:path-effect
       effect="simplify"
       id="path-effect295"
       is_visible="true"
       lpeversion="1"
       steps="1"
       threshold="0.0032025118"
       smooth_angles="0"
       helper_size="0"
       simplify_individual_paths="false"
       simplify_just_coalesce="false"
       step="1" />
    <inkscape:path-effect
       effect="powerstroke"
       id="path-effect290"
       is_visible="true"
       lpeversion="1"
       offset_points="1.7787501,8.1295619"
       not_jump="true"
       sort_points="true"
       interpolator_type="CentripetalCatmullRom"
       interpolator_beta="0.75"
       start_linecap_type="round"
       linejoin_type="spiro"
       miter_limit="4"
       scale_width="1"
       end_linecap_type="round" />
    <inkscape:path-effect
       effect="simplify"
       id="path-effect288"
       is_visible="true"
       lpeversion="1"
       steps="1"
       threshold="0.0032025118"
       smooth_angles="0"
       helper_size="0"
       simplify_individual_paths="false"
       simplify_just_coalesce="false"
       step="1" />
    <inkscape:path-effect
       effect="powerstroke"
       id="path-effect283"
       is_visible="true"
       lpeversion="1"
       offset_points="1.6716545,8.1295619"
       not_jump="true"
       sort_points="true"
       interpolator_type="CentripetalCatmullRom"
       interpolator_beta="0.75"
       start_linecap_type="round"
       linejoin_type="spiro"
       miter_limit="4"
       scale_width="1"
       end_linecap_type="round" />
    <inkscape:path-effect
       effect="simplify"
       id="path-effect281"
       is_visible="true"
       lpeversion="1"
       steps="1"
       threshold="0.0032025118"
       smooth_angles="0"
       helper_size="0"
       simplify_individual_paths="false"
       simplify_just_coalesce="false"
       step="1" />
  </defs>
  <g
     inkscape:label="Camada 1"
     inkscape:groupmode="layer"
     id="layer1"
     transform="translate(-46.433296,-125.95215)">
    <path
       style="fill:#000000;stroke:none;stroke-width:1px;stroke-linecap:butt;stroke-linejoin:miter;stroke-opacity:1"
       d="M 372.80763,577.64699 432.21105,432.21105"
       id="path364" />
    <path
       style="fill:#000000;stroke:none;stroke-width:1px;stroke-linecap:butt;stroke-linejoin:miter;stroke-opacity:1"
       d="m 323.64619,340.03334 93.2019,-119.83103"
       id="path1698" />
    <rect
       style="fill:#ff0000;stroke-width:0.283668"
       id="rect2362"
       width="121.79257"
       height="62.59763"
       x="46.433296"
       y="125.95215" />
    <path
       d="m 129.55184,136.02326 c -2.29444,0.60407 -4.86983,1.655 -7.95158,3.56591 -2.27468,1.41047 -4.34264,2.96992 -6.90233,4.94454 -0.005,0.004 -0.0104,0.008 -0.0155,0.0122 -2.16225,1.7188 -4.00065,3.05314 -6.86382,5.17556 -0.31488,0.17107 -0.59311,0.40169 -0.81693,0.65283 -0.12658,0.14203 -0.24668,0.30285 -0.34933,0.47944 -0.099,0.17031 -0.19329,0.37516 -0.25313,0.60724 -0.034,0.1317 -0.0591,0.28121 -0.0637,0.44378 -0.003,0.12034 0.004,0.25216 0.0306,0.39093 0.0299,0.15815 0.0834,0.32359 0.16925,0.48663 0.0838,0.15926 0.19288,0.30575 0.3252,0.43416 0.12824,0.12445 0.27004,0.22395 0.41723,0.30152 0.14268,0.0752 0.28834,0.12873 0.43077,0.16618 0.24153,0.0635 0.48823,0.0846 0.72901,0.08 2.0012,0.14106 3.81287,-0.03 6.1321,-0.20866 0.0341,-0.003 0.068,-0.007 0.10177,-0.0117 0.49038,-0.0754 0.94102,-0.21655 1.35718,-0.38266 0.39635,-0.1582 0.76886,-0.34225 1.10806,-0.51207 0.33673,-0.16857 0.63165,-0.31841 0.92613,-0.44485 0.28093,-0.12063 0.53575,-0.20832 0.78116,-0.25863 l -1.58776,-1.00331 c -0.0157,-0.0637 -0.0266,-0.16059 -0.008,-0.27645 0.0186,-0.11413 0.0596,-0.20687 0.10005,-0.27226 0.038,-0.0613 0.0668,-0.0873 0.0702,-0.0904 0.003,-0.003 -0.0165,0.0145 -0.057,0.0421 -0.0796,0.0543 -0.23512,0.14233 -0.43561,0.26415 -0.0955,0.058 -0.21168,0.13127 -0.32902,0.21681 -0.082,0.0598 -0.17478,0.13286 -0.26883,0.22038 -4.0208,2.85551 -8.39706,5.71225 -13.20392,7.59932 -0.01,0.004 -0.0194,0.008 -0.029,0.0118 -5.011014,2.10205 -10.976212,4.24071 -16.173855,7.15777 -0.01013,0.006 -0.02018,0.0115 -0.03016,0.0174 -0.56103,0.33411 -1.18138,0.70636 -1.778436,1.12163 -0.590323,0.41058 -1.190651,0.88511 -1.738286,1.45391 -0.206053,0.21402 -0.412093,0.43764 -0.528588,0.71093 -0.116496,0.2733 -0.133416,0.59304 -0.01861,0.86705 0.114806,0.27401 0.354596,0.48619 0.631113,0.59482 0.276516,0.10863 0.580421,0.11858 0.877491,0.1218 0.578799,0.006 1.118626,-0.10585 1.554106,-0.20985 0.477516,-0.11403 0.78581,-0.20433 1.129708,-0.26087 0.02631,-0.004 0.05249,-0.009 0.0785,-0.0153 4.932009,-1.11315 10.147849,-2.21539 15.158286,-3.86717 0.0185,-0.006 0.0369,-0.0126 0.0551,-0.0195 6.32413,-2.39173 12.1962,-5.70562 18.05074,-8.91644 2.64863,-1.46106 5.31171,-2.8974 8.0079,-4.25954 0.33501,-0.16925 0.67602,-0.35355 0.90984,-0.64716 0.11691,-0.1468 0.2049,-0.3177 0.24792,-0.50037 0.043,-0.18267 0.0403,-0.37626 -0.0105,-0.5569 -0.0509,-0.18064 -0.1496,-0.34718 -0.28162,-0.48056 -0.13201,-0.13339 -0.29625,-0.23327 -0.47258,-0.2975 -0.35267,-0.12846 -0.73974,-0.10775 -1.11384,-0.0773 -0.14163,0.0115 -0.29774,0.006 -0.47707,-0.0164 -0.18124,-0.023 -0.3765,-0.0626 -0.59935,-0.11671 -0.43203,-0.10481 -0.93722,-0.26379 -1.52828,-0.37355 -1.27371,-0.30157 -2.60113,-0.63006 -3.93759,-0.89109 -1.36085,-0.26579 -2.76232,-0.46841 -4.1993,-0.51205 l 1.02448,0.51745 c 0.0364,0.0463 0.0792,0.11212 0.11561,0.19827 0.037,0.0876 0.0633,0.18657 0.0731,0.29294 0.01,0.10598 0.002,0.20417 -0.0158,0.28974 -0.0174,0.0841 -0.0429,0.15055 -0.0659,0.19888 -0.0459,0.0968 -0.0772,0.12435 -0.0767,0.12372 5.8e-4,-6.3e-4 0.0292,-0.0293 0.0767,-0.0678 0.11342,-0.0919 0.24655,-0.18086 0.44929,-0.32086 0.0903,-0.0624 0.19736,-0.13724 0.29984,-0.21593 0.0675,-0.0518 0.14993,-0.11803 0.23443,-0.19656 0.70476,-0.50273 1.44874,-1.00416 2.18902,-1.55257 0.77543,-0.57445 1.55142,-1.20484 2.26156,-1.94561 0.32001,-0.32728 0.70811,-0.67252 1.11146,-1.06815 0.4075,-0.39971 0.84437,-0.86746 1.20634,-1.43324 0.13103,-0.20482 0.26058,-0.41547 0.32307,-0.65045 0.0625,-0.23498 0.053,-0.49171 -0.0462,-0.71369 -0.0992,-0.22198 -0.28422,-0.40025 -0.50099,-0.5104 -0.21677,-0.11015 -0.46013,-0.15411 -0.70013,-0.19307 -0.1995,-0.0324 -0.37233,-0.0222 -0.48034,-0.011 -0.1151,0.012 -0.2162,0.0322 -0.28594,0.0476 -0.0687,0.0152 -0.13681,0.0326 -0.16627,0.04 -0.019,0.005 -0.0272,0.007 -0.0313,0.008 -0.002,5.4e-4 0.004,-0.001 0.029,-0.005 0.0169,-0.003 0.0764,-0.0127 0.15876,-0.0145 0.0431,-9.2e-4 0.10952,-8e-5 0.19054,0.0106 0.0784,0.0103 0.20081,0.0336 0.34107,0.093 0.0723,0.0306 0.15417,0.0729 0.23877,0.13154 0.0854,0.0591 0.17243,0.13425 0.25309,0.22823 0.0813,0.0947 0.14988,0.20138 0.20277,0.31757 0.0527,0.11579 0.0853,0.23119 0.10303,0.34043 0.0348,0.2148 0.0103,0.3945 -0.0171,0.51268 -0.0277,0.11903 -0.0666,0.21053 -0.0941,0.26755 -0.0527,0.10931 -0.10712,0.18069 -0.1231,0.20139 -0.0238,0.0308 -0.0331,0.04 -0.0334,0.0402 -5.2e-4,5.6e-4 0.0345,-0.0353 0.0926,-0.089 1.31838,-1.21633 2.76666,-2.41325 4.11788,-3.5574 0.0584,-0.008 0.11801,-0.0166 0.17774,-0.0271 0.1235,-0.0217 0.26354,-0.0528 0.40861,-0.0998 0.14515,-0.0471 0.31525,-0.11642 0.4865,-0.22276 0.17527,-0.10884 0.36446,-0.26448 0.5226,-0.48448 0.16413,-0.22834 0.26932,-0.49113 0.30943,-0.7707 0.0394,-0.27453 0.0113,-0.52986 -0.0431,-0.74869 -0.0546,-0.21949 -0.14038,-0.42096 -0.23538,-0.60055 l 0.10645,1.00096 c -0.0157,0.0556 -0.0419,0.10839 -0.073,0.15201 -0.0298,0.0417 -0.0549,0.0622 -0.0589,0.0654 -0.004,0.003 0.0123,-0.009 0.0499,-0.0292 0.0401,-0.021 0.0952,-0.0462 0.17168,-0.0767 0.15223,-0.0607 0.3661,-0.13066 0.61171,-0.22281 0.12383,-0.0465 0.26222,-0.10166 0.40277,-0.16773 0.11155,-0.0524 0.2319,-0.11517 0.35372,-0.19118 0.47101,-0.22297 1.00017,-0.43684 1.535,-0.68999 0.61989,-0.29341 1.23785,-0.63628 1.80048,-1.11182 0.0855,-0.0722 0.16165,-0.15478 0.22681,-0.24573 0.0609,-0.085 0.12468,-0.18833 0.17908,-0.30965 0.0554,-0.12362 0.10563,-0.27605 0.12742,-0.45284 0.0226,-0.18359 0.013,-0.38213 -0.0428,-0.58295 -0.0567,-0.20386 -0.15176,-0.37721 -0.26184,-0.5178 -0.10942,-0.13976 -0.22864,-0.24115 -0.33197,-0.31321 -0.10497,-0.0732 -0.20559,-0.12458 -0.28865,-0.16074 -0.16531,-0.072 -0.31923,-0.10865 -0.42441,-0.12898 -0.11569,-0.0224 -0.22316,-0.0344 -0.30727,-0.0415 -0.0898,-0.008 -0.17267,-0.0113 -0.2367,-0.0134 -0.0623,-0.002 -0.1321,-0.003 -0.16053,-0.004 -0.0197,-4.5e-4 -0.0297,-7.7e-4 -0.0347,-9.8e-4 -0.004,-1.5e-4 0.001,-3.7e-4 0.0286,0.002 a 1.354927,1.354927 90 0 0 -0.25978,2.69738 c 0.0483,0.005 0.0916,0.007 0.12044,0.008 0.0299,0.001 0.0592,0.002 0.0835,0.003 0.0521,0.001 0.0889,0.002 0.13318,0.003 0.0396,0.001 0.0715,0.003 0.0968,0.005 0.0226,0.002 0.0356,0.005 0.0221,0.002 -0.003,-6.3e-4 -0.0601,-0.0109 -0.1431,-0.0471 -0.043,-0.0187 -0.10691,-0.0503 -0.17974,-0.10115 -0.0718,-0.05 -0.16375,-0.12679 -0.25155,-0.23892 -0.0888,-0.11344 -0.16801,-0.25669 -0.21538,-0.42713 -0.0467,-0.16797 -0.0535,-0.33039 -0.0358,-0.47424 0.017,-0.1379 0.0543,-0.24605 0.0894,-0.32436 0.0338,-0.0754 0.0685,-0.12883 0.0907,-0.15974 0.0652,-0.0909 0.14136,-0.17351 0.22681,-0.24573 -0.3087,0.26091 -0.69154,0.48645 -1.21053,0.7321 -0.46557,0.22037 -1.01933,0.44088 -1.62786,0.73435 -0.0617,0.0298 -0.12102,0.0641 -0.17749,0.10284 -0.002,0.002 -0.0285,0.0182 -0.077,0.041 -0.0498,0.0234 -0.11426,0.0501 -0.20174,0.0829 -0.1667,0.0625 -0.39457,0.13557 -0.6639,0.24301 -0.12955,0.0517 -0.27614,0.11514 -0.42554,0.19345 -0.14738,0.0772 -0.31043,0.17559 -0.47103,0.30237 -0.15979,0.12614 -0.32327,0.28524 -0.46665,0.48584 -0.14339,0.20062 -0.2579,0.43066 -0.33064,0.68882 -0.0471,0.16732 -0.0866,0.34054 -0.0682,0.5134 0.0184,0.17285 0.0933,0.33392 0.17463,0.48757 0.0207,0.0391 0.0124,0.0331 0.001,-0.0118 -0.0115,-0.0463 -0.0299,-0.14978 -0.01,-0.29075 0.0212,-0.14747 0.0792,-0.29626 0.1726,-0.42618 0.0881,-0.1226 0.1843,-0.19627 0.24824,-0.23598 0.0641,-0.0398 0.0993,-0.0503 0.10742,-0.0529 0.008,-0.003 -0.009,0.003 -0.0424,0.009 -0.0776,0.0137 -0.18329,0.0235 -0.34364,0.0336 -0.14593,0.009 -0.29364,0.0247 -0.42922,0.0795 -0.13558,0.0548 -0.25264,0.14619 -0.36399,0.24097 -1.38718,1.18068 -3.04806,2.54325 -4.5269,3.90761 -0.0837,0.0772 -0.16693,0.15722 -0.23994,0.23576 -0.0366,0.0394 -0.0813,0.0898 -0.12636,0.14813 -0.0396,0.0512 -0.11046,0.148 -0.17324,0.2782 -0.0325,0.0674 -0.0748,0.16823 -0.10442,0.2955 -0.0294,0.12642 -0.0543,0.31333 -0.0185,0.53435 0.0182,0.11235 0.0517,0.23062 0.10559,0.34904 0.0541,0.11883 0.12425,0.22795 0.20739,0.3248 0.0825,0.0962 0.1718,0.17322 0.25969,0.23412 0.0871,0.0604 0.17185,0.10419 0.24728,0.13616 0.14656,0.0621 0.27644,0.0873 0.36357,0.0987 0.0897,0.0118 0.16588,0.013 0.21987,0.0119 0.10403,-0.002 0.18942,-0.0151 0.23565,-0.0229 0.0512,-0.009 0.096,-0.0185 0.12651,-0.0255 0.0314,-0.007 0.0612,-0.0146 0.0824,-0.0199 0.0504,-0.0126 0.0705,-0.0178 0.0918,-0.0225 0.0199,-0.004 0.0106,-0.001 -0.0166,0.001 -0.0206,0.002 -0.10971,0.011 -0.23545,-0.009 -0.24,-0.039 -0.48336,-0.0829 -0.70013,-0.19307 -0.21677,-0.11015 -0.40176,-0.28842 -0.50099,-0.5104 -0.0992,-0.22198 -0.10868,-0.47871 -0.0462,-0.71369 0.0625,-0.23498 0.19204,-0.44563 0.32307,-0.65045 -0.19968,0.31212 -0.46868,0.61324 -0.82123,0.95905 -0.3406,0.33408 -0.74371,0.69061 -1.1571,1.114 -0.003,0.003 -0.006,0.006 -0.009,0.009 -0.56363,0.58857 -1.20739,1.11782 -1.92231,1.64744 -0.70273,0.5206 -1.46366,1.03205 -2.23823,1.58729 -0.0721,0.0517 -0.139,0.11036 -0.19965,0.17514 0.0243,-0.0259 0.0264,-0.023 -0.0228,0.0148 -0.0448,0.0344 -0.10429,0.0767 -0.18937,0.13545 -0.1462,0.10095 -0.39804,0.26917 -0.61505,0.44493 -0.11387,0.0922 -0.24391,0.20654 -0.36748,0.34116 -0.12069,0.13148 -0.26449,0.31378 -0.375,0.54655 -0.0569,0.11977 -0.10752,0.25815 -0.13987,0.41462 -0.0326,0.15788 -0.0454,0.32882 -0.0288,0.50791 0.0165,0.17945 0.0611,0.35187 0.12928,0.51322 0.0676,0.15988 0.15447,0.29971 0.24918,0.42032 0.12384,0.15768 0.26069,0.31205 0.43965,0.40244 0.17897,0.0904 0.38443,0.10893 0.58483,0.11501 1.23992,0.0377 2.48586,0.21378 3.76211,0.46305 1.28005,0.25001 2.54295,0.56333 3.86664,0.87647 0.0234,0.006 0.0469,0.0104 0.0705,0.0147 0.38562,0.0698 0.85604,0.2131 1.40923,0.34731 0.27386,0.0664 0.57694,0.13092 0.89711,0.17155 0.32211,0.0409 0.67045,0.0589 1.03784,0.029 l -0.72079,-2.55982 c -2.73778,1.38315 -5.4329,2.83706 -8.0919,4.30384 -5.90008,3.23579 -11.57889,6.43683 -17.67605,8.74586 -4.815611,1.58756 -9.861718,2.65629 -14.842079,3.78001 -0.459466,0.0788 -0.958821,0.21592 -1.277656,0.29206 -0.389832,0.0931 -0.663092,0.13839 -0.895347,0.13588 l 0.961413,2.29459 c 0.386271,-0.4012 0.835789,-0.76259 1.333458,-1.10873 0.504236,-0.35071 1.042932,-0.67569 1.602645,-1.00908 4.997979,-2.805 10.664502,-4.82604 15.866406,-7.00751 5.15781,-2.02716 9.77952,-5.07044 13.85623,-7.96927 0.0731,-0.052 0.14083,-0.11106 0.20223,-0.17641 -0.0196,0.0208 -0.0236,0.0205 0.006,-9.2e-4 0.029,-0.0211 0.0722,-0.0496 0.13992,-0.0908 0.0987,-0.06 0.36176,-0.20934 0.55453,-0.34072 0.11328,-0.0772 0.24352,-0.17405 0.37168,-0.29268 0.13005,-0.12039 0.27154,-0.27561 0.39296,-0.47172 0.12587,-0.2033 0.22583,-0.44389 0.27059,-0.71881 0.0454,-0.27887 0.0272,-0.55163 -0.0357,-0.80701 -0.0434,-0.17617 -0.0895,-0.35356 -0.17345,-0.51443 -0.0839,-0.16086 -0.20614,-0.3032 -0.35952,-0.40012 -0.15338,-0.0969 -0.33441,-0.14622 -0.51572,-0.15294 -0.18131,-0.007 -0.36134,0.0277 -0.53907,0.0642 -0.48582,0.0996 -0.92415,0.25926 -1.30606,0.42326 -0.38475,0.1652 -0.76301,0.35799 -1.07006,0.51171 -0.33987,0.17015 -0.62077,0.30719 -0.89951,0.41845 -0.26466,0.10563 -0.49838,0.17565 -0.71914,0.21367 -2.38388,0.18401 -3.97134,0.32942 -5.73888,0.19851 -0.0533,-0.004 -0.10673,-0.005 -0.1601,-0.002 -0.0733,0.003 -0.0665,-0.006 -0.008,0.009 0.0324,0.009 0.0825,0.0251 0.14359,0.0573 0.0635,0.0335 0.13564,0.0823 0.20659,0.15113 0.0735,0.0713 0.13666,0.15542 0.1857,0.24862 0.05,0.0951 0.0796,0.18853 0.0954,0.27227 0.0138,0.073 0.0169,0.13713 0.0154,0.18871 -0.002,0.0693 -0.0123,0.12236 -0.021,0.15614 -0.0161,0.0626 -0.0285,0.0787 -0.0281,0.0781 3.5e-4,-6e-4 0.0123,-0.0189 0.0296,-0.0384 0.0359,-0.0403 0.0979,-0.0795 0.0868,-0.0743 l 0.23146,-0.13823 c 2.88834,-2.14169 4.79099,-3.52139 7.01799,-5.29136 2.5543,-1.97039 4.52401,-3.45204 6.66742,-4.78111 2.87411,-1.78216 5.20264,-2.719 7.21344,-3.24839 a 1.354927,1.354927 90 0 0 -0.68992,-2.62056 z"
       id="path-1"
       inkscape:path-effect="#path-effect2478;#path-effect2480"
       inkscape:original-d="m 129.8968,137.33354 c -6.91144,1.79436 -12.68759,7.12996 -18.42701,11.38138 -4.51686,3.34583 -6.71313,4.22954 2.70986,3.52281 1.53921,-0.11544 2.83832,-1.25155 4.33576,-1.62591 0.17527,-0.0438 0.14701,0.43697 0,0.54197 -3.73205,2.66576 -7.5293,5.30793 -11.65237,7.31661 -5.49357,2.67635 -18.589951,6.93758 -22.491788,10.83941 -0.127744,0.12775 0.365616,0.0392 0.541971,0 2.902348,-0.64496 13.754306,-2.94113 17.885037,-4.60675 8.87696,-3.57942 16.49473,-8.51835 24.93066,-12.73631 0.16158,-0.0808 -0.36457,0.0341 -0.54197,0 -2.22743,-0.42835 -7.19189,-1.8969 -10.02646,-1.8969 -1.98106,0 2.88406,-2.71677 4.33576,-4.06478 8.0002,-7.42876 -3.05075,1.4138 7.31661,-7.31661 0.28488,-0.23989 0.99361,0.0903 1.08394,-0.27098 0.0876,-0.35053 -0.29137,-0.87028 0,-1.08394 0.77389,-0.56752 7.53756,-2.98084 4.33577,-2.98084"
       style="fill:#000000;fill-rule:nonzero;stroke:none;stroke-width:1px;stroke-linecap:butt;stroke-linejoin:miter;stroke-opacity:1" />
    <path
       style="fill:#000000;stroke:none;stroke-opacity:1;stroke-linejoin:miter;stroke-linecap:butt;stroke-width:1px"
       d="m 73.742169,148.50854 39.943671,2.04839"
       id="path2484" />
    <path
       d="m 102.53169,135.81882 c -0.53115,0.22956 -1.25685,0.49533 -2.18163,0.86229 -0.652617,0.25896 -1.519824,0.62095 -2.350109,1.1204 -0.02401,0.0144 -0.04757,0.0296 -0.07064,0.0455 -2.634099,1.816 -5.588896,3.7077 -9.04217,5.75465 -0.245649,0.12503 -0.524547,0.23385 -0.857497,0.34413 -0.33039,0.10943 -0.702905,0.21535 -1.108511,0.34179 -0.385711,0.12023 -0.824117,0.26711 -1.259671,0.46502 -0.428499,0.19471 -0.877385,0.44871 -1.303859,0.80146 -0.01769,0.0146 -0.035,0.0297 -0.05192,0.0452 -0.185995,0.17048 -0.362843,0.37362 -0.515574,0.59938 -0.07689,0.11366 -0.150247,0.23688 -0.216286,0.36856 -0.06216,0.12396 -0.120974,0.26167 -0.169697,0.41128 -0.0907,0.27851 -0.158612,0.63646 -0.113992,1.035 0.02141,0.19121 0.06884,0.3913 0.151816,0.59167 0.08059,0.1946 0.191027,0.38046 0.332047,0.55179 0.05959,0.0724 0.126559,0.13843 0.199788,0.197 0.301223,0.24094 0.624929,0.41229 0.953146,0.53466 0.308224,0.11491 0.613427,0.18407 0.896906,0.23081 0.533944,0.088 1.012271,0.10788 1.348557,0.15964 0.04247,0.007 0.08523,0.0111 0.128138,0.0135 0.592084,0.0341 1.211156,0.20996 1.985487,0.51861 0.02214,0.009 0.04452,0.0171 0.0671,0.0247 1.253634,0.42453 2.519696,0.68802 3.670744,1.03336 0.560423,0.16814 1.087655,0.35283 1.578059,0.57926 0.479957,0.2216 0.921582,0.48181 1.321582,0.80323 0.05301,0.0426 0.109156,0.0811 0.167952,0.1153 -0.0065,-0.004 0.0084,0.005 0.02729,0.0202 0.01977,0.0158 0.04121,0.0351 0.06101,0.0555 0.02002,0.0207 0.03197,0.0359 0.03664,0.0425 0.0035,0.005 -0.0046,-0.003 -0.02317,-0.0461 -0.01561,-0.0364 -0.05086,-0.12967 -0.05742,-0.26835 -0.0034,-0.0717 8.37e-4,-0.1578 0.02123,-0.25317 0.02058,-0.0962 0.05606,-0.19433 0.108602,-0.28865 0.05234,-0.094 0.115323,-0.17287 0.181263,-0.23657 0.06455,-0.0624 0.127802,-0.10607 0.178817,-0.13513 0.101584,-0.0579 0.151519,-0.062 0.141652,-0.0602 -0.03963,0.007 -0.07892,0.0161 -0.11775,0.0267 -0.605525,0.16611 -1.226597,0.22683 -2.039245,0.32309 -0.729539,0.0864 -1.607686,0.20226 -2.478065,0.51828 -2.640383,0.75301 -5.369236,1.40092 -8.126035,2.12682 -2.730226,0.7189 -5.513876,1.52298 -8.231787,2.60121 -0.0094,0.004 -0.01866,0.008 -0.02793,0.0114 -1.409449,0.59582 -2.712824,1.34407 -3.955002,2.09996 -1.247422,0.75909 -2.394858,1.50095 -3.602872,2.17218 -0.455314,0.23249 -0.877756,0.39082 -1.477766,0.65652 -0.552837,0.2448 -1.188263,0.55566 -1.77522,1.01968 -0.08973,0.0709 -0.177958,0.14546 -0.247163,0.23653 -0.06921,0.0911 -0.11738,0.19604 -0.16169,0.30149 -0.05172,0.12307 -0.09673,0.26469 -0.122036,0.42236 -0.02559,0.1594 -0.03062,0.33311 -0.0032,0.51453 0.02765,0.18269 0.08564,0.35562 0.16912,0.51358 0.08263,0.15635 0.183381,0.28526 0.286315,0.38953 0.199228,0.20182 0.41664,0.32172 0.576368,0.39348 0.164503,0.0739 0.324129,0.12158 0.452914,0.15391 0.246851,0.062 0.51145,0.0979 0.660429,0.11971 0.08863,0.013 0.146691,0.0219 0.191708,0.0303 0.05086,0.01 0.03925,0.0102 -0.0029,-0.005 l 0.271103,0.0644 c 1.486259,0.19486 2.947994,0.12677 4.347382,-0.0668 1.404829,-0.19433 2.779448,-0.52033 4.06693,-0.85071 0.0078,-0.002 0.01561,-0.004 0.02338,-0.006 5.060884,-1.39547 9.857839,-3.45473 14.335499,-5.82945 3.266184,-1.7293 6.201447,-3.9172 8.843576,-6.18785 0.01782,-0.0153 0.03524,-0.0311 0.05224,-0.0473 0.218867,-0.20884 0.513605,-0.46221 0.814774,-0.74594 0.296179,-0.27904 0.642471,-0.62946 0.906651,-1.03129 0.17274,-0.26274 0.34358,-0.53625 0.40668,-0.84429 0.0315,-0.15402 0.0361,-0.31414 0.007,-0.46861 -0.0292,-0.15448 -0.0924,-0.30266 -0.18541,-0.42942 -0.093,-0.12677 -0.21538,-0.23152 -0.35396,-0.30577 -0.13858,-0.0743 -0.292687,-0.11797 -0.449075,-0.13411 -0.312775,-0.0323 -0.624949,0.0486 -0.927424,0.13449 0.03696,-0.0105 0.09736,-0.007 0.09198,-0.008 -0.0055,-0.001 -0.07099,-0.0191 -0.180322,-0.071 -0.111468,-0.0529 -0.26478,-0.13763 -0.45568,-0.23574 -0.166991,-0.0858 -0.386051,-0.1927 -0.636149,-0.27634 -2.458572,-1.08338 -4.936982,-2.39756 -7.147688,-3.58617 -0.18785,-0.12032 -0.375936,-0.21581 -0.520716,-0.28642 -0.177398,-0.0865 -0.328245,-0.15511 -0.444042,-0.21312 -0.12784,-0.0641 -0.196441,-0.1057 -0.234817,-0.13336 -0.03399,-0.0245 -0.0079,-0.0142 0.03379,0.0502 0.125063,0.19322 0.248762,0.39154 0.312209,0.61279 0.06345,0.22124 0.06254,0.46328 -0.02071,0.67785 -0.08325,0.21458 -0.245822,0.39389 -0.44188,0.51445 -0.196058,0.12056 -0.42115,0.18357 -0.6438,0.24187 -0.02476,0.006 0.02971,-0.005 0.140184,-0.004 0.120791,5.7e-4 0.350877,0.011 0.563818,0.001 a 1.354927,1.354927 90 0 0 -0.123994,-2.70702 c -0.06067,0.003 -0.190222,-0.003 -0.426999,-0.004 -0.173073,-8.2e-4 -0.493287,0.002 -0.839533,0.0928 -0.22265,0.0583 -0.447742,0.12131 -0.6438,0.24187 -0.196058,0.12056 -0.358629,0.29987 -0.44188,0.51445 -0.08325,0.21457 -0.08416,0.45661 -0.02071,0.67786 0.06345,0.22124 0.187146,0.41957 0.31221,0.61278 0.19301,0.29819 0.434692,0.51568 0.656523,0.67558 0.208782,0.1505 0.424124,0.26697 0.605603,0.35789 0.178232,0.0893 0.340145,0.16263 0.469977,0.22595 0.132818,0.0648 0.21121,0.10841 0.259851,0.1411 0.03688,0.0248 0.07496,0.0477 0.114094,0.0688 2.221261,1.19457 4.803189,2.56711 7.454357,3.73542 0.05066,0.0223 0.102656,0.0415 0.15567,0.0575 0.04658,0.014 0.122831,0.0452 0.269741,0.12066 0.134869,0.0693 0.309335,0.16782 0.532824,0.27385 0.210487,0.0999 0.496738,0.21984 0.831505,0.28404 0.343537,0.0659 0.738145,0.0732 1.158697,-0.0462 l -1.502322,-2.04771 c -0.08379,0.12745 -0.239169,0.30131 -0.500538,0.54755 -0.231971,0.21855 -0.514118,0.46068 -0.80085,0.73266 -2.541222,2.18174 -5.299537,4.227 -8.320345,5.82638 -4.343714,2.30369 -8.951307,4.27704 -13.775368,5.60834 -1.260235,0.32322 -2.509765,0.61625 -3.752934,0.78821 -1.200393,0.16606 -2.374744,0.21613 -3.522691,0.077 -0.0857,-0.0226 -0.163529,-0.0383 -0.224102,-0.0496 -0.104652,-0.0195 -0.212518,-0.0355 -0.297213,-0.0478 -0.197007,-0.0288 -0.307962,-0.0454 -0.3926,-0.0667 -0.03685,-0.009 -0.03197,-0.0108 -0.0022,0.003 0.02508,0.0113 0.127853,0.0594 0.241573,0.17461 0.06019,0.061 0.12548,0.14287 0.18106,0.24804 0.05644,0.10679 0.0958,0.22439 0.11438,0.34714 0.01838,0.12147 0.01383,0.23064 -5.81e-4,0.32042 -0.01413,0.0881 -0.03728,0.15502 -0.05531,0.19791 -0.04431,0.10545 -0.09248,0.21042 -0.16169,0.30149 -0.06921,0.0911 -0.157434,0.1656 -0.247163,0.23653 0.31411,-0.24832 0.698373,-0.44916 1.191886,-0.6677 0.443258,-0.19628 1.087642,-0.45083 1.637935,-0.7337 0.01271,-0.007 0.02532,-0.0133 0.03782,-0.0202 1.277736,-0.7088 2.545646,-1.52525 3.716346,-2.23765 1.207272,-0.73465 2.370435,-1.39722 3.587716,-1.91308 2.561596,-1.01517 5.216696,-1.78519 7.908341,-2.49393 2.729856,-0.71881 5.494377,-1.37409 8.228613,-2.1555 0.03402,-0.01 0.06764,-0.0208 0.100795,-0.0331 0.552854,-0.20601 1.161841,-0.29811 1.903435,-0.38596 0.702699,-0.0832 1.551894,-0.16419 2.38594,-0.3869 0.208245,-0.0429 0.434069,-0.115 0.651888,-0.23908 0.123433,-0.0703 0.247676,-0.15941 0.362831,-0.27066 0.116694,-0.11275 0.219977,-0.2442 0.30318,-0.39356 0.08349,-0.14989 0.14044,-0.30647 0.173987,-0.46332 0.03341,-0.15623 0.04212,-0.30544 0.03566,-0.44176 -0.01272,-0.26861 -0.08456,-0.49829 -0.159195,-0.6722 -0.07634,-0.17788 -0.170692,-0.33254 -0.261987,-0.46035 -0.09317,-0.13043 -0.19426,-0.24839 -0.294698,-0.35214 -0.101577,-0.10493 -0.209113,-0.20217 -0.318326,-0.28927 -0.08043,-0.0642 -0.166515,-0.12659 -0.256884,-0.18443 -0.584116,-0.45892 -1.199096,-0.81225 -1.813658,-1.09601 -0.647395,-0.29891 -1.305766,-0.52567 -1.935293,-0.71454 -1.291388,-0.38745 -2.508917,-0.64492 -3.547907,-0.99357 -0.831991,-0.33167 -1.742824,-0.62161 -2.732477,-0.6888 -0.529423,-0.0779 -0.953463,-0.0956 -1.257514,-0.14568 -0.171311,-0.0282 -0.295559,-0.0606 -0.39113,-0.0962 -0.09633,-0.0359 -0.159917,-0.0739 -0.207099,-0.11168 l 0.199788,0.197 c 0.02999,0.0365 0.0579,0.0817 0.07935,0.13353 0.02189,0.0529 0.03295,0.10247 0.03756,0.14366 0.0096,0.0854 -0.0053,0.11453 -0.0024,0.10565 0.0018,-0.005 0.0063,-0.0176 0.01536,-0.0356 0.0095,-0.0189 0.02227,-0.041 0.03847,-0.0649 0.02699,-0.0399 0.05652,-0.0748 0.08254,-0.1012 0.191497,-0.15291 0.410083,-0.28017 0.66535,-0.39616 0.281129,-0.12774 0.59271,-0.23521 0.945063,-0.34504 0.359636,-0.11211 0.749552,-0.22245 1.154135,-0.35646 0.418309,-0.13855 0.856236,-0.30426 1.287161,-0.52854 0.02204,-0.0115 0.04376,-0.0235 0.06513,-0.0362 3.499779,-2.07358 6.507097,-3.99716 9.197344,-5.85054 0.621265,-0.36937 1.302425,-0.6587 1.918195,-0.90304 0.85745,-0.34024 1.64299,-0.62814 2.25726,-0.89363 a 1.354927,1.354927 90 0 0 -1.0751,-2.48746 z"
       id="path-1-5"
       inkscape:path-effect="#path-effect2489;#path-effect2491"
       inkscape:original-d="m 103.06924,137.06255 c -6.707678,2.68307 -1.21264,0.3066 -13.27828,7.58759 -1.697919,1.02461 -4.804086,1.0279 -5.148722,2.98084 -0.268244,1.52005 2.904741,1.04741 4.335766,1.62591 2.815109,1.13803 6.38325,1.25336 8.400548,3.52281 0.948856,1.06747 -2.694307,0.95293 -4.064782,1.35493 -5.4053,1.58556 -10.977454,2.64838 -16.259124,4.60675 -2.805146,1.04011 -5.276637,2.82439 -7.858576,4.33577 -1.12428,0.65811 -4.480292,1.73431 -3.251825,2.16788 6.071256,2.1428 21.085584,-4.66289 26.285584,-8.12956 1.973058,-1.31537 5.358674,-3.81631 7.04562,-5.69069 0.120853,-0.13428 -0.376884,0.0734 -0.54197,0 -2.288993,-1.01733 -4.571072,-2.06071 -6.774636,-3.25183 -4.195973,-2.26809 -4.444475,-2.16788 -2.709854,-2.16788"
       style="fill:#000000;fill-rule:nonzero;stroke:none;stroke-width:1px;stroke-linecap:butt;stroke-linejoin:miter;stroke-opacity:1" />
    <path
       d="m 88.716578,147.25101 c 0.222695,0.0952 0.72816,0.29189 1.437289,0.34003 0.09783,0.007 0.208518,0.0111 0.33059,0.011 0.451816,-4.1e-4 1.030719,-0.0641 1.675692,-0.2813 0.661216,-0.2203 1.29487,-0.53643 1.927312,-0.93198 0.565602,-0.35375 1.09139,-0.74625 1.598537,-1.13683 0.510982,-0.39292 0.990855,-0.79433 1.448491,-1.16002 0.480399,-0.38387 0.909278,-0.70753 1.347034,-0.98682 0.228656,-0.13826 0.383723,-0.22061 0.519979,-0.27655 0.175032,-0.0719 0.264713,-0.075 0.293852,-0.0754 a 1.354927,1.354927 90 0 0 -0.03981,-2.70956 c -0.363551,0.005 -0.789181,0.0753 -1.283225,0.27818 -0.331913,0.13627 -0.630172,0.3051 -0.908301,0.47376 -0.0082,0.005 -0.01638,0.0101 -0.02449,0.0152 -0.563146,0.3581 -1.083394,0.75406 -1.59668,1.16422 -0.488818,0.3906 -0.95629,0.78094 -1.409516,1.12945 -0.493017,0.3797 -0.933531,0.70589 -1.382812,0.98689 -0.492616,0.3081 -0.931625,0.5202 -1.351123,0.65997 -0.334729,0.11272 -0.617711,0.14078 -0.817446,0.14096 -0.05444,5e-5 -0.102824,-0.002 -0.144532,-0.005 -0.292539,-0.0199 -0.485416,-0.0981 -0.556022,-0.12828 a 1.354927,1.354927 90 0 0 -1.064822,2.49188 z"
       id="path-1-8"
       inkscape:path-effect="#path-effect2496;#path-effect2498"
       inkscape:original-d="m 89.248989,146.00507 c 3.688945,1.52379 7.603606,-4.60675 10.02646,-4.60675"
       style="fill:#000000;fill-rule:nonzero;stroke:none;stroke-width:1px;stroke-linecap:butt;stroke-linejoin:miter;stroke-opacity:1" />
    <path
       style="fill:#000000;stroke:none;stroke-opacity:1;stroke-linejoin:miter;stroke-linecap:butt;stroke-width:1px"
       d="M 358.46888,168.99247 181.28283,190.5006"
       id="path2502" />
    <path
       d="m 146.8822,141.55298 c -0.21177,0.11091 -0.66459,0.34718 -1.08171,0.61381 -0.31593,0.20195 -0.70015,0.47503 -1.0715,0.83561 -2.73393,2.33857 -5.62032,5.17444 -8.84281,7.79361 -0.23883,0.1631 -0.51142,0.31026 -0.83019,0.45883 -0.34165,0.15924 -0.67945,0.29507 -1.0889,0.46746 -0.38524,0.16219 -0.81409,0.34902 -1.23579,0.57797 -0.4248,0.23063 -0.86039,0.51325 -1.26945,0.88087 -0.0931,0.084 -0.1778,0.17116 -0.25583,0.26134 -0.14776,0.17076 -0.2808,0.36288 -0.39338,0.57148 -0.15676,0.29045 -0.28525,0.6345 -0.34355,1.01218 -0.0542,0.35121 -0.0526,0.76751 0.0815,1.19447 0.0648,0.20648 0.16035,0.41377 0.29328,0.61163 0.13006,0.19359 0.29082,0.37046 0.48142,0.52442 0.0345,0.0279 0.0703,0.054 0.10736,0.0783 0.32652,0.21455 0.66739,0.36275 1.00715,0.46565 0.32477,0.0984 0.64464,0.15416 0.9437,0.18917 0.57507,0.0673 1.09276,0.0667 1.48685,0.10266 0.0288,0.003 0.0576,0.004 0.0865,0.005 0.76398,0.0207 1.48557,0.12977 2.12889,0.39367 0.0254,0.0104 0.0512,0.0201 0.0772,0.029 1.84225,0.62773 3.57327,1.1503 5.19843,1.92012 l -0.094,-2.39989 c -0.0839,0.0481 -0.20783,0.0984 -0.44163,0.17711 -0.19116,0.0644 -0.49591,0.15983 -0.78465,0.28466 -5.95385,2.20616 -11.10855,3.69633 -16.58978,6.22549 -0.0639,0.0295 -0.12538,0.0639 -0.18391,0.1029 1.59194,-1.06129 -8.90854,5.93903 -7.3166,4.87775 -0.0941,0.0627 -0.18809,0.12647 -0.27148,0.20286 -0.0834,0.0764 -0.15577,0.16535 -0.20913,0.26505 -0.0534,0.0997 -0.0872,0.20928 -0.10453,0.32104 -0.0173,0.11176 -0.0182,0.22532 -0.0182,0.33841 0,0.11293 0,0.20634 0,0.27098 a 1.354927,1.354927 90 0 0 2.70986,0 c 0,-0.0646 0,-0.15805 0,-0.27098 l -0.60335,1.12736 c 0.57797,-0.38531 6.27275,-4.18183 7.22822,-4.81881 5.33536,-2.45172 10.17918,-3.83104 16.33784,-6.11488 0.0272,-0.0101 0.054,-0.021 0.0804,-0.0328 0.15047,-0.0671 0.30342,-0.1143 0.59038,-0.21097 0.24109,-0.0812 0.58899,-0.20198 0.92451,-0.39437 0.23711,-0.13596 0.47627,-0.27957 0.65437,-0.48689 0.17811,-0.20732 0.28708,-0.47823 0.27639,-0.75134 -0.0107,-0.27311 -0.14051,-0.53467 -0.33428,-0.72743 -0.19377,-0.19276 -0.44343,-0.31723 -0.69044,-0.43424 -1.7951,-0.85033 -3.73895,-1.44242 -5.44775,-2.02366 -0.99439,-0.40806 -2.05401,-0.54882 -3.00028,-0.57773 -0.55313,-0.0484 -1.01872,-0.0499 -1.37488,-0.0916 -0.19331,-0.0226 -0.34636,-0.0528 -0.47329,-0.0912 -0.12847,-0.0389 -0.22571,-0.085 -0.30454,-0.13684 l 0.10736,0.0783 c 0.0205,0.0166 0.044,0.0409 0.0652,0.0724 0.0214,0.0318 0.0349,0.0626 0.0427,0.0877 0.0153,0.0488 0.006,0.0635 0.0112,0.0308 0.005,-0.0338 0.0209,-0.0844 0.0501,-0.13854 0.0197,-0.0366 0.0406,-0.0655 0.0579,-0.0854 0.009,-0.0102 0.0157,-0.0169 0.0198,-0.0206 0.20918,-0.18798 0.45658,-0.35438 0.74928,-0.51329 0.29763,-0.16159 0.62332,-0.30574 0.99435,-0.46195 0.35911,-0.15119 0.77917,-0.32098 1.18215,-0.5088 0.41829,-0.19496 0.85465,-0.42531 1.27633,-0.72053 0.0262,-0.0184 0.0518,-0.0377 0.0767,-0.0579 3.38181,-2.74441 6.27761,-5.59645 8.97155,-7.90083 0.0249,-0.0213 0.0489,-0.0434 0.0722,-0.0665 0.19966,-0.19754 0.42888,-0.36603 0.66243,-0.51532 0.30358,-0.19405 0.65486,-0.37886 0.87951,-0.49652 a 1.354927,1.354927 90 0 0 -1.2573,-2.40052 z"
       id="path-1-2"
       inkscape:path-effect="#path-effect2507;#path-effect2509"
       inkscape:original-d="m 147.51085,142.75324 c -0.45164,0.27099 -0.95285,0.47274 -1.35493,0.81296 -3.12666,2.64564 -6.06217,5.51336 -9.2135,8.12956 -1.64025,1.36172 -5.14872,1.66197 -5.14872,3.7938 0,1.79978 3.4455,1.04432 5.14872,1.62591 2.00109,0.6833 4.03339,1.30015 5.96168,2.16788 0.18419,0.0829 -0.35309,0.19944 -0.54197,0.27099 -5.7738,2.18705 -11.7372,3.91633 -17.34307,6.50365 -2.43887,1.62591 -4.87773,3.25182 -7.3166,4.87774 0,0.0903 0,0.18065 0,0.27098"
       style="fill:#000000;fill-rule:nonzero;stroke:none;stroke-width:1px;stroke-linecap:butt;stroke-linejoin:miter;stroke-opacity:1" />
  </g>
</svg>
