<?xml version="1.0" encoding="UTF-8" standalone="no"?>
<!-- Created with Inkscape (http://www.inkscape.org/) -->

<svg
   width="123.66803mm"
   height="123.72866mm"
   viewBox="0 0 123.66803 123.72866"
   version="1.1"
   id="svg5"
   inkscape:version="1.1 (c68e22c387, 2021-05-23)"
   sodipodi:docname="veneno.svg"
   xmlns:inkscape="http://www.inkscape.org/namespaces/inkscape"
   xmlns:sodipodi="http://sodipodi.sourceforge.net/DTD/sodipodi-0.dtd"
   xmlns="http://www.w3.org/2000/svg"
   xmlns:svg="http://www.w3.org/2000/svg">
  <sodipodi:namedview
     id="namedview7"
     pagecolor="#ffffff"
     bordercolor="#666666"
     borderopacity="1.0"
     inkscape:pageshadow="2"
     inkscape:pageopacity="0.0"
     inkscape:pagecheckerboard="0"
     inkscape:document-units="mm"
     showgrid="false"
     inkscape:zoom="0.97637486"
     inkscape:cx="311.35583"
     inkscape:cy="166.43198"
     inkscape:window-width="1366"
     inkscape:window-height="705"
     inkscape:window-x="-8"
     inkscape:window-y="-8"
     inkscape:window-maximized="1"
     inkscape:current-layer="layer1" />
  <defs
     id="defs2">
    <inkscape:path-effect
       effect="powerstroke"
       id="path-effect376"
       is_visible="true"
       lpeversion="1"
       offset_points="2.831902,2.709854"
       not_jump="true"
       sort_points="true"
       interpolator_type="CentripetalCatmullRom"
       interpolator_beta="0.75"
       start_linecap_type="round"
       linejoin_type="spiro"
       miter_limit="4"
       scale_width="1"
       end_linecap_type="round" />
    <inkscape:path-effect
       effect="simplify"
       id="path-effect374"
       is_visible="true"
       lpeversion="1"
       steps="1"
       threshold="0.0032025118"
       smooth_angles="0"
       helper_size="0"
       simplify_individual_paths="false"
       simplify_just_coalesce="false"
       step="1" />
    <inkscape:path-effect
       effect="powerstroke"
       id="path-effect369"
       is_visible="true"
       lpeversion="1"
       offset_points="2.9116368,2.709854"
       not_jump="true"
       sort_points="true"
       interpolator_type="CentripetalCatmullRom"
       interpolator_beta="0.75"
       start_linecap_type="round"
       linejoin_type="spiro"
       miter_limit="4"
       scale_width="1"
       end_linecap_type="round" />
    <inkscape:path-effect
       effect="simplify"
       id="path-effect367"
       is_visible="true"
       lpeversion="1"
       steps="1"
       threshold="0.0032025118"
       smooth_angles="0"
       helper_size="0"
       simplify_individual_paths="false"
       simplify_just_coalesce="false"
       step="1" />
    <inkscape:path-effect
       effect="powerstroke"
       id="path-effect360"
       is_visible="true"
       lpeversion="1"
       offset_points="1,2.709854"
       not_jump="true"
       sort_points="true"
       interpolator_type="CentripetalCatmullRom"
       interpolator_beta="0.75"
       start_linecap_type="round"
       linejoin_type="spiro"
       miter_limit="4"
       scale_width="1"
       end_linecap_type="round" />
    <inkscape:path-effect
       effect="simplify"
       id="path-effect358"
       is_visible="true"
       lpeversion="1"
       steps="1"
       threshold="0.0032025118"
       smooth_angles="0"
       helper_size="0"
       simplify_individual_paths="false"
       simplify_just_coalesce="false"
       step="1" />
    <inkscape:path-effect
       effect="powerstroke"
       id="path-effect353"
       is_visible="true"
       lpeversion="1"
       offset_points="1,2.709854"
       not_jump="true"
       sort_points="true"
       interpolator_type="CentripetalCatmullRom"
       interpolator_beta="0.75"
       start_linecap_type="round"
       linejoin_type="spiro"
       miter_limit="4"
       scale_width="1"
       end_linecap_type="round" />
    <inkscape:path-effect
       effect="simplify"
       id="path-effect351"
       is_visible="true"
       lpeversion="1"
       steps="1"
       threshold="0.0032025118"
       smooth_angles="0"
       helper_size="0"
       simplify_individual_paths="false"
       simplify_just_coalesce="false"
       step="1" />
    <inkscape:path-effect
       effect="powerstroke"
       id="path-effect346"
       is_visible="true"
       lpeversion="1"
       offset_points="2.5002058,2.709854"
       not_jump="true"
       sort_points="true"
       interpolator_type="CentripetalCatmullRom"
       interpolator_beta="0.75"
       start_linecap_type="round"
       linejoin_type="spiro"
       miter_limit="4"
       scale_width="1"
       end_linecap_type="round" />
    <inkscape:path-effect
       effect="simplify"
       id="path-effect344"
       is_visible="true"
       lpeversion="1"
       steps="1"
       threshold="0.0032025118"
       smooth_angles="0"
       helper_size="0"
       simplify_individual_paths="false"
       simplify_just_coalesce="false"
       step="1" />
    <inkscape:path-effect
       effect="powerstroke"
       id="path-effect339"
       is_visible="true"
       lpeversion="1"
       offset_points="1,2.709854"
       not_jump="true"
       sort_points="true"
       interpolator_type="CentripetalCatmullRom"
       interpolator_beta="0.75"
       start_linecap_type="round"
       linejoin_type="spiro"
       miter_limit="4"
       scale_width="1"
       end_linecap_type="round" />
    <inkscape:path-effect
       effect="simplify"
       id="path-effect337"
       is_visible="true"
       lpeversion="1"
       steps="1"
       threshold="0.0032025118"
       smooth_angles="0"
       helper_size="0"
       simplify_individual_paths="false"
       simplify_just_coalesce="false"
       step="1" />
    <inkscape:path-effect
       effect="powerstroke"
       id="path-effect332"
       is_visible="true"
       lpeversion="1"
       offset_points="2.0506614,2.709854"
       not_jump="true"
       sort_points="true"
       interpolator_type="CentripetalCatmullRom"
       interpolator_beta="0.75"
       start_linecap_type="round"
       linejoin_type="spiro"
       miter_limit="4"
       scale_width="1"
       end_linecap_type="round" />
    <inkscape:path-effect
       effect="simplify"
       id="path-effect330"
       is_visible="true"
       lpeversion="1"
       steps="1"
       threshold="0.0032025118"
       smooth_angles="0"
       helper_size="0"
       simplify_individual_paths="false"
       simplify_just_coalesce="false"
       step="1" />
    <inkscape:path-effect
       effect="powerstroke"
       id="path-effect325"
       is_visible="true"
       lpeversion="1"
       offset_points="2.6628953,2.709854"
       not_jump="true"
       sort_points="true"
       interpolator_type="CentripetalCatmullRom"
       interpolator_beta="0.75"
       start_linecap_type="round"
       linejoin_type="spiro"
       miter_limit="4"
       scale_width="1"
       end_linecap_type="round" />
    <inkscape:path-effect
       effect="simplify"
       id="path-effect323"
       is_visible="true"
       lpeversion="1"
       steps="1"
       threshold="0.0032025118"
       smooth_angles="0"
       helper_size="0"
       simplify_individual_paths="false"
       simplify_just_coalesce="false"
       step="1" />
    <inkscape:path-effect
       effect="powerstroke"
       id="path-effect318"
       is_visible="true"
       lpeversion="1"
       offset_points="0.41971207,2.709854"
       not_jump="true"
       sort_points="true"
       interpolator_type="CentripetalCatmullRom"
       interpolator_beta="0.75"
       start_linecap_type="round"
       linejoin_type="spiro"
       miter_limit="4"
       scale_width="1"
       end_linecap_type="round" />
    <inkscape:path-effect
       effect="simplify"
       id="path-effect316"
       is_visible="true"
       lpeversion="1"
       steps="1"
       threshold="0.0032025118"
       smooth_angles="0"
       helper_size="0"
       simplify_individual_paths="false"
       simplify_just_coalesce="false"
       step="1" />
    <inkscape:path-effect
       effect="powerstroke"
       id="path-effect311"
       is_visible="true"
       lpeversion="1"
       offset_points="0.84579674,2.709854"
       not_jump="true"
       sort_points="true"
       interpolator_type="CentripetalCatmullRom"
       interpolator_beta="0.75"
       start_linecap_type="round"
       linejoin_type="spiro"
       miter_limit="4"
       scale_width="1"
       end_linecap_type="round" />
    <inkscape:path-effect
       effect="simplify"
       id="path-effect309"
       is_visible="true"
       lpeversion="1"
       steps="1"
       threshold="0.0032025118"
       smooth_angles="0"
       helper_size="0"
       simplify_individual_paths="false"
       simplify_just_coalesce="false"
       step="1" />
    <inkscape:path-effect
       effect="powerstroke"
       id="path-effect304"
       is_visible="true"
       lpeversion="1"
       offset_points="2.1200156,5.4197079"
       not_jump="true"
       sort_points="true"
       interpolator_type="CentripetalCatmullRom"
       interpolator_beta="0.75"
       start_linecap_type="round"
       linejoin_type="spiro"
       miter_limit="4"
       scale_width="1"
       end_linecap_type="round" />
    <inkscape:path-effect
       effect="simplify"
       id="path-effect302"
       is_visible="true"
       lpeversion="1"
       steps="1"
       threshold="0.0032025118"
       smooth_angles="0"
       helper_size="0"
       simplify_individual_paths="false"
       simplify_just_coalesce="false"
       step="1" />
    <inkscape:path-effect
       effect="powerstroke"
       id="path-effect297"
       is_visible="true"
       lpeversion="1"
       offset_points="0.1402108,7.960196"
       not_jump="true"
       sort_points="true"
       interpolator_type="CentripetalCatmullRom"
       interpolator_beta="0.75"
       start_linecap_type="round"
       linejoin_type="spiro"
       miter_limit="4"
       scale_width="1"
       end_linecap_type="round" />
    <inkscape:path-effect
       effect="simplify"
       id="path-effect295"
       is_visible="true"
       lpeversion="1"
       steps="1"
       threshold="0.0032025118"
       smooth_angles="0"
       helper_size="0"
       simplify_individual_paths="false"
       simplify_just_coalesce="false"
       step="1" />
    <inkscape:path-effect
       effect="powerstroke"
       id="path-effect290"
       is_visible="true"
       lpeversion="1"
       offset_points="1.7787501,8.1295619"
       not_jump="true"
       sort_points="true"
       interpolator_type="CentripetalCatmullRom"
       interpolator_beta="0.75"
       start_linecap_type="round"
       linejoin_type="spiro"
       miter_limit="4"
       scale_width="1"
       end_linecap_type="round" />
    <inkscape:path-effect
       effect="simplify"
       id="path-effect288"
       is_visible="true"
       lpeversion="1"
       steps="1"
       threshold="0.0032025118"
       smooth_angles="0"
       helper_size="0"
       simplify_individual_paths="false"
       simplify_just_coalesce="false"
       step="1" />
    <inkscape:path-effect
       effect="powerstroke"
       id="path-effect283"
       is_visible="true"
       lpeversion="1"
       offset_points="1.6716545,8.1295619"
       not_jump="true"
       sort_points="true"
       interpolator_type="CentripetalCatmullRom"
       interpolator_beta="0.75"
       start_linecap_type="round"
       linejoin_type="spiro"
       miter_limit="4"
       scale_width="1"
       end_linecap_type="round" />
    <inkscape:path-effect
       effect="simplify"
       id="path-effect281"
       is_visible="true"
       lpeversion="1"
       steps="1"
       threshold="0.0032025118"
       smooth_angles="0"
       helper_size="0"
       simplify_individual_paths="false"
       simplify_just_coalesce="false"
       step="1" />
  </defs>
  <g
     inkscape:label="Camada 1"
     inkscape:groupmode="layer"
     id="layer1"
     transform="translate(-45.469481,-90.453058)">
    <circle
       style="fill:#00ffff;stroke-width:0.264583"
       id="path35"
       cx="107.31023"
       cy="152.29379"
       r="62.326641" />
    <path
       style="fill:#008000;stroke-width:2.04839"
       d="m 386.12219,808.80454 c -76.44794,-5.5364 -148.99962,-52.54625 -186.03953,-120.5443 -19.19977,-35.24703 -28.2295,-71.28395 -28.2295,-112.66164 0,-66.57406 24.1446,-123.026 72.3644,-169.19354 44.95641,-43.04304 98.69565,-64.53523 161.36437,-64.53523 66.56925,0 122.98156,24.12562 169.20778,72.3644 43.01651,44.88933 64.47017,98.58637 64.47017,161.36437 0,61.99449 -21.46317,116.15696 -63.64823,160.61689 -50.0237,52.72125 -115.81548,77.92458 -189.48946,72.58905 z"
       id="path208"
       transform="scale(0.26458333)" />
    <path
       d="m 83.919971,128.72373 c 0.307041,0.14688 0.701263,0.29334 1.181448,0.37796 0.351135,0.0619 0.701606,0.0826 1.052031,0.0707 0.566912,-0.0192 1.078482,-0.12368 1.438079,-0.19626 0.371238,-0.0749 0.499452,-0.0964 0.58784,-0.10056 0.01742,-8.3e-4 0.0089,6.9e-4 -0.01886,-0.002 -0.0084,-8.3e-4 -0.01874,-0.002 -0.03094,-0.004 -0.04993,-0.008 -0.123829,-0.0252 -0.206219,-0.062 l 0.165461,0.0674 c 3.257311,1.20397 6.924995,2.07074 11.128404,2.5174 3.7055,0.39376 7.4553,0.42243 11.17779,0.24277 7.30849,-0.35596 16.53335,-1.78199 18.97759,-2.13146 a 2.709854,2.709854 90 0 0 -0.76708,-5.36514 c -2.59457,0.37096 -11.48787,1.74304 -18.47297,2.08325 -3.52539,0.17015 -6.98546,0.13796 -10.342646,-0.21878 -3.765695,-0.40015 -6.970898,-1.16414 -9.758322,-2.1881 -0.385223,-0.16093 -0.751088,-0.25164 -1.075219,-0.30167 -0.08992,-0.0139 -0.176712,-0.0246 -0.259886,-0.0329 -0.278404,-0.0277 -0.538893,-0.0296 -0.774376,-0.0184 -0.57986,0.0276 -1.136492,0.14782 -1.402873,0.20159 -0.352424,0.0711 -0.523454,0.0914 -0.54915,0.0922 -0.01553,5.3e-4 0.02011,-7.3e-4 0.07193,0.008 0.07989,0.0141 0.155546,0.0411 0.216864,0.0705 a 2.709854,2.709854 90 0 0 -2.33889,4.88906 z"
       id="path-1"
       inkscape:path-effect="#path-effect309;#path-effect311"
       inkscape:original-d="m 85.089416,126.2792 c 1.157241,0.59204 2.609715,-0.44403 3.793796,0 12.371858,4.63944 26.996248,2.41477 40.105838,0.54197"
       style="fill:#000000;fill-rule:nonzero;stroke:none;stroke-width:1px;stroke-linecap:butt;stroke-linejoin:miter;stroke-opacity:1" />
    <path
       d="m 78.389173,130.99449 c 0.652213,0.59272 2.254216,2.03551 4.188947,3.4838 1.409393,1.05503 3.728758,2.67486 6.613214,4.0066 3.045745,1.4171 5.732143,2.0647 7.292249,2.37534 a 2.709854,2.709854 90 0 0 1.058382,-5.31536 c -1.30717,-0.26028 -3.541978,-0.80026 -6.071595,-1.97721 -2.402112,-1.10906 -4.377295,-2.4796 -5.644386,-3.42811 -1.723138,-1.28989 -3.172081,-2.59275 -3.791799,-3.15594 a 2.709854,2.709854 90 0 0 -3.645012,4.01088 z"
       id="path-1-4"
       inkscape:path-effect="#path-effect316;#path-effect318"
       inkscape:original-d="m 80.211679,128.98905 c 4.834804,4.38084 9.859398,7.82517 16.801095,9.2135"
       style="fill:#000000;fill-rule:nonzero;stroke:none;stroke-width:1px;stroke-linecap:butt;stroke-linejoin:miter;stroke-opacity:1" />
    <path
       d="m 113.85757,140.32423 c 0.77979,0.14587 4.15777,0.81741 6.16117,1.12361 1.86535,0.28509 4.1812,0.55352 6.63399,0.48098 2.17679,-0.0612 4.57309,-0.39311 7.00854,-1.16581 0.27991,-0.0888 0.5602,-0.19098 0.79753,-0.36393 0.23734,-0.17295 0.42045,-0.40847 0.59073,-0.64772 0.12638,-0.17756 0.25277,-0.39605 0.3523,-0.65915 0.10069,-0.26616 0.16836,-0.56471 0.18217,-0.8868 0.0138,-0.32213 -0.0279,-0.63032 -0.11019,-0.91365 -0.081,-0.27901 -0.19573,-0.51475 -0.31368,-0.70597 -0.22644,-0.36713 -0.48952,-0.6101 -0.65774,-0.74768 -0.17593,-0.14389 -0.33919,-0.24576 -0.44697,-0.30864 -0.14126,-0.0824 -0.27071,-0.14553 -0.33144,-0.175 -0.027,-0.0131 -0.0529,-0.0254 -0.0799,-0.0385 -0.0202,-0.01 -0.0172,-0.01 0.0346,0.0191 0.0247,0.0138 0.16923,0.0936 0.34123,0.23806 l -0.36968,-0.2612 c -0.31445,-0.18487 -0.52139,-0.28861 -0.54032,-0.30049 -0.009,-0.005 0.0246,0.0127 0.094,0.0751 0.0672,0.0604 0.16557,0.16273 0.25928,0.31216 0.0957,0.15256 0.18801,0.30843 0.25168,0.47687 0.0637,0.16844 0.0975,0.34642 0.12668,0.52412 0.0581,0.35408 0.0115,0.65228 -0.0447,0.84873 -0.0527,0.184 -0.0994,0.25527 -0.0957,0.24853 0.004,-0.007 0.0513,-0.0841 0.13829,-0.2288 0.0558,-0.0929 0.15265,-0.25564 0.25008,-0.45893 0.26894,-0.45835 0.71185,-1.17841 1.03753,-1.80596 0.38829,-0.74818 0.77302,-1.64316 0.95926,-2.6958 0.34077,-1.67035 0.26275,-3.37626 -0.20415,-4.94537 l 0.0273,0.0985 c 0.0137,0.0532 0.0346,0.14494 0.0494,0.26559 0.0142,0.1163 0.0289,0.30919 0.004,0.54965 -0.025,0.24011 -0.0977,0.60509 -0.31651,0.99801 -0.11228,0.20162 -0.25979,0.40423 -0.44858,0.59161 -0.19037,0.18896 -0.4048,0.34458 -0.63346,0.46503 -0.22776,0.11997 -0.45199,0.19587 -0.65728,0.24172 -0.20438,0.0456 -0.38949,0.0615 -0.54482,0.0631 -0.3028,0.003 -0.54245,-0.0471 -0.68625,-0.0855 -0.27696,-0.0738 -0.46324,-0.17613 -0.50829,-0.2009 -0.0774,-0.0426 -0.10036,-0.06 -0.1061,-0.0639 -0.006,-0.004 0.009,0.006 0.0345,0.025 0.0116,0.009 0.0799,0.0592 0.12036,0.0885 0.0271,0.0196 0.0645,0.0464 0.10722,0.0755 0.0154,0.0105 0.0344,0.0233 0.0564,0.0377 0.46053,0.32275 0.78539,0.54424 1.06927,0.73319 a 2.709854,2.709854 90 0 0 3.003,-4.51168 c -0.25008,-0.16646 -0.55079,-0.37132 -1.00913,-0.69297 -0.0588,-0.0413 -0.11925,-0.0802 -0.18117,-0.11667 0.0593,0.035 0.10061,0.0629 0.11382,0.0719 0.0177,0.0121 0.0219,0.0153 0.0188,0.0131 -0.006,-0.004 -0.039,-0.0288 -0.088,-0.0649 -0.0444,-0.0326 -0.11504,-0.0842 -0.19531,-0.13884 -0.0749,-0.051 -0.19174,-0.12778 -0.3326,-0.20522 -0.11642,-0.064 -0.37047,-0.19702 -0.70663,-0.28665 -0.17299,-0.0461 -0.4398,-0.10061 -0.76711,-0.0972 -0.16751,0.002 -0.36415,0.0188 -0.57932,0.0669 -0.21605,0.0482 -0.45031,0.12773 -0.6873,0.25256 -0.23787,0.1253 -0.46071,0.28704 -0.65863,0.48349 -0.19632,0.19485 -0.35049,0.40629 -0.4685,0.6182 -0.2302,0.41338 -0.31062,0.80463 -0.33904,1.07762 -0.0284,0.27309 -0.0129,0.50515 0.007,0.66796 0.0204,0.16683 0.0517,0.31199 0.0812,0.42673 0.008,0.033 0.0176,0.0658 0.0273,0.0985 0.21147,0.71067 0.25448,1.52193 0.0836,2.33956 -0.007,0.0334 -0.0133,0.0669 -0.019,0.10056 -0.0528,0.31075 -0.18302,0.6722 -0.43554,1.15878 -0.24762,0.47712 -0.60219,1.03983 -0.98424,1.70179 -0.0602,0.10434 -0.11343,0.21259 -0.15925,0.32402 0.0392,-0.0953 0.0699,-0.13754 0.0215,-0.0571 -0.0134,0.0222 -0.14524,0.23448 -0.23321,0.3931 -0.1066,0.19223 -0.26416,0.50091 -0.37509,0.88846 -0.11951,0.41753 -0.18852,0.93831 -0.093,1.52025 0.0291,0.1777 0.063,0.35568 0.12668,0.52412 0.0637,0.16844 0.15601,0.32431 0.25168,0.47687 0.22081,0.35209 0.47289,0.62648 0.70727,0.83736 0.23898,0.215 0.47146,0.37442 0.64994,0.48644 0.31951,0.20052 0.52707,0.30553 0.62343,0.35495 0.078,0.0502 0.14163,0.0864 0.1812,0.10851 0.10484,0.0586 0.20079,0.10532 0.24359,0.12609 0.0267,0.013 0.054,0.026 0.0808,0.039 0.0407,0.0197 0.0139,0.008 -0.0338,-0.0198 -0.0361,-0.0211 -0.13318,-0.0793 -0.25291,-0.17724 -0.11201,-0.0916 -0.32898,-0.28634 -0.52396,-0.60246 -0.1022,-0.16569 -0.20481,-0.37522 -0.27803,-0.62728 -0.0745,-0.25635 -0.11258,-0.53682 -0.1,-0.83044 0.0126,-0.29352 0.0742,-0.56273 0.16347,-0.7987 0.0881,-0.23283 0.19763,-0.42022 0.30125,-0.56581 0.17028,-0.23925 0.35339,-0.47477 0.59073,-0.64772 0.23733,-0.17295 0.51762,-0.27512 0.79753,-0.36393 -1.88851,0.59918 -3.77626,0.86511 -5.52578,0.9143 -1.98506,0.0587 -3.93406,-0.15741 -5.6589,-0.42103 -1.88744,-0.28847 -5.03109,-0.91526 -5.98346,-1.09341 a 2.709854,2.709854 90 0 0 -0.99654,5.3273 z"
       id="path-1-2"
       inkscape:path-effect="#path-effect323;#path-effect325"
       inkscape:original-d="m 114.35584,137.66058 c 6.2707,1.17754 11.85322,2.56468 18.42701,0.54197 0.73257,-0.2254 -1.93721,-0.92551 -1.62592,-1.62591 0.65626,-1.47658 1.77599,-2.76816 2.16789,-4.33576 1.06867,-4.27469 -1.68417,-5.45855 1.62591,-3.25183"
       style="fill:#000000;fill-rule:nonzero;stroke:none;stroke-width:1px;stroke-linecap:butt;stroke-linejoin:miter;stroke-opacity:1" />
    <path
       d="m 90.143673,138.62262 c 0.290368,0.76462 0.56764,1.78766 0.743914,3.39236 0.139499,1.26991 0.164323,2.21904 0.266087,3.97722 0.03585,1.86849 0.05309,4.02209 -0.08671,6.13069 -0.124042,1.87093 -0.378029,3.84611 -0.906268,5.79392 -0.03057,0.11271 -0.05382,0.2273 -0.0696,0.34302 -0.0045,0.0333 -0.0097,0.0637 -0.01531,0.0914 -0.02105,0.10447 -0.04696,0.16692 -0.06256,0.19702 -0.01594,0.0308 -0.01648,0.0197 0.01179,-0.003 0.02212,-0.018 0.05919,-0.0322 0.04743,-0.0291 -0.01089,0.003 -0.06882,0.0188 -0.214206,0.003 -0.26254,-0.0279 -0.527872,-0.0173 -0.787348,0.0314 -0.406172,0.0764 -0.82839,0.12783 -1.419452,0.20201 -0.510225,0.064 -1.16599,0.14756 -1.820979,0.28477 -0.635727,0.13318 -1.370209,0.33572 -2.109046,0.68394 -0.706449,0.33295 -1.424172,0.80231 -2.07265,1.47544 -0.684752,0.67033 -1.248765,1.39449 -1.736343,2.11077 -0.476038,0.69933 -0.895162,1.41526 -1.275272,2.06177 -0.379659,0.64573 -0.717549,1.21723 -1.079124,1.74283 -0.303618,0.44134 -0.604738,0.82121 -0.924533,1.1461 -1.481778,1.00724 -2.953949,1.88758 -4.669924,2.96018 -1.638251,1.02401 -3.416395,2.1755 -5.093972,3.52943 -0.128,0.1033 -0.254221,0.21007 -0.361454,0.3348 -0.107233,0.12473 -0.193862,0.26554 -0.2768,0.40758 -0.36482,0.62483 -0.596488,1.28093 -0.730837,1.92643 -0.13182,0.63336 -0.171387,1.26247 -0.151036,1.86029 0.03953,1.16112 0.307851,2.28613 0.664536,3.24753 0.01782,0.048 0.037,0.0956 0.05751,0.1425 0.469464,1.07433 1.118739,1.98918 1.877621,2.76129 0.746229,0.75924 1.586679,1.36898 2.448652,1.8636 1.683318,0.96594 3.537577,1.54236 5.150818,1.93038 0.01998,0.005 0.04002,0.009 0.06011,0.0137 3.867257,0.83758 7.761512,1.08175 11.621507,1.03405 3.804753,-0.047 7.590242,-0.37819 11.274499,-0.70574 0.0064,-5.7e-4 0.0127,-0.001 0.01905,-0.002 4.544324,-0.43633 9.020174,-1.1887 13.432394,-1.92522 4.36767,-0.72908 8.65877,-1.44004 12.96763,-1.83941 3.72511,-0.11305 7.4724,0.0872 11.31389,0.37541 3.77969,0.28358 7.74795,0.66182 11.6512,0.86633 0.45107,0.0442 0.91036,0.0191 1.36522,-0.0883 0.4953,-0.11699 0.93179,-0.31898 1.30674,-0.56661 0.36942,-0.24398 0.66597,-0.52327 0.90169,-0.79054 0.23491,-0.26636 0.4239,-0.53727 0.57542,-0.78171 0.29167,-0.47053 0.5151,-0.96223 0.66191,-1.28689 0.15843,-0.35032 0.28374,-0.61424 0.3244,-0.68452 0.0575,-0.0994 0.10869,-0.20248 0.15315,-0.30843 0.45756,-1.09046 0.70828,-2.20226 0.79878,-3.30008 0.0905,-1.09784 0.0204,-2.17471 -0.15672,-3.20226 -0.3518,-2.04144 -1.1369,-3.95457 -2.03236,-5.58664 -0.98576,-1.89336 -2.19466,-3.68146 -3.21224,-5.25068 -1.03154,-1.59074 -1.91788,-3.02947 -2.58058,-4.53381 -0.0811,-0.35551 -0.17593,-0.77464 -0.28107,-1.17733 -0.13472,-0.51592 -0.30735,-1.09155 -0.55022,-1.67117 -0.24674,-0.58887 -0.57645,-1.20773 -1.03679,-1.79414 -0.43277,-0.55127 -0.96386,-1.05167 -1.61046,-1.4652 -2.39285,-1.88689 -5.11493,-3.23834 -7.38514,-4.35092 -0.15596,-0.0764 -0.31894,-0.13771 -0.48663,-0.18295 -1.91369,-0.51632 -3.79354,-0.57898 -5.4282,-0.54497 -1.67285,0.0348 -3.19091,0.16256 -4.53615,0.17823 -0.4874,-0.0402 -0.96049,-0.0183 -1.24593,-0.006 -0.4253,0.0185 -0.65026,0.0298 -0.85776,0.0205 -0.0853,-0.004 -0.13348,-0.0117 -0.13379,-0.0117 -3.2e-4,-6e-5 0.051,0.008 0.14523,0.0513 0.0993,0.0452 0.2306,0.12339 0.3615,0.24895 0.1354,0.12989 0.22975,0.27162 0.2884,0.39716 0.046,0.0986 0.0861,0.19979 0.11997,0.30316 -0.89004,-2.71638 -1.08979,-5.18437 -0.73461,-7.33731 0.007,-0.0395 0.0122,-0.0791 0.0169,-0.1188 0.14117,-1.17853 0.27856,-2.22722 0.3716,-3.07337 a 2.709854,2.709854 90 0 0 -5.38724,-0.59234 c -0.0845,0.76832 -0.21362,1.75528 -0.35873,2.96385 -0.50437,3.12683 -0.16759,6.45975 0.94179,9.84551 0.0339,0.10337 0.0739,0.20461 0.11997,0.30316 0.21207,0.45396 0.50226,0.86726 0.87015,1.22016 0.35952,0.34486 0.75421,0.59479 1.14563,0.7729 0.37983,0.17283 0.7511,0.27576 1.08237,0.33905 0.32577,0.0622 0.63499,0.0903 0.90696,0.10252 0.50632,0.0228 1.02201,-0.006 1.33704,-0.0201 0.33608,-0.0146 0.57766,-0.006 0.56602,-0.007 l 0.34056,0.0195 c 1.67059,-0.01 3.26989,-0.14965 4.75284,-0.1805 1.34466,-0.028 2.55154,0.0314 3.66715,0.29882 2.26961,1.1155 4.43701,2.23319 6.26351,3.69614 0.0971,0.0778 0.19942,0.14875 0.30626,0.21246 0.1169,0.0697 0.20996,0.15287 0.29773,0.26467 0.0928,0.11818 0.195,0.28857 0.3012,0.54201 0.10682,0.25494 0.20468,0.56189 0.30496,0.94595 0.10415,0.39885 0.18546,0.77609 0.29918,1.26711 0.0355,0.15319 0.0842,0.30303 0.14569,0.44777 0.87098,2.0511 2.02006,3.88978 3.11337,5.57579 1.10853,1.70947 2.12967,3.21995 2.96457,4.82823 0.0102,0.0196 0.0206,0.0391 0.0313,0.0585 0.69988,1.2711 1.23049,2.61898 1.45508,3.92224 0.11058,0.64168 0.14416,1.25605 0.0963,1.83661 -0.0438,0.53122 -0.15609,1.04 -0.34579,1.52674 -0.19587,0.36508 -0.36314,0.74783 -0.46738,0.97836 -0.15383,0.34016 -0.24758,0.53139 -0.33015,0.66459 -0.0331,0.0534 -0.0506,0.0715 -0.0336,0.0523 0.0169,-0.0192 0.0708,-0.0774 0.17625,-0.14701 0.11034,-0.0729 0.25768,-0.14383 0.43415,-0.18551 0.17674,-0.0418 0.32907,-0.0414 0.43552,-0.0281 l -0.1976,-0.0175 c -3.85131,-0.19957 -7.64158,-0.56519 -11.60298,-0.86241 -3.9271,-0.29465 -7.92835,-0.51304 -11.97141,-0.38539 -0.0541,0.002 -0.10822,0.005 -0.16216,0.01 -4.56713,0.41913 -9.07874,1.1692 -13.44578,1.89818 -4.44492,0.74197 -8.72844,1.45991 -13.048605,1.87515 -3.706307,0.3295 -7.288528,0.63997 -10.851969,0.68401 -3.584632,0.0443 -7.037377,-0.18491 -10.377011,-0.9051 -1.378866,-0.33335 -2.656416,-0.76084 -3.691012,-1.35452 -0.51761,-0.29702 -0.942968,-0.61818 -1.28079,-0.96189 -0.318668,-0.32423 -0.566421,-0.67519 -0.746637,-1.06556 -0.17936,-0.50436 -0.286469,-1.02198 -0.301758,-1.47111 -0.008,-0.23456 0.0099,-0.42463 0.04047,-0.57156 0.03053,-0.14667 0.07023,-0.23822 0.105161,-0.29805 l -0.638248,0.74238 c 1.41056,-1.13842 2.957601,-2.14779 4.562804,-3.15115 1.674203,-1.04648 3.381847,-2.06853 5.057259,-3.2194 0.117315,-0.0806 0.228112,-0.17031 0.331336,-0.2683 0.730473,-0.69342 1.31417,-1.43877 1.798361,-2.1426 0.488438,-0.71 0.921222,-1.44727 1.285987,-2.06767 0.397533,-0.67614 0.725974,-1.23375 1.083481,-1.75895 0.359598,-0.52827 0.703886,-0.95472 1.067826,-1.30748 0.02808,-0.0272 0.05557,-0.055 0.08244,-0.0834 0.127618,-0.13489 0.281459,-0.24467 0.489077,-0.34252 0.228336,-0.10762 0.522185,-0.20069 0.909697,-0.28186 0.409868,-0.0859 0.859443,-0.1459 1.38469,-0.21182 0.427431,-0.0537 0.903287,-0.11095 1.386829,-0.19016 0.60619,0.0245 1.196704,-0.038 1.758923,-0.18826 0.75309,-0.20133 1.417641,-0.55017 1.975548,-1.00458 0.612108,-0.49856 1.061161,-1.09482 1.377379,-1.70495 0.280579,-0.54136 0.457676,-1.09448 0.563631,-1.62026 0.01608,-0.0798 0.03066,-0.15962 0.0438,-0.23948 0.623607,-2.3521 0.906506,-4.65251 1.042317,-6.70098 0.157424,-2.37444 0.133509,-4.74425 0.09656,-6.64657 -6.8e-4,-0.035 -0.002,-0.0699 -0.0041,-0.10489 -0.09565,-1.6427 -0.131383,-2.84103 -0.292394,-4.30677 -0.219617,-1.99926 -0.590812,-3.47717 -1.064548,-4.72465 a 2.709854,2.709854 90 0 0 -5.066668,1.92408 z"
       id="path-1-5"
       inkscape:path-effect="#path-effect330;#path-effect332"
       inkscape:original-d="m 92.677007,137.66058 c 1.642121,3.24053 1.943868,20.27694 -1.083941,23.30475 -0.0088,0.009 -5.380357,0.5847 -6.50365,1.08394 -2.95872,1.31499 -4.357639,5.98355 -6.50365,8.12956 -0.686463,0.68647 -10.102485,6.13581 -10.297445,7.04562 -2.762012,12.88939 22.371204,10.29618 28.724453,9.75548 8.909856,-0.75829 17.669196,-2.80631 26.556566,-3.7938 6.62342,-0.73593 25.07837,1.58573 25.47263,1.08394 6.29173,-8.00765 -2.15901,-15.29183 -5.41971,-22.2208 -0.65723,-1.39662 -0.53447,-3.24432 -1.62591,-4.33577 -2.12608,-2.12608 -4.93028,-3.47092 -7.58759,-4.87773 -3.0309,-1.6046 -13.06617,0.48614 -13.54927,-1.08395 -1.68627,-5.48036 -1.10292,-6.87479 -0.54197,-11.92335"
       style="fill:#000000;fill-rule:nonzero;stroke:none;stroke-width:1px;stroke-linecap:butt;stroke-linejoin:miter;stroke-opacity:1" />
    <path
       d="m 100.21579,153.6716 c 0.80269,0.36934 2.0123,0.83137 3.70919,1.13559 1.28844,0.231 2.53398,0.31385 3.58931,0.34338 2.64571,0.0744 6.24652,-0.14548 7.38693,-0.14692 a 2.709854,2.709854 90 0 0 -0.007,-5.4197 c -1.29636,0.002 -4.99938,0.21167 -7.22819,0.14905 -0.90382,-0.0253 -1.85755,-0.0942 -2.78483,-0.26046 -1.17605,-0.21085 -1.94591,-0.51545 -2.40009,-0.72444 a 2.709854,2.709854 90 0 0 -2.2655,4.9235 z"
       id="path-1-9"
       inkscape:path-effect="#path-effect337;#path-effect339"
       inkscape:original-d="m 101.34854,151.20985 c 4.04644,1.86235 9.09716,1.08395 13.54927,1.08395"
       style="fill:#000000;fill-rule:nonzero;stroke:none;stroke-width:1px;stroke-linecap:butt;stroke-linejoin:miter;stroke-opacity:1" />
    <path
       d="m 122.7043,159.89024 c -0.28379,-0.023 -1.07585,-0.0915 -1.86658,-0.0376 -0.60424,0.0412 -1.47418,0.16401 -2.37794,0.5904 -0.66757,0.31105 -1.27786,0.80825 -1.73152,1.47008 -0.40963,0.59762 -0.7073,1.3496 -0.74242,2.21873 -0.0405,0.9014 0.14762,1.71418 0.40646,2.40474 0.22968,0.61254 0.52566,1.15973 0.82285,1.65945 0.0112,0.0188 0.0226,0.0375 0.0342,0.056 1.16714,1.85854 2.77151,3.53737 4.77412,5.04902 0.0113,0.009 0.0227,0.017 0.0341,0.0254 0.65224,0.47645 1.42935,1.00142 2.29687,1.45614 0.82181,0.43076 1.77754,0.827 2.85226,1.05847 0.004,7.8e-4 0.007,0.002 0.011,0.002 0.62339,0.13157 1.3783,0.20493 2.17887,0.10043 0.39463,-0.0515 0.81477,-0.14822 1.23948,-0.31234 0.39456,-0.15246 0.79089,-0.36238 1.16763,-0.64366 0.72591,-0.50512 1.42634,-1.15172 2.00331,-1.93877 0.5798,-0.79091 1.05399,-1.75151 1.26438,-2.8571 0.23437,-1.19636 0.14227,-2.35922 -0.12837,-3.40776 -0.26738,-1.0359 -0.71502,-1.98684 -1.23472,-2.81077 -0.003,-0.004 -0.005,-0.008 -0.008,-0.0126 -1.18079,-1.84931 -2.88466,-3.46029 -4.98313,-4.44475 -0.005,-0.003 -0.011,-0.005 -0.0165,-0.008 -0.57484,-0.26499 -1.22688,-0.49361 -1.93372,-0.62256 -0.69628,-0.12703 -1.46181,-0.15997 -2.25679,-0.0225 -0.99157,0.13841 -2.30074,0.27953 -3.58543,0.59832 -0.3243,0.0572 -0.60112,0.15882 -0.81641,0.26048 -0.16713,0.0789 -0.34067,0.17823 -0.51152,0.30186 -0.16574,0.11995 -0.37433,0.29557 -0.57334,0.54041 -0.10245,0.12604 -0.21635,0.28762 -0.31968,0.48608 -0.10367,0.1991 -0.20708,0.45546 -0.26682,0.76334 -0.0611,0.31497 -0.0748,0.67744 4.1e-4,1.0627 0.0763,0.39054 0.23234,0.74426 0.44069,1.04599 0.20494,0.29679 0.4403,0.51493 0.65416,0.67125 0.21305,0.1557 0.41861,0.26044 0.58808,0.3315 0.27048,0.11341 0.51995,0.17047 0.71069,0.20121 1.03685,0.19531 2.10418,0.19603 2.70128,0.20856 0.1483,0.003 0.29663,-0.006 0.44345,-0.0271 0.0372,-0.005 0.11086,-0.0166 0.20206,-0.0367 0.0465,-0.0102 0.11871,-0.0273 0.20558,-0.0537 0.0752,-0.0228 0.23102,-0.073 0.41648,-0.16473 0.0956,-0.0472 0.23749,-0.12427 0.39597,-0.23983 0.15076,-0.10993 0.3905,-0.30805 0.61145,-0.61848 0.11547,-0.16224 0.23306,-0.36494 0.32652,-0.61174 0.0948,-0.25039 0.1597,-0.53401 0.17311,-0.84199 0.0135,-0.30916 -0.0265,-0.60687 -0.10734,-0.88186 -0.0794,-0.2701 -0.19317,-0.50061 -0.31064,-0.6861 -0.22648,-0.35762 -0.4876,-0.5848 -0.65238,-0.70974 -0.17285,-0.13106 -0.32897,-0.2166 -0.4321,-0.26782 -0.20079,-0.0997 -0.36991,-0.15221 -0.44799,-0.17498 -0.0922,-0.0269 -0.1685,-0.0438 -0.2166,-0.0537 -0.0512,-0.0105 -0.0945,-0.0178 -0.12601,-0.0228 -0.0616,-0.01 -0.11202,-0.0154 -0.1419,-0.0186 -0.0604,-0.006 -0.1102,-0.01 -0.13603,-0.0113 -0.0559,-0.003 -0.1075,-0.005 -0.13977,-0.006 -0.0373,-0.001 -0.0749,-0.002 -0.10807,-0.003 -0.0673,-0.001 -0.14102,-0.003 -0.19241,-0.003 -0.0292,-4.4e-4 -0.0523,-7.9e-4 -0.0719,-0.001 -0.0192,-3.3e-4 -0.033,-6.7e-4 -0.0294,-5.7e-4 l -0.0375,-7.9e-4 c -1.2487,-0.0176 -2.6665,-0.017 -3.37938,-0.0175 a 2.709854,2.709854 90 0 0 -0.004,5.4197 c 0.72409,5.2e-4 2.09122,2e-5 3.29162,0.0168 0.023,5.5e-4 0.0458,9.7e-4 0.0652,0.001 0.0266,4.6e-4 0.0557,8.9e-4 0.0839,0.001 0.0564,8.4e-4 0.11168,0.002 0.1585,0.003 0.0225,4.7e-4 0.0384,9e-4 0.0483,0.001 0.008,2.7e-4 0.0112,7.9e-4 -0.0218,-0.001 -0.0105,-6.6e-4 -0.0474,-0.003 -0.0975,-0.008 -0.0248,-0.003 -0.0708,-0.008 -0.12884,-0.017 -0.0297,-0.005 -0.0714,-0.0117 -0.12116,-0.0219 -0.0467,-0.01 -0.12179,-0.0262 -0.21292,-0.0528 -0.077,-0.0225 -0.24534,-0.0746 -0.4455,-0.17406 -0.10282,-0.0511 -0.25868,-0.13646 -0.43132,-0.26736 -0.16458,-0.12478 -0.42555,-0.35181 -0.65192,-0.70927 -0.11743,-0.18541 -0.2312,-0.41584 -0.31053,-0.68586 -0.0808,-0.27491 -0.12077,-0.57254 -0.10731,-0.88161 0.0134,-0.30791 0.0783,-0.59145 0.17305,-0.84176 0.0934,-0.24672 0.21098,-0.44933 0.3264,-0.61149 0.22083,-0.31026 0.4604,-0.50823 0.61094,-0.61799 0.15825,-0.11539 0.29991,-0.19226 0.39511,-0.23933 0.18478,-0.0914 0.33975,-0.14128 0.41376,-0.16371 0.0857,-0.026 0.1566,-0.0427 0.20146,-0.0526 0.088,-0.0194 0.15745,-0.0299 0.1895,-0.0345 0.14682,-0.0212 0.29515,-0.0302 0.44345,-0.0271 -0.79309,-0.0166 -1.34578,-0.0242 -1.83521,-0.1206 -0.0608,-0.012 -0.12203,-0.0219 -0.18352,-0.0296 0.0981,0.0124 0.31803,0.0473 0.58868,0.16083 0.14017,0.0588 0.32127,0.14996 0.51433,0.29106 0.19399,0.14179 0.41393,0.34437 0.60755,0.62477 0.1971,0.28543 0.34599,0.62204 0.41879,0.99487 0.0718,0.36766 0.0583,0.71194 8.3e-4,1.00836 -0.0562,0.28943 -0.15268,0.527 -0.24651,0.7072 -0.0935,0.17963 -0.1947,0.32228 -0.28186,0.42952 -0.16863,0.20745 -0.33672,0.3462 -0.45485,0.43169 -0.12361,0.0894 -0.24292,0.15697 -0.35191,0.20843 -0.18964,0.0895 -0.48679,0.19581 -0.87776,0.20974 l 0.5863,-0.0857 c 0.93893,-0.24446 1.84925,-0.33747 3.17794,-0.52291 0.0395,-0.006 0.0789,-0.0119 0.1181,-0.0191 0.0724,-0.0134 0.19026,-0.0197 0.36736,0.0126 0.17672,0.0322 0.3894,0.0991 0.62954,0.20911 1.05862,0.49663 2.01268,1.36351 2.7044,2.44438 0.27043,0.42997 0.46307,0.86467 0.56709,1.26768 0.10444,0.40463 0.11101,0.74048 0.0569,1.01411 -0.002,0.008 -0.003,0.0159 -0.005,0.0238 -0.0368,0.19554 -0.13117,0.42199 -0.31163,0.66817 -0.18657,0.25449 -0.44492,0.501 -0.75153,0.71071 -0.0451,0.0308 -0.0892,0.063 -0.13233,0.0965 0.0528,-0.041 0.10046,-0.0643 0.13043,-0.0759 0.0283,-0.011 0.0352,-0.009 0.0126,-0.006 -0.0566,0.007 -0.17903,0.008 -0.35328,-0.0282 -0.47755,-0.10357 -0.96527,-0.294 -1.47125,-0.55921 -0.53445,-0.28014 -1.06673,-0.63181 -1.59883,-1.01972 -1.54768,-1.16823 -2.65941,-2.37013 -3.41541,-3.56543 -0.21164,-0.35791 -0.32263,-0.58534 -0.38909,-0.76258 -0.0721,-0.19227 -0.0672,-0.25999 -0.0672,-0.25979 l 0.001,-0.0283 c -0.01,0.27165 -0.098,0.47809 -0.20269,0.63083 -0.11287,0.16467 -0.26809,0.29452 -0.45404,0.38028 l 0.027,-0.0127 c 0.0622,-0.0295 0.1914,-0.0685 0.43473,-0.0851 0.32765,-0.0223 0.73008,0.006 1.06016,0.0324 a 2.709854,2.709854 90 0 0 0.4378,-5.402 z"
       id="path-1-1"
       inkscape:path-effect="#path-effect344;#path-effect346"
       inkscape:original-d="m 122.4854,162.59124 c -10.33194,-0.98833 3.21952,13.2095 7.58759,10.29745 6.13244,-4.08829 -0.83119,-11.88721 -4.87773,-11.38139 -11.35531,1.41941 5.51141,1.08394 -5.41971,1.08394"
       style="fill:#000000;fill-rule:nonzero;stroke:none;stroke-width:1px;stroke-linecap:butt;stroke-linejoin:miter;stroke-opacity:1" />
    <path
       d="m 104.62935,176.70392 c 0.21346,0.15571 1.88396,1.41516 3.25882,2.19538 0.0153,0.009 0.0307,0.0172 0.0462,0.0256 0.15586,0.0845 0.5596,0.30613 0.98964,0.48353 0.36454,0.15038 0.89048,0.3322 1.52284,0.40137 l -0.0131,-0.001 c 0.49265,0.0563 1.03196,0.0225 1.57121,-0.14128 0.52141,-0.1584 1.06215,-0.44568 1.52684,-0.9045 l -0.0144,0.0141 c 0.47027,-0.45749 0.76103,-0.95448 0.94645,-1.34976 0.18872,-0.4023 0.30825,-0.79025 0.37391,-1.00766 0.005,-0.0177 0.0105,-0.0354 0.0155,-0.0532 0.34963,-1.2493 0.52774,-2.85209 0.56354,-3.12525 a 2.709854,2.709854 90 0 0 -5.37376,-0.70428 c -0.0664,0.50672 -0.18973,1.57088 -0.40147,2.34189 -0.0468,0.15174 -0.0835,0.24499 -0.0844,0.24677 -8.2e-4,0.002 0.0438,-0.0981 0.17533,-0.22768 0.22985,-0.22396 0.48177,-0.35074 0.69697,-0.41612 0.21945,-0.0667 0.42669,-0.0786 0.61046,-0.0587 0.0512,0.006 0.0439,0.014 -0.0492,-0.0244 -0.11806,-0.0487 -0.26716,-0.12642 -0.44981,-0.22518 -1.02466,-0.58492 -2.33282,-1.56705 -2.71777,-1.84784 a 2.709854,2.709854 90 0 0 -3.19386,4.37864 z"
       id="path-1-58"
       inkscape:path-effect="#path-effect351;#path-effect353"
       inkscape:original-d="m 106.22628,174.5146 c 5.18821,3.82417 5.8536,3.57448 6.50365,-1.62591"
       style="fill:#000000;fill-rule:nonzero;stroke:none;stroke-width:1px;stroke-linecap:butt;stroke-linejoin:miter;stroke-opacity:1" />
    <path
       d="m 103.51726,170.24597 c 0.0301,1.21444 0.0828,3.21127 -0.21993,4.95444 -0.16619,0.93123 -0.38631,1.51018 -0.58003,1.89865 a 2.709854,2.709854 90 0 0 4.85008,2.41866 c 0.28467,-0.57084 0.87503,-2.29592 1.06667,-3.37254 6e-4,-0.003 0.001,-0.007 0.002,-0.0101 0.41219,-2.36748 0.32679,-4.92125 0.29947,-6.02338 a 2.709854,2.709854 90 0 0 -5.41804,0.13428 z"
       id="path-1-6"
       inkscape:path-effect="#path-effect358;#path-effect360"
       inkscape:original-d="m 106.22628,170.17883 c 0.0703,2.69267 0.0544,5.85283 -1.08394,8.12956"
       style="fill:#000000;fill-rule:nonzero;stroke:none;stroke-width:1px;stroke-linecap:butt;stroke-linejoin:miter;stroke-opacity:1" />
    <path
       style="fill:#000000;stroke:none;stroke-width:1px;stroke-linecap:butt;stroke-linejoin:miter;stroke-opacity:1"
       d="M 372.80763,577.64699 432.21105,432.21105"
       id="path364" />
    <path
       d="m 113.509,105.4088 c -0.42822,0.43484 -1.1577,1.11962 -2.1373,2.12326 -0.052,0.0533 -0.10174,0.10863 -0.14917,0.16598 -0.13536,0.16371 -0.2989,0.39865 -0.42796,0.70768 -0.1312,0.31414 -0.22069,0.69174 -0.2136,1.11274 0.007,0.41429 0.10605,0.78368 0.24464,1.09057 0.13164,0.2915 0.2914,0.51095 0.41955,0.6614 0.12599,0.14792 0.2453,0.25692 0.32832,0.32741 0.0831,0.0705 0.15516,0.12372 0.19938,0.1554 0.0934,0.0669 0.12138,0.0838 0.0951,0.0657 -0.0129,-0.009 -0.11772,-0.0801 -0.24202,-0.19453 -0.1223,-0.11257 -0.33607,-0.33188 -0.51589,-0.66997 -0.0913,-0.17161 -0.17311,-0.37259 -0.22871,-0.6008 -0.0554,-0.2274 -0.0798,-0.46192 -0.0721,-0.69679 0.008,-0.2312 0.0458,-0.44278 0.10008,-0.62951 0.0533,-0.1833 0.12098,-0.33833 0.18705,-0.46366 l -0.27844,0.83407 c -0.003,0.0194 -0.0205,0.10541 -0.11473,0.31672 -0.084,0.18827 -0.16971,0.35172 -0.32604,0.66366 -0.0226,0.0452 -0.0468,0.0936 -0.0716,0.14407 -0.5362,1.00701 -1.22021,2.19296 -2.06162,3.49695 -0.0281,0.0281 -0.0739,0.0709 -0.14391,0.12817 -0.15442,0.12648 -0.29107,0.22202 -0.58739,0.44142 -0.24113,0.17854 -0.59078,0.44226 -0.93167,0.76999 -0.34232,0.32911 -0.7186,0.76162 -1.0282,1.32543 -0.039,0.071 -0.0747,0.14364 -0.1072,0.21781 -0.26857,0.61363 -0.56094,1.37086 -0.75013,2.20666 -0.18392,0.81251 -0.28498,1.74949 -0.14249,2.76821 0.12315,0.92149 0.49191,1.77299 1.02954,2.48216 0.52335,0.69034 1.22725,1.27251 2.06655,1.65067 1.0151,0.46389 2.04625,0.6467 2.99099,0.69069 0.92904,0.0433 1.81703,-0.0461 2.58166,-0.15952 0.0166,-0.002 0.0332,-0.005 0.0497,-0.008 2.82318,-0.47259 5.51872,-1.58752 7.86288,-3.18774 0.0106,-0.007 0.0212,-0.0146 0.0317,-0.022 0.65727,-0.46253 1.34486,-1.00381 1.98492,-1.64222 0.64706,-0.64539 1.26028,-1.40459 1.74641,-2.3008 0.07,-0.12908 0.12943,-0.26365 0.17764,-0.40235 0.19115,-0.54992 0.22397,-1.08525 0.16655,-1.56095 -0.0551,-0.4567 -0.18947,-0.82841 -0.29808,-1.08014 -0.10652,-0.24688 -0.22572,-0.46032 -0.28203,-0.56165 -0.066,-0.1188 -0.0944,-0.17516 -0.0804,-0.14543 l -0.0613,-0.12236 c 0.002,0.003 0.012,0.0221 0.0271,0.0623 0.0108,0.0289 0.0586,0.15805 0.0802,0.36264 0.0116,0.10981 0.019,0.27228 -0.005,0.47121 -0.0251,0.20327 -0.0861,0.46368 -0.22446,0.74275 -0.14383,0.29003 -0.35183,0.55994 -0.61929,0.78066 -0.1761,0.14533 -0.35536,0.25083 -0.52288,0.32657 -0.18413,0.0737 -0.31677,0.0972 -0.3373,0.10104 -0.0621,0.0117 -0.009,0.003 0.13765,-0.0179 0.11744,-0.017 0.43705,-0.0635 0.79199,-0.19617 0.1952,-0.073 0.43251,-0.18279 0.67866,-0.35147 0.25564,-0.17518 0.50815,-0.40539 0.72541,-0.70035 0.21796,-0.29589 0.43423,-0.59778 0.5749,-0.9373 0.14068,-0.33951 0.20178,-0.71489 0.15059,-1.07881 -0.0512,-0.36392 -0.21349,-0.70788 -0.44237,-0.99541 -0.22888,-0.28753 -0.52004,-0.51804 -0.81117,-0.74232 -1.0105,-0.77847 -2.05724,-1.39447 -2.98735,-1.89515 -0.94433,-0.50833 -2.09388,-1.06365 -2.83637,-1.43682 -1.43776,-0.71787 -2.28329,-1.19078 -3.04044,-1.69552 a 2.709854,2.709854 90 0 0 -3.0062,4.50954 c 1.02669,0.68442 2.09868,1.27249 3.61924,2.03169 0.86824,0.43638 1.83784,0.90198 2.69487,1.36332 0.80243,0.43195 1.56498,0.88963 2.24869,1.41634 l -0.52805,-3.75384 c 0.17533,-0.23804 0.37717,-0.42079 0.57465,-0.55611 0.18891,-0.12946 0.36192,-0.20754 0.48702,-0.25431 0.2498,-0.0934 0.3457,-0.0935 0.32863,-0.091 -0.0166,0.002 -0.13458,0.0125 -0.36167,0.0552 -0.15383,0.0289 -0.44654,0.0908 -0.7823,0.239 -0.26885,0.1093 -0.54485,0.26431 -0.80582,0.47968 -0.34031,0.28083 -0.60319,0.62187 -0.78653,0.99156 -0.17755,0.35802 -0.26253,0.70563 -0.29906,1.00181 -0.0359,0.29105 -0.0275,0.5511 -0.005,0.76136 0.0426,0.40328 0.14893,0.74133 0.23374,0.96794 0.0771,0.20604 0.16172,0.38624 0.23553,0.52907 0.0889,0.182 0.18394,0.34873 0.21746,0.40905 0.0591,0.10632 0.0561,0.10608 0.0432,0.0763 -0.0157,-0.0363 -0.0785,-0.1872 -0.10629,-0.41745 -0.0303,-0.25094 -0.0138,-0.55545 0.0948,-0.86795 0.0482,-0.1387 0.10762,-0.27327 0.17764,-0.40235 -0.18652,0.34386 -0.4544,0.69319 -0.80979,1.04766 -0.35302,0.3521 -0.7754,0.69357 -1.26082,1.03611 -1.70045,1.16081 -3.65445,1.96376 -5.66142,2.30359 -0.57709,0.0846 -1.07399,0.12327 -1.50916,0.10301 -0.43942,-0.0205 -0.75637,-0.0988 -0.99311,-0.20745 -0.008,-0.004 -0.016,-0.007 -0.024,-0.0109 0.0281,0.0126 0.024,0.0135 0.0264,0.0166 0.002,0.003 0.0165,0.0206 0.0236,0.075 l -0.004,-0.0307 c -0.0293,-0.20615 -0.0189,-0.47282 0.0606,-0.82404 0.0709,-0.31346 0.18771,-0.65433 0.34208,-1.02614 0.004,-0.004 0.009,-0.008 0.0136,-0.0133 0.0746,-0.0717 0.18693,-0.16307 0.40057,-0.32126 0.18472,-0.13676 0.50616,-0.36651 0.79645,-0.60427 0.32557,-0.26666 0.69455,-0.60587 1.03602,-1.04802 0.045,-0.0582 0.0876,-0.11827 0.12764,-0.17996 0.97365,-1.49856 1.76602,-2.86798 2.41235,-4.08177 0.0148,-0.0277 0.029,-0.0556 0.0428,-0.0838 0.0219,-0.0448 0.045,-0.0914 0.0695,-0.14022 0.10776,-0.21502 0.28119,-0.54963 0.4304,-0.88417 0.19971,-0.44774 0.41095,-1.00963 0.51621,-1.66509 l -0.27844,0.83407 c 0.0821,-0.15582 0.16142,-0.33945 0.22258,-0.54965 0.0622,-0.21387 0.10438,-0.45088 0.1128,-0.706 0.009,-0.25899 -0.0184,-0.51611 -0.079,-0.76476 -0.0608,-0.24968 -0.15063,-0.47076 -0.25197,-0.66131 -0.20026,-0.37652 -0.44328,-0.62963 -0.59866,-0.77265 -0.15807,-0.1455 -0.30111,-0.24471 -0.3516,-0.27952 -0.0649,-0.0448 -0.0752,-0.0525 -0.0155,-0.01 0.027,0.0193 0.0831,0.0604 0.15173,0.11866 0.0684,0.0581 0.17485,0.15469 0.2901,0.29 0.11724,0.13764 0.26834,0.34412 0.39395,0.62228 0.13247,0.29334 0.22817,0.64884 0.2349,1.04873 0.007,0.40636 -0.0797,0.76882 -0.20425,1.06716 -0.12234,0.29295 -0.27544,0.51116 -0.39631,0.65734 -0.0474,0.0573 -0.0972,0.11273 -0.14917,0.16598 0.84156,-0.86221 1.62996,-1.60801 2.12038,-2.106 A 2.709854,2.709854 90 0 0 113.509,105.4088 Z"
       id="path-1-3"
       inkscape:path-effect="#path-effect367;#path-effect369"
       inkscape:original-d="m 115.43978,107.31022 c -5.17805,5.17805 1.38774,-1.89521 -4.87774,8.12956 -0.67704,1.08327 -2.21853,1.53068 -2.70985,2.70986 -4.00835,9.62002 11.44183,5.74449 14.63321,0 0.36174,-0.65114 -0.68805,-1.43749 -0.54197,-2.16789 0.0792,-0.39611 1.40711,-0.29959 1.08394,-0.54197 -2.65313,-1.98985 -5.9121,-3.03812 -8.67153,-4.87774"
       style="fill:#000000;fill-rule:nonzero;stroke:none;stroke-width:1px;stroke-linecap:butt;stroke-linejoin:miter;stroke-opacity:1" />
    <path
       d="m 89.371621,97.053998 c -0.530972,0.419322 -2.443736,1.967757 -3.702094,2.864239 -0.04964,0.03537 -0.09808,0.0724 -0.145226,0.111033 0.07608,-0.06234 0.188399,-0.14516 0.342035,-0.228503 0.06932,-0.0376 0.194066,-0.101057 0.361728,-0.160103 0.0824,-0.02902 0.212486,-0.07027 0.377135,-0.101939 0.139263,-0.02679 0.439153,-0.07426 0.818611,-0.02987 0.197504,0.0231 0.473459,0.07749 0.779279,0.212868 0.312942,0.138529 0.669913,0.368507 0.97737,0.735037 0.311625,0.3715 0.497889,0.79523 0.580526,1.21002 0.07865,0.39477 0.05577,0.73738 0.01313,0.98559 -0.04237,0.24665 -0.111845,0.44527 -0.170135,0.58448 -0.05918,0.14132 -0.121376,0.25586 -0.171909,0.34034 -0.09746,0.16294 -0.192762,0.28245 -0.252032,0.35229 -0.11642,0.13717 -0.218881,0.22848 -0.264477,0.26789 -0.05333,0.0461 -0.09506,0.0777 -0.1171,0.0939 l 0.06857,-0.0521 c 0.203386,-0.15958 0.330277,-0.25745 0.444411,-0.33352 0.06558,-0.0437 0.102705,-0.0635 0.117815,-0.0708 0.0066,-0.003 0.006,-0.003 -0.0011,1.1e-4 -0.01947,0.007 -0.03902,0.0143 -0.05866,0.0211 -0.146355,0.0507 -0.458532,0.14181 -0.874916,0.1259 -0.211533,-0.008 -0.465093,-0.0445 -0.738503,-0.13877 -0.272146,-0.0939 -0.542549,-0.23792 -0.79018,-0.43844 -0.242057,-0.19601 -0.431475,-0.42091 -0.573881,-0.65023 -0.137664,-0.22169 -0.224491,-0.43547 -0.280039,-0.6218 -0.103821,-0.34826 -0.109616,-0.64026 -0.101789,-0.81287 0.008,-0.17671 0.03459,-0.31723 0.05725,-0.41168 0.02286,-0.0953 0.04967,-0.1767 0.07601,-0.24484 0.02561,-0.0663 0.0575,-0.13744 0.09829,-0.21337 0.03653,-0.068 0.100329,-0.17757 0.199855,-0.30585 l -0.268224,0.42061 c -0.04131,0.0802 -0.190867,0.29792 -0.476847,0.69036 -0.233127,0.31992 -0.664383,0.91147 -0.960788,1.66155 -0.253369,0.61855 -0.388824,1.33305 -0.334581,2.07768 0.02704,0.37114 0.102326,0.76146 0.243344,1.15272 0.137502,0.3815 0.337164,0.76245 0.611014,1.11863 0.271491,0.35563 0.575521,0.65421 0.890513,0.90439 0.310966,0.24699 0.630127,0.44491 0.937089,0.6055 0.591452,0.30942 1.181858,0.50239 1.648448,0.63519 0.01885,0.005 0.03776,0.0105 0.05672,0.0155 1.96467,0.51336 3.965634,0.53406 5.836622,0.31729 0.0161,-0.002 0.03218,-0.004 0.04824,-0.006 0.61664,-0.0827 1.321706,-0.19899 2.042491,-0.39619 0.7186,-0.19661 1.490752,-0.48343 2.245042,-0.92766 0.05979,-0.0352 0.118199,-0.0727 0.175106,-0.1124 0.0093,-0.007 0.184933,-0.10621 0.478893,-0.3395 0.143014,-0.11349 0.327084,-0.27409 0.512047,-0.48676 0.1885,-0.21674 0.38217,-0.49238 0.53667,-0.83343 0.0719,-0.15869 0.12831,-0.32397 0.16848,-0.49349 0.0664,-0.28018 0.092,-0.54533 0.0931,-0.78624 0.001,-0.23834 -0.0218,-0.44875 -0.0499,-0.62089 -0.0507,-0.31085 -0.13885,-0.59609 -0.15837,-0.66307 -0.0388,-0.13312 -0.0129,-0.0623 0.003,0.0513 0.01,0.0724 0.0193,0.17963 0.0133,0.31412 -0.006,0.13751 -0.0281,0.29336 -0.0759,0.45848 -0.0482,0.16636 -0.11216,0.32775 -0.19112,0.48189 -0.0822,0.16052 -0.15643,0.21342 -0.11617,0.1781 0.0673,-0.059 0.15754,-0.12363 0.41327,-0.30202 0.1187,-0.0826 0.62349,-0.40929 0.98618,-0.70213 0.21977,-0.17744 0.46688,-0.39953 0.70657,-0.674 0.24566,-0.28129 0.4831,-0.61705 0.6777,-1.01563 0.0163,-0.0333 0.0319,-0.067 0.0468,-0.10103 0.37598,-0.85776 0.45789,-1.76829 0.32635,-2.59479 -0.1383,-0.869035 -0.51585,-1.702592 -1.14183,-2.387082 l 0.0173,0.01914 c -0.62567,-0.697371 -1.32943,-1.144115 -1.95901,-1.454948 -0.644241,-0.318072 -1.286857,-0.525115 -1.761354,-0.666284 -0.0172,-0.0051 -0.03446,-0.01007 -0.05176,-0.01484 -2.323743,-0.641377 -4.703376,-0.75782 -6.395513,-0.815112 -1.241334,-0.03879 -2.687952,-0.01511 -3.359949,-0.0079 a 2.709854,2.709854 90 0 0 0.05829,5.419392 c 0.736398,-0.008 2.035348,-0.0287 3.125344,0.005 1.658011,0.0561 3.460872,0.16602 5.104168,0.61558 0.374398,0.11213 0.659116,0.21373 0.881462,0.32351 0.208972,0.10317 0.293717,0.18056 0.324222,0.21456 0.0057,0.006 0.01153,0.0128 0.01734,0.0191 -0.135913,-0.14862 -0.190716,-0.29062 -0.211099,-0.4187 -0.01786,-0.11222 -0.01268,-0.26194 0.0622,-0.43275 0.0149,-0.034 0.0305,-0.0677 0.04678,-0.10103 0.04308,-0.0882 0.08784,-0.14575 0.110426,-0.17161 0.01943,-0.0222 0.01769,-0.0156 -0.02909,0.0222 -0.0872,0.0704 -0.321705,0.22298 -0.679667,0.47207 -0.178878,0.12477 -0.547301,0.37479 -0.888979,0.67449 -0.364863,0.32003 -0.800731,0.77541 -1.133742,1.42556 -0.07896,0.15414 -0.142962,0.31553 -0.191118,0.48189 -0.0816,0.2819 -0.121117,0.55378 -0.132412,0.80682 -0.01115,0.24976 0.0054,0.47177 0.03087,0.65856 0.04655,0.34199 0.136832,0.63941 0.164311,0.73372 0.04647,0.15951 0.02606,0.10144 0.01266,0.0193 -0.0094,-0.0579 -0.02129,-0.15358 -0.02072,-0.27652 5.83e-4,-0.12558 0.01411,-0.27472 0.05279,-0.43801 0.04016,-0.16952 0.09659,-0.3348 0.168477,-0.49349 0.09631,-0.21259 0.212543,-0.374 0.310633,-0.48678 0.09456,-0.10873 0.175287,-0.17569 0.208349,-0.20193 0.06047,-0.048 0.02345,-0.0232 -0.109493,0.0693 -0.227864,0.12436 -0.506197,0.23373 -0.850732,0.328 -0.383723,0.10498 -0.814163,0.18201 -1.308169,0.24886 -1.379162,0.15981 -2.661173,0.1176 -3.790492,-0.17268 -0.294362,-0.0849 -0.475415,-0.15597 -0.591285,-0.21658 -0.05371,-0.0281 -0.07779,-0.0465 -0.07862,-0.0472 -7.93e-4,-6.3e-4 0.01941,0.0163 0.04287,0.0461 0.08574,0.11371 0.144867,0.23008 0.183456,0.33715 0.04033,0.11188 0.05758,0.21135 0.06339,0.29118 0.01135,0.15575 -0.01701,0.27869 -0.05821,0.37689 l 0.02818,-0.0699 c 0.0036,-0.009 0.08817,-0.16977 0.300138,-0.46066 0.186511,-0.25594 0.541256,-0.71648 0.837703,-1.25563 0.03966,-0.0641 0.07347,-0.12377 0.101927,-0.17675 0.07138,-0.13289 0.13194,-0.26669 0.182448,-0.39737 0.05193,-0.13436 0.100279,-0.28365 0.139008,-0.44514 0.039,-0.16264 0.07584,-0.36916 0.08661,-0.60669 0.01068,-0.23543 -2.87e-4,-0.58433 -0.118526,-0.98095 -0.06294,-0.21112 -0.159576,-0.44741 -0.309594,-0.688989 -0.154993,-0.249594 -0.359621,-0.492035 -0.619633,-0.702584 -0.26595,-0.215356 -0.557489,-0.37111 -0.8537,-0.473255 -0.297988,-0.102755 -0.57913,-0.144092 -0.821349,-0.153348 -0.479903,-0.01834 -0.868526,0.08649 -1.104809,0.16828 -0.01963,0.0068 -0.03918,0.01382 -0.05866,0.02106 -0.17365,0.06462 -0.331841,0.134049 -0.473377,0.202676 -0.293485,0.142304 -0.54826,0.297204 -0.759095,0.437731 -0.30404,0.202651 -0.583301,0.421807 -0.760237,0.560709 -0.05327,0.04033 -0.112347,0.08729 -0.174004,0.140589 -0.07233,0.0625 -0.194005,0.17287 -0.323336,0.32525 -0.06584,0.0776 -0.166089,0.20385 -0.267037,0.37262 -0.05229,0.0874 -0.115877,0.20466 -0.176089,0.34846 -0.05933,0.14168 -0.129486,0.34256 -0.172206,0.59122 -0.04299,0.25025 -0.06588,0.59465 0.01308,0.991 0.08295,0.41637 0.269857,0.84146 0.582428,1.21409 0.30841,0.36766 0.666644,0.59855 0.981134,0.73776 0.307388,0.13607 0.585201,0.19093 0.784834,0.21428 0.383771,0.0449 0.689093,-0.003 0.834754,-0.031 0.171142,-0.0329 0.30872,-0.0763 0.399449,-0.10824 0.184727,-0.0651 0.330028,-0.13793 0.42229,-0.18798 0.156702,-0.085 0.294238,-0.17739 0.411635,-0.26664 1.403752,-1.00461 3.484926,-2.68794 3.868308,-2.9907 a 2.709854,2.709854 90 0 0 -3.358948,-4.253322 z"
       id="path-1-98"
       inkscape:path-effect="#path-effect374;#path-effect376"
       inkscape:original-d="m 91.051095,99.180657 c -8.900019,7.120013 0.49274,-1.198957 -3.251825,3.793793 -3.63224,4.84299 7.895963,5.11134 10.297445,2.70986 0.383232,-0.38323 -0.287244,-1.16633 0,-1.62592 0.677041,-1.08326 2.459325,-1.45722 2.709855,-2.70985 0.85012,-4.250589 -10.099095,-3.793795 -11.923358,-3.793795"
       style="fill:#000000;fill-rule:nonzero;stroke:none;stroke-width:1px;stroke-linecap:butt;stroke-linejoin:miter;stroke-opacity:1" />
  </g>
</svg>
